<?xml version="1.0" encoding="utf-8" standalone="no"?>
<!DOCTYPE svg PUBLIC "-//W3C//DTD SVG 1.1//EN"
  "http://www.w3.org/Graphics/SVG/1.1/DTD/svg11.dtd">
<!-- Created with matplotlib (https://matplotlib.org/) -->
<svg height="432pt" version="1.1" viewBox="0 0 720 432" width="720pt" xmlns="http://www.w3.org/2000/svg" xmlns:xlink="http://www.w3.org/1999/xlink">
 <metadata>
  <rdf:RDF xmlns:cc="http://creativecommons.org/ns#" xmlns:dc="http://purl.org/dc/elements/1.1/" xmlns:rdf="http://www.w3.org/1999/02/22-rdf-syntax-ns#">
   <cc:Work>
    <dc:type rdf:resource="http://purl.org/dc/dcmitype/StillImage"/>
    <dc:date>2025-02-05T17:17:12.610706</dc:date>
    <dc:format>image/svg+xml</dc:format>
    <dc:creator>
     <cc:Agent>
      <dc:title>Matplotlib v3.3.4, https://matplotlib.org/</dc:title>
     </cc:Agent>
    </dc:creator>
   </cc:Work>
  </rdf:RDF>
 </metadata>
 <defs>
  <style type="text/css">*{stroke-linecap:butt;stroke-linejoin:round;}</style>
 </defs>
 <g id="figure_1">
  <g id="patch_1">
   <path d="M 0 432 
L 720 432 
L 720 0 
L 0 0 
z
" style="fill:#ffffff;"/>
  </g>
  <g id="axes_1">
   <g id="patch_2">
    <path d="M 90 384.48 
L 648 384.48 
L 648 51.84 
L 90 51.84 
z
" style="fill:#ffffff;"/>
   </g>
   <g id="matplotlib.axis_1">
    <g id="xtick_1">
     <g id="line2d_1">
      <path clip-path="url(#p15185fac07)" d="M 115.243384 384.48 
L 115.243384 51.84 
" style="fill:none;stroke:#b0b0b0;stroke-dasharray:2.96,1.28;stroke-dashoffset:0;stroke-opacity:0.6;stroke-width:0.8;"/>
     </g>
     <g id="line2d_2">
      <defs>
       <path d="M 0 0 
L 0 3.5 
" id="m04873c4a89" style="stroke:#000000;stroke-width:0.8;"/>
      </defs>
      <g>
       <use style="stroke:#000000;stroke-width:0.8;" x="115.243384" xlink:href="#m04873c4a89" y="384.48"/>
      </g>
     </g>
     <g id="text_1">
      <!-- 0.00 -->
      <g transform="translate(104.110572 399.078438)scale(0.1 -0.1)">
       <defs>
        <path d="M 31.78125 66.40625 
Q 24.171875 66.40625 20.328125 58.90625 
Q 16.5 51.421875 16.5 36.375 
Q 16.5 21.390625 20.328125 13.890625 
Q 24.171875 6.390625 31.78125 6.390625 
Q 39.453125 6.390625 43.28125 13.890625 
Q 47.125 21.390625 47.125 36.375 
Q 47.125 51.421875 43.28125 58.90625 
Q 39.453125 66.40625 31.78125 66.40625 
z
M 31.78125 74.21875 
Q 44.046875 74.21875 50.515625 64.515625 
Q 56.984375 54.828125 56.984375 36.375 
Q 56.984375 17.96875 50.515625 8.265625 
Q 44.046875 -1.421875 31.78125 -1.421875 
Q 19.53125 -1.421875 13.0625 8.265625 
Q 6.59375 17.96875 6.59375 36.375 
Q 6.59375 54.828125 13.0625 64.515625 
Q 19.53125 74.21875 31.78125 74.21875 
z
" id="DejaVuSans-48"/>
        <path d="M 10.6875 12.40625 
L 21 12.40625 
L 21 0 
L 10.6875 0 
z
" id="DejaVuSans-46"/>
       </defs>
       <use xlink:href="#DejaVuSans-48"/>
       <use x="63.623047" xlink:href="#DejaVuSans-46"/>
       <use x="95.410156" xlink:href="#DejaVuSans-48"/>
       <use x="159.033203" xlink:href="#DejaVuSans-48"/>
      </g>
     </g>
    </g>
    <g id="xtick_2">
     <g id="line2d_3">
      <path clip-path="url(#p15185fac07)" d="M 178.667507 384.48 
L 178.667507 51.84 
" style="fill:none;stroke:#b0b0b0;stroke-dasharray:2.96,1.28;stroke-dashoffset:0;stroke-opacity:0.6;stroke-width:0.8;"/>
     </g>
     <g id="line2d_4">
      <g>
       <use style="stroke:#000000;stroke-width:0.8;" x="178.667507" xlink:href="#m04873c4a89" y="384.48"/>
      </g>
     </g>
     <g id="text_2">
      <!-- 0.25 -->
      <g transform="translate(167.534694 399.078438)scale(0.1 -0.1)">
       <defs>
        <path d="M 19.1875 8.296875 
L 53.609375 8.296875 
L 53.609375 0 
L 7.328125 0 
L 7.328125 8.296875 
Q 12.9375 14.109375 22.625 23.890625 
Q 32.328125 33.6875 34.8125 36.53125 
Q 39.546875 41.84375 41.421875 45.53125 
Q 43.3125 49.21875 43.3125 52.78125 
Q 43.3125 58.59375 39.234375 62.25 
Q 35.15625 65.921875 28.609375 65.921875 
Q 23.96875 65.921875 18.8125 64.3125 
Q 13.671875 62.703125 7.8125 59.421875 
L 7.8125 69.390625 
Q 13.765625 71.78125 18.9375 73 
Q 24.125 74.21875 28.421875 74.21875 
Q 39.75 74.21875 46.484375 68.546875 
Q 53.21875 62.890625 53.21875 53.421875 
Q 53.21875 48.921875 51.53125 44.890625 
Q 49.859375 40.875 45.40625 35.40625 
Q 44.1875 33.984375 37.640625 27.21875 
Q 31.109375 20.453125 19.1875 8.296875 
z
" id="DejaVuSans-50"/>
        <path d="M 10.796875 72.90625 
L 49.515625 72.90625 
L 49.515625 64.59375 
L 19.828125 64.59375 
L 19.828125 46.734375 
Q 21.96875 47.46875 24.109375 47.828125 
Q 26.265625 48.1875 28.421875 48.1875 
Q 40.625 48.1875 47.75 41.5 
Q 54.890625 34.8125 54.890625 23.390625 
Q 54.890625 11.625 47.5625 5.09375 
Q 40.234375 -1.421875 26.90625 -1.421875 
Q 22.3125 -1.421875 17.546875 -0.640625 
Q 12.796875 0.140625 7.71875 1.703125 
L 7.71875 11.625 
Q 12.109375 9.234375 16.796875 8.0625 
Q 21.484375 6.890625 26.703125 6.890625 
Q 35.15625 6.890625 40.078125 11.328125 
Q 45.015625 15.765625 45.015625 23.390625 
Q 45.015625 31 40.078125 35.4375 
Q 35.15625 39.890625 26.703125 39.890625 
Q 22.75 39.890625 18.8125 39.015625 
Q 14.890625 38.140625 10.796875 36.28125 
z
" id="DejaVuSans-53"/>
       </defs>
       <use xlink:href="#DejaVuSans-48"/>
       <use x="63.623047" xlink:href="#DejaVuSans-46"/>
       <use x="95.410156" xlink:href="#DejaVuSans-50"/>
       <use x="159.033203" xlink:href="#DejaVuSans-53"/>
      </g>
     </g>
    </g>
    <g id="xtick_3">
     <g id="line2d_5">
      <path clip-path="url(#p15185fac07)" d="M 242.091629 384.48 
L 242.091629 51.84 
" style="fill:none;stroke:#b0b0b0;stroke-dasharray:2.96,1.28;stroke-dashoffset:0;stroke-opacity:0.6;stroke-width:0.8;"/>
     </g>
     <g id="line2d_6">
      <g>
       <use style="stroke:#000000;stroke-width:0.8;" x="242.091629" xlink:href="#m04873c4a89" y="384.48"/>
      </g>
     </g>
     <g id="text_3">
      <!-- 0.50 -->
      <g transform="translate(230.958817 399.078438)scale(0.1 -0.1)">
       <use xlink:href="#DejaVuSans-48"/>
       <use x="63.623047" xlink:href="#DejaVuSans-46"/>
       <use x="95.410156" xlink:href="#DejaVuSans-53"/>
       <use x="159.033203" xlink:href="#DejaVuSans-48"/>
      </g>
     </g>
    </g>
    <g id="xtick_4">
     <g id="line2d_7">
      <path clip-path="url(#p15185fac07)" d="M 305.515752 384.48 
L 305.515752 51.84 
" style="fill:none;stroke:#b0b0b0;stroke-dasharray:2.96,1.28;stroke-dashoffset:0;stroke-opacity:0.6;stroke-width:0.8;"/>
     </g>
     <g id="line2d_8">
      <g>
       <use style="stroke:#000000;stroke-width:0.8;" x="305.515752" xlink:href="#m04873c4a89" y="384.48"/>
      </g>
     </g>
     <g id="text_4">
      <!-- 0.75 -->
      <g transform="translate(294.382939 399.078438)scale(0.1 -0.1)">
       <defs>
        <path d="M 8.203125 72.90625 
L 55.078125 72.90625 
L 55.078125 68.703125 
L 28.609375 0 
L 18.3125 0 
L 43.21875 64.59375 
L 8.203125 64.59375 
z
" id="DejaVuSans-55"/>
       </defs>
       <use xlink:href="#DejaVuSans-48"/>
       <use x="63.623047" xlink:href="#DejaVuSans-46"/>
       <use x="95.410156" xlink:href="#DejaVuSans-55"/>
       <use x="159.033203" xlink:href="#DejaVuSans-53"/>
      </g>
     </g>
    </g>
    <g id="xtick_5">
     <g id="line2d_9">
      <path clip-path="url(#p15185fac07)" d="M 368.939874 384.48 
L 368.939874 51.84 
" style="fill:none;stroke:#b0b0b0;stroke-dasharray:2.96,1.28;stroke-dashoffset:0;stroke-opacity:0.6;stroke-width:0.8;"/>
     </g>
     <g id="line2d_10">
      <g>
       <use style="stroke:#000000;stroke-width:0.8;" x="368.939874" xlink:href="#m04873c4a89" y="384.48"/>
      </g>
     </g>
     <g id="text_5">
      <!-- 1.00 -->
      <g transform="translate(357.807061 399.078438)scale(0.1 -0.1)">
       <defs>
        <path d="M 12.40625 8.296875 
L 28.515625 8.296875 
L 28.515625 63.921875 
L 10.984375 60.40625 
L 10.984375 69.390625 
L 28.421875 72.90625 
L 38.28125 72.90625 
L 38.28125 8.296875 
L 54.390625 8.296875 
L 54.390625 0 
L 12.40625 0 
z
" id="DejaVuSans-49"/>
       </defs>
       <use xlink:href="#DejaVuSans-49"/>
       <use x="63.623047" xlink:href="#DejaVuSans-46"/>
       <use x="95.410156" xlink:href="#DejaVuSans-48"/>
       <use x="159.033203" xlink:href="#DejaVuSans-48"/>
      </g>
     </g>
    </g>
    <g id="xtick_6">
     <g id="line2d_11">
      <path clip-path="url(#p15185fac07)" d="M 432.363996 384.48 
L 432.363996 51.84 
" style="fill:none;stroke:#b0b0b0;stroke-dasharray:2.96,1.28;stroke-dashoffset:0;stroke-opacity:0.6;stroke-width:0.8;"/>
     </g>
     <g id="line2d_12">
      <g>
       <use style="stroke:#000000;stroke-width:0.8;" x="432.363996" xlink:href="#m04873c4a89" y="384.48"/>
      </g>
     </g>
     <g id="text_6">
      <!-- 1.25 -->
      <g transform="translate(421.231184 399.078438)scale(0.1 -0.1)">
       <use xlink:href="#DejaVuSans-49"/>
       <use x="63.623047" xlink:href="#DejaVuSans-46"/>
       <use x="95.410156" xlink:href="#DejaVuSans-50"/>
       <use x="159.033203" xlink:href="#DejaVuSans-53"/>
      </g>
     </g>
    </g>
    <g id="xtick_7">
     <g id="line2d_13">
      <path clip-path="url(#p15185fac07)" d="M 495.788119 384.48 
L 495.788119 51.84 
" style="fill:none;stroke:#b0b0b0;stroke-dasharray:2.96,1.28;stroke-dashoffset:0;stroke-opacity:0.6;stroke-width:0.8;"/>
     </g>
     <g id="line2d_14">
      <g>
       <use style="stroke:#000000;stroke-width:0.8;" x="495.788119" xlink:href="#m04873c4a89" y="384.48"/>
      </g>
     </g>
     <g id="text_7">
      <!-- 1.50 -->
      <g transform="translate(484.655306 399.078438)scale(0.1 -0.1)">
       <use xlink:href="#DejaVuSans-49"/>
       <use x="63.623047" xlink:href="#DejaVuSans-46"/>
       <use x="95.410156" xlink:href="#DejaVuSans-53"/>
       <use x="159.033203" xlink:href="#DejaVuSans-48"/>
      </g>
     </g>
    </g>
    <g id="xtick_8">
     <g id="line2d_15">
      <path clip-path="url(#p15185fac07)" d="M 559.212241 384.48 
L 559.212241 51.84 
" style="fill:none;stroke:#b0b0b0;stroke-dasharray:2.96,1.28;stroke-dashoffset:0;stroke-opacity:0.6;stroke-width:0.8;"/>
     </g>
     <g id="line2d_16">
      <g>
       <use style="stroke:#000000;stroke-width:0.8;" x="559.212241" xlink:href="#m04873c4a89" y="384.48"/>
      </g>
     </g>
     <g id="text_8">
      <!-- 1.75 -->
      <g transform="translate(548.079429 399.078438)scale(0.1 -0.1)">
       <use xlink:href="#DejaVuSans-49"/>
       <use x="63.623047" xlink:href="#DejaVuSans-46"/>
       <use x="95.410156" xlink:href="#DejaVuSans-55"/>
       <use x="159.033203" xlink:href="#DejaVuSans-53"/>
      </g>
     </g>
    </g>
    <g id="xtick_9">
     <g id="line2d_17">
      <path clip-path="url(#p15185fac07)" d="M 622.636364 384.48 
L 622.636364 51.84 
" style="fill:none;stroke:#b0b0b0;stroke-dasharray:2.96,1.28;stroke-dashoffset:0;stroke-opacity:0.6;stroke-width:0.8;"/>
     </g>
     <g id="line2d_18">
      <g>
       <use style="stroke:#000000;stroke-width:0.8;" x="622.636364" xlink:href="#m04873c4a89" y="384.48"/>
      </g>
     </g>
     <g id="text_9">
      <!-- 2.00 -->
      <g transform="translate(611.503551 399.078438)scale(0.1 -0.1)">
       <use xlink:href="#DejaVuSans-50"/>
       <use x="63.623047" xlink:href="#DejaVuSans-46"/>
       <use x="95.410156" xlink:href="#DejaVuSans-48"/>
       <use x="159.033203" xlink:href="#DejaVuSans-48"/>
      </g>
     </g>
    </g>
    <g id="text_10">
     <!-- Training Episode -->
     <g transform="translate(319.857188 414.27625)scale(0.12 -0.12)">
      <defs>
       <path d="M -0.296875 72.90625 
L 61.375 72.90625 
L 61.375 64.59375 
L 35.5 64.59375 
L 35.5 0 
L 25.59375 0 
L 25.59375 64.59375 
L -0.296875 64.59375 
z
" id="DejaVuSans-84"/>
       <path d="M 41.109375 46.296875 
Q 39.59375 47.171875 37.8125 47.578125 
Q 36.03125 48 33.890625 48 
Q 26.265625 48 22.1875 43.046875 
Q 18.109375 38.09375 18.109375 28.8125 
L 18.109375 0 
L 9.078125 0 
L 9.078125 54.6875 
L 18.109375 54.6875 
L 18.109375 46.1875 
Q 20.953125 51.171875 25.484375 53.578125 
Q 30.03125 56 36.53125 56 
Q 37.453125 56 38.578125 55.875 
Q 39.703125 55.765625 41.0625 55.515625 
z
" id="DejaVuSans-114"/>
       <path d="M 34.28125 27.484375 
Q 23.390625 27.484375 19.1875 25 
Q 14.984375 22.515625 14.984375 16.5 
Q 14.984375 11.71875 18.140625 8.90625 
Q 21.296875 6.109375 26.703125 6.109375 
Q 34.1875 6.109375 38.703125 11.40625 
Q 43.21875 16.703125 43.21875 25.484375 
L 43.21875 27.484375 
z
M 52.203125 31.203125 
L 52.203125 0 
L 43.21875 0 
L 43.21875 8.296875 
Q 40.140625 3.328125 35.546875 0.953125 
Q 30.953125 -1.421875 24.3125 -1.421875 
Q 15.921875 -1.421875 10.953125 3.296875 
Q 6 8.015625 6 15.921875 
Q 6 25.140625 12.171875 29.828125 
Q 18.359375 34.515625 30.609375 34.515625 
L 43.21875 34.515625 
L 43.21875 35.40625 
Q 43.21875 41.609375 39.140625 45 
Q 35.0625 48.390625 27.6875 48.390625 
Q 23 48.390625 18.546875 47.265625 
Q 14.109375 46.140625 10.015625 43.890625 
L 10.015625 52.203125 
Q 14.9375 54.109375 19.578125 55.046875 
Q 24.21875 56 28.609375 56 
Q 40.484375 56 46.34375 49.84375 
Q 52.203125 43.703125 52.203125 31.203125 
z
" id="DejaVuSans-97"/>
       <path d="M 9.421875 54.6875 
L 18.40625 54.6875 
L 18.40625 0 
L 9.421875 0 
z
M 9.421875 75.984375 
L 18.40625 75.984375 
L 18.40625 64.59375 
L 9.421875 64.59375 
z
" id="DejaVuSans-105"/>
       <path d="M 54.890625 33.015625 
L 54.890625 0 
L 45.90625 0 
L 45.90625 32.71875 
Q 45.90625 40.484375 42.875 44.328125 
Q 39.84375 48.1875 33.796875 48.1875 
Q 26.515625 48.1875 22.3125 43.546875 
Q 18.109375 38.921875 18.109375 30.90625 
L 18.109375 0 
L 9.078125 0 
L 9.078125 54.6875 
L 18.109375 54.6875 
L 18.109375 46.1875 
Q 21.34375 51.125 25.703125 53.5625 
Q 30.078125 56 35.796875 56 
Q 45.21875 56 50.046875 50.171875 
Q 54.890625 44.34375 54.890625 33.015625 
z
" id="DejaVuSans-110"/>
       <path d="M 45.40625 27.984375 
Q 45.40625 37.75 41.375 43.109375 
Q 37.359375 48.484375 30.078125 48.484375 
Q 22.859375 48.484375 18.828125 43.109375 
Q 14.796875 37.75 14.796875 27.984375 
Q 14.796875 18.265625 18.828125 12.890625 
Q 22.859375 7.515625 30.078125 7.515625 
Q 37.359375 7.515625 41.375 12.890625 
Q 45.40625 18.265625 45.40625 27.984375 
z
M 54.390625 6.78125 
Q 54.390625 -7.171875 48.1875 -13.984375 
Q 42 -20.796875 29.203125 -20.796875 
Q 24.46875 -20.796875 20.265625 -20.09375 
Q 16.0625 -19.390625 12.109375 -17.921875 
L 12.109375 -9.1875 
Q 16.0625 -11.328125 19.921875 -12.34375 
Q 23.78125 -13.375 27.78125 -13.375 
Q 36.625 -13.375 41.015625 -8.765625 
Q 45.40625 -4.15625 45.40625 5.171875 
L 45.40625 9.625 
Q 42.625 4.78125 38.28125 2.390625 
Q 33.9375 0 27.875 0 
Q 17.828125 0 11.671875 7.65625 
Q 5.515625 15.328125 5.515625 27.984375 
Q 5.515625 40.671875 11.671875 48.328125 
Q 17.828125 56 27.875 56 
Q 33.9375 56 38.28125 53.609375 
Q 42.625 51.21875 45.40625 46.390625 
L 45.40625 54.6875 
L 54.390625 54.6875 
z
" id="DejaVuSans-103"/>
       <path id="DejaVuSans-32"/>
       <path d="M 9.8125 72.90625 
L 55.90625 72.90625 
L 55.90625 64.59375 
L 19.671875 64.59375 
L 19.671875 43.015625 
L 54.390625 43.015625 
L 54.390625 34.71875 
L 19.671875 34.71875 
L 19.671875 8.296875 
L 56.78125 8.296875 
L 56.78125 0 
L 9.8125 0 
z
" id="DejaVuSans-69"/>
       <path d="M 18.109375 8.203125 
L 18.109375 -20.796875 
L 9.078125 -20.796875 
L 9.078125 54.6875 
L 18.109375 54.6875 
L 18.109375 46.390625 
Q 20.953125 51.265625 25.265625 53.625 
Q 29.59375 56 35.59375 56 
Q 45.5625 56 51.78125 48.09375 
Q 58.015625 40.1875 58.015625 27.296875 
Q 58.015625 14.40625 51.78125 6.484375 
Q 45.5625 -1.421875 35.59375 -1.421875 
Q 29.59375 -1.421875 25.265625 0.953125 
Q 20.953125 3.328125 18.109375 8.203125 
z
M 48.6875 27.296875 
Q 48.6875 37.203125 44.609375 42.84375 
Q 40.53125 48.484375 33.40625 48.484375 
Q 26.265625 48.484375 22.1875 42.84375 
Q 18.109375 37.203125 18.109375 27.296875 
Q 18.109375 17.390625 22.1875 11.75 
Q 26.265625 6.109375 33.40625 6.109375 
Q 40.53125 6.109375 44.609375 11.75 
Q 48.6875 17.390625 48.6875 27.296875 
z
" id="DejaVuSans-112"/>
       <path d="M 44.28125 53.078125 
L 44.28125 44.578125 
Q 40.484375 46.53125 36.375 47.5 
Q 32.28125 48.484375 27.875 48.484375 
Q 21.1875 48.484375 17.84375 46.4375 
Q 14.5 44.390625 14.5 40.28125 
Q 14.5 37.15625 16.890625 35.375 
Q 19.28125 33.59375 26.515625 31.984375 
L 29.59375 31.296875 
Q 39.15625 29.25 43.1875 25.515625 
Q 47.21875 21.78125 47.21875 15.09375 
Q 47.21875 7.46875 41.1875 3.015625 
Q 35.15625 -1.421875 24.609375 -1.421875 
Q 20.21875 -1.421875 15.453125 -0.5625 
Q 10.6875 0.296875 5.421875 2 
L 5.421875 11.28125 
Q 10.40625 8.6875 15.234375 7.390625 
Q 20.0625 6.109375 24.8125 6.109375 
Q 31.15625 6.109375 34.5625 8.28125 
Q 37.984375 10.453125 37.984375 14.40625 
Q 37.984375 18.0625 35.515625 20.015625 
Q 33.0625 21.96875 24.703125 23.78125 
L 21.578125 24.515625 
Q 13.234375 26.265625 9.515625 29.90625 
Q 5.8125 33.546875 5.8125 39.890625 
Q 5.8125 47.609375 11.28125 51.796875 
Q 16.75 56 26.8125 56 
Q 31.78125 56 36.171875 55.265625 
Q 40.578125 54.546875 44.28125 53.078125 
z
" id="DejaVuSans-115"/>
       <path d="M 30.609375 48.390625 
Q 23.390625 48.390625 19.1875 42.75 
Q 14.984375 37.109375 14.984375 27.296875 
Q 14.984375 17.484375 19.15625 11.84375 
Q 23.34375 6.203125 30.609375 6.203125 
Q 37.796875 6.203125 41.984375 11.859375 
Q 46.1875 17.53125 46.1875 27.296875 
Q 46.1875 37.015625 41.984375 42.703125 
Q 37.796875 48.390625 30.609375 48.390625 
z
M 30.609375 56 
Q 42.328125 56 49.015625 48.375 
Q 55.71875 40.765625 55.71875 27.296875 
Q 55.71875 13.875 49.015625 6.21875 
Q 42.328125 -1.421875 30.609375 -1.421875 
Q 18.84375 -1.421875 12.171875 6.21875 
Q 5.515625 13.875 5.515625 27.296875 
Q 5.515625 40.765625 12.171875 48.375 
Q 18.84375 56 30.609375 56 
z
" id="DejaVuSans-111"/>
       <path d="M 45.40625 46.390625 
L 45.40625 75.984375 
L 54.390625 75.984375 
L 54.390625 0 
L 45.40625 0 
L 45.40625 8.203125 
Q 42.578125 3.328125 38.25 0.953125 
Q 33.9375 -1.421875 27.875 -1.421875 
Q 17.96875 -1.421875 11.734375 6.484375 
Q 5.515625 14.40625 5.515625 27.296875 
Q 5.515625 40.1875 11.734375 48.09375 
Q 17.96875 56 27.875 56 
Q 33.9375 56 38.25 53.625 
Q 42.578125 51.265625 45.40625 46.390625 
z
M 14.796875 27.296875 
Q 14.796875 17.390625 18.875 11.75 
Q 22.953125 6.109375 30.078125 6.109375 
Q 37.203125 6.109375 41.296875 11.75 
Q 45.40625 17.390625 45.40625 27.296875 
Q 45.40625 37.203125 41.296875 42.84375 
Q 37.203125 48.484375 30.078125 48.484375 
Q 22.953125 48.484375 18.875 42.84375 
Q 14.796875 37.203125 14.796875 27.296875 
z
" id="DejaVuSans-100"/>
       <path d="M 56.203125 29.59375 
L 56.203125 25.203125 
L 14.890625 25.203125 
Q 15.484375 15.921875 20.484375 11.0625 
Q 25.484375 6.203125 34.421875 6.203125 
Q 39.59375 6.203125 44.453125 7.46875 
Q 49.3125 8.734375 54.109375 11.28125 
L 54.109375 2.78125 
Q 49.265625 0.734375 44.1875 -0.34375 
Q 39.109375 -1.421875 33.890625 -1.421875 
Q 20.796875 -1.421875 13.15625 6.1875 
Q 5.515625 13.8125 5.515625 26.8125 
Q 5.515625 40.234375 12.765625 48.109375 
Q 20.015625 56 32.328125 56 
Q 43.359375 56 49.78125 48.890625 
Q 56.203125 41.796875 56.203125 29.59375 
z
M 47.21875 32.234375 
Q 47.125 39.59375 43.09375 43.984375 
Q 39.0625 48.390625 32.421875 48.390625 
Q 24.90625 48.390625 20.390625 44.140625 
Q 15.875 39.890625 15.1875 32.171875 
z
" id="DejaVuSans-101"/>
      </defs>
      <use xlink:href="#DejaVuSans-84"/>
      <use x="46.333984" xlink:href="#DejaVuSans-114"/>
      <use x="87.447266" xlink:href="#DejaVuSans-97"/>
      <use x="148.726562" xlink:href="#DejaVuSans-105"/>
      <use x="176.509766" xlink:href="#DejaVuSans-110"/>
      <use x="239.888672" xlink:href="#DejaVuSans-105"/>
      <use x="267.671875" xlink:href="#DejaVuSans-110"/>
      <use x="331.050781" xlink:href="#DejaVuSans-103"/>
      <use x="394.527344" xlink:href="#DejaVuSans-32"/>
      <use x="426.314453" xlink:href="#DejaVuSans-69"/>
      <use x="489.498047" xlink:href="#DejaVuSans-112"/>
      <use x="552.974609" xlink:href="#DejaVuSans-105"/>
      <use x="580.757812" xlink:href="#DejaVuSans-115"/>
      <use x="632.857422" xlink:href="#DejaVuSans-111"/>
      <use x="694.039062" xlink:href="#DejaVuSans-100"/>
      <use x="757.515625" xlink:href="#DejaVuSans-101"/>
     </g>
    </g>
    <g id="text_11">
     <!-- 1e6 -->
     <g transform="translate(629.121875 411.756563)scale(0.1 -0.1)">
      <defs>
       <path d="M 33.015625 40.375 
Q 26.375 40.375 22.484375 35.828125 
Q 18.609375 31.296875 18.609375 23.390625 
Q 18.609375 15.53125 22.484375 10.953125 
Q 26.375 6.390625 33.015625 6.390625 
Q 39.65625 6.390625 43.53125 10.953125 
Q 47.40625 15.53125 47.40625 23.390625 
Q 47.40625 31.296875 43.53125 35.828125 
Q 39.65625 40.375 33.015625 40.375 
z
M 52.59375 71.296875 
L 52.59375 62.3125 
Q 48.875 64.0625 45.09375 64.984375 
Q 41.3125 65.921875 37.59375 65.921875 
Q 27.828125 65.921875 22.671875 59.328125 
Q 17.53125 52.734375 16.796875 39.40625 
Q 19.671875 43.65625 24.015625 45.921875 
Q 28.375 48.1875 33.59375 48.1875 
Q 44.578125 48.1875 50.953125 41.515625 
Q 57.328125 34.859375 57.328125 23.390625 
Q 57.328125 12.15625 50.6875 5.359375 
Q 44.046875 -1.421875 33.015625 -1.421875 
Q 20.359375 -1.421875 13.671875 8.265625 
Q 6.984375 17.96875 6.984375 36.375 
Q 6.984375 53.65625 15.1875 63.9375 
Q 23.390625 74.21875 37.203125 74.21875 
Q 40.921875 74.21875 44.703125 73.484375 
Q 48.484375 72.75 52.59375 71.296875 
z
" id="DejaVuSans-54"/>
      </defs>
      <use xlink:href="#DejaVuSans-49"/>
      <use x="63.623047" xlink:href="#DejaVuSans-101"/>
      <use x="125.146484" xlink:href="#DejaVuSans-54"/>
     </g>
    </g>
   </g>
   <g id="matplotlib.axis_2">
    <g id="ytick_1">
     <g id="line2d_19">
      <path clip-path="url(#p15185fac07)" d="M 90 352.994669 
L 648 352.994669 
" style="fill:none;stroke:#b0b0b0;stroke-dasharray:2.96,1.28;stroke-dashoffset:0;stroke-opacity:0.6;stroke-width:0.8;"/>
     </g>
     <g id="line2d_20">
      <defs>
       <path d="M 0 0 
L -3.5 0 
" id="m5447494baf" style="stroke:#000000;stroke-width:0.8;"/>
      </defs>
      <g>
       <use style="stroke:#000000;stroke-width:0.8;" x="90" xlink:href="#m5447494baf" y="352.994669"/>
      </g>
     </g>
     <g id="text_12">
      <!-- −2.0 -->
      <g transform="translate(58.717187 356.793888)scale(0.1 -0.1)">
       <defs>
        <path d="M 10.59375 35.5 
L 73.1875 35.5 
L 73.1875 27.203125 
L 10.59375 27.203125 
z
" id="DejaVuSans-8722"/>
       </defs>
       <use xlink:href="#DejaVuSans-8722"/>
       <use x="83.789062" xlink:href="#DejaVuSans-50"/>
       <use x="147.412109" xlink:href="#DejaVuSans-46"/>
       <use x="179.199219" xlink:href="#DejaVuSans-48"/>
      </g>
     </g>
    </g>
    <g id="ytick_2">
     <g id="line2d_21">
      <path clip-path="url(#p15185fac07)" d="M 90 309.92224 
L 648 309.92224 
" style="fill:none;stroke:#b0b0b0;stroke-dasharray:2.96,1.28;stroke-dashoffset:0;stroke-opacity:0.6;stroke-width:0.8;"/>
     </g>
     <g id="line2d_22">
      <g>
       <use style="stroke:#000000;stroke-width:0.8;" x="90" xlink:href="#m5447494baf" y="309.92224"/>
      </g>
     </g>
     <g id="text_13">
      <!-- −1.5 -->
      <g transform="translate(58.717187 313.721459)scale(0.1 -0.1)">
       <use xlink:href="#DejaVuSans-8722"/>
       <use x="83.789062" xlink:href="#DejaVuSans-49"/>
       <use x="147.412109" xlink:href="#DejaVuSans-46"/>
       <use x="179.199219" xlink:href="#DejaVuSans-53"/>
      </g>
     </g>
    </g>
    <g id="ytick_3">
     <g id="line2d_23">
      <path clip-path="url(#p15185fac07)" d="M 90 266.84981 
L 648 266.84981 
" style="fill:none;stroke:#b0b0b0;stroke-dasharray:2.96,1.28;stroke-dashoffset:0;stroke-opacity:0.6;stroke-width:0.8;"/>
     </g>
     <g id="line2d_24">
      <g>
       <use style="stroke:#000000;stroke-width:0.8;" x="90" xlink:href="#m5447494baf" y="266.84981"/>
      </g>
     </g>
     <g id="text_14">
      <!-- −1.0 -->
      <g transform="translate(58.717187 270.649029)scale(0.1 -0.1)">
       <use xlink:href="#DejaVuSans-8722"/>
       <use x="83.789062" xlink:href="#DejaVuSans-49"/>
       <use x="147.412109" xlink:href="#DejaVuSans-46"/>
       <use x="179.199219" xlink:href="#DejaVuSans-48"/>
      </g>
     </g>
    </g>
    <g id="ytick_4">
     <g id="line2d_25">
      <path clip-path="url(#p15185fac07)" d="M 90 223.777381 
L 648 223.777381 
" style="fill:none;stroke:#b0b0b0;stroke-dasharray:2.96,1.28;stroke-dashoffset:0;stroke-opacity:0.6;stroke-width:0.8;"/>
     </g>
     <g id="line2d_26">
      <g>
       <use style="stroke:#000000;stroke-width:0.8;" x="90" xlink:href="#m5447494baf" y="223.777381"/>
      </g>
     </g>
     <g id="text_15">
      <!-- −0.5 -->
      <g transform="translate(58.717187 227.5766)scale(0.1 -0.1)">
       <use xlink:href="#DejaVuSans-8722"/>
       <use x="83.789062" xlink:href="#DejaVuSans-48"/>
       <use x="147.412109" xlink:href="#DejaVuSans-46"/>
       <use x="179.199219" xlink:href="#DejaVuSans-53"/>
      </g>
     </g>
    </g>
    <g id="ytick_5">
     <g id="line2d_27">
      <path clip-path="url(#p15185fac07)" d="M 90 180.704951 
L 648 180.704951 
" style="fill:none;stroke:#b0b0b0;stroke-dasharray:2.96,1.28;stroke-dashoffset:0;stroke-opacity:0.6;stroke-width:0.8;"/>
     </g>
     <g id="line2d_28">
      <g>
       <use style="stroke:#000000;stroke-width:0.8;" x="90" xlink:href="#m5447494baf" y="180.704951"/>
      </g>
     </g>
     <g id="text_16">
      <!-- 0.0 -->
      <g transform="translate(67.096875 184.50417)scale(0.1 -0.1)">
       <use xlink:href="#DejaVuSans-48"/>
       <use x="63.623047" xlink:href="#DejaVuSans-46"/>
       <use x="95.410156" xlink:href="#DejaVuSans-48"/>
      </g>
     </g>
    </g>
    <g id="ytick_6">
     <g id="line2d_29">
      <path clip-path="url(#p15185fac07)" d="M 90 137.632522 
L 648 137.632522 
" style="fill:none;stroke:#b0b0b0;stroke-dasharray:2.96,1.28;stroke-dashoffset:0;stroke-opacity:0.6;stroke-width:0.8;"/>
     </g>
     <g id="line2d_30">
      <g>
       <use style="stroke:#000000;stroke-width:0.8;" x="90" xlink:href="#m5447494baf" y="137.632522"/>
      </g>
     </g>
     <g id="text_17">
      <!-- 0.5 -->
      <g transform="translate(67.096875 141.431741)scale(0.1 -0.1)">
       <use xlink:href="#DejaVuSans-48"/>
       <use x="63.623047" xlink:href="#DejaVuSans-46"/>
       <use x="95.410156" xlink:href="#DejaVuSans-53"/>
      </g>
     </g>
    </g>
    <g id="ytick_7">
     <g id="line2d_31">
      <path clip-path="url(#p15185fac07)" d="M 90 94.560092 
L 648 94.560092 
" style="fill:none;stroke:#b0b0b0;stroke-dasharray:2.96,1.28;stroke-dashoffset:0;stroke-opacity:0.6;stroke-width:0.8;"/>
     </g>
     <g id="line2d_32">
      <g>
       <use style="stroke:#000000;stroke-width:0.8;" x="90" xlink:href="#m5447494baf" y="94.560092"/>
      </g>
     </g>
     <g id="text_18">
      <!-- 1.0 -->
      <g transform="translate(67.096875 98.359311)scale(0.1 -0.1)">
       <use xlink:href="#DejaVuSans-49"/>
       <use x="63.623047" xlink:href="#DejaVuSans-46"/>
       <use x="95.410156" xlink:href="#DejaVuSans-48"/>
      </g>
     </g>
    </g>
    <g id="text_19">
     <!-- Reward Value -->
     <g transform="translate(52.221562 258.889687)rotate(-90)scale(0.12 -0.12)">
      <defs>
       <path d="M 44.390625 34.1875 
Q 47.5625 33.109375 50.5625 29.59375 
Q 53.5625 26.078125 56.59375 19.921875 
L 66.609375 0 
L 56 0 
L 46.6875 18.703125 
Q 43.0625 26.03125 39.671875 28.421875 
Q 36.28125 30.8125 30.421875 30.8125 
L 19.671875 30.8125 
L 19.671875 0 
L 9.8125 0 
L 9.8125 72.90625 
L 32.078125 72.90625 
Q 44.578125 72.90625 50.734375 67.671875 
Q 56.890625 62.453125 56.890625 51.90625 
Q 56.890625 45.015625 53.6875 40.46875 
Q 50.484375 35.9375 44.390625 34.1875 
z
M 19.671875 64.796875 
L 19.671875 38.921875 
L 32.078125 38.921875 
Q 39.203125 38.921875 42.84375 42.21875 
Q 46.484375 45.515625 46.484375 51.90625 
Q 46.484375 58.296875 42.84375 61.546875 
Q 39.203125 64.796875 32.078125 64.796875 
z
" id="DejaVuSans-82"/>
       <path d="M 4.203125 54.6875 
L 13.1875 54.6875 
L 24.421875 12.015625 
L 35.59375 54.6875 
L 46.1875 54.6875 
L 57.421875 12.015625 
L 68.609375 54.6875 
L 77.59375 54.6875 
L 63.28125 0 
L 52.6875 0 
L 40.921875 44.828125 
L 29.109375 0 
L 18.5 0 
z
" id="DejaVuSans-119"/>
       <path d="M 28.609375 0 
L 0.78125 72.90625 
L 11.078125 72.90625 
L 34.1875 11.53125 
L 57.328125 72.90625 
L 67.578125 72.90625 
L 39.796875 0 
z
" id="DejaVuSans-86"/>
       <path d="M 9.421875 75.984375 
L 18.40625 75.984375 
L 18.40625 0 
L 9.421875 0 
z
" id="DejaVuSans-108"/>
       <path d="M 8.5 21.578125 
L 8.5 54.6875 
L 17.484375 54.6875 
L 17.484375 21.921875 
Q 17.484375 14.15625 20.5 10.265625 
Q 23.53125 6.390625 29.59375 6.390625 
Q 36.859375 6.390625 41.078125 11.03125 
Q 45.3125 15.671875 45.3125 23.6875 
L 45.3125 54.6875 
L 54.296875 54.6875 
L 54.296875 0 
L 45.3125 0 
L 45.3125 8.40625 
Q 42.046875 3.421875 37.71875 1 
Q 33.40625 -1.421875 27.6875 -1.421875 
Q 18.265625 -1.421875 13.375 4.4375 
Q 8.5 10.296875 8.5 21.578125 
z
M 31.109375 56 
z
" id="DejaVuSans-117"/>
      </defs>
      <use xlink:href="#DejaVuSans-82"/>
      <use x="64.982422" xlink:href="#DejaVuSans-101"/>
      <use x="126.505859" xlink:href="#DejaVuSans-119"/>
      <use x="208.292969" xlink:href="#DejaVuSans-97"/>
      <use x="269.572266" xlink:href="#DejaVuSans-114"/>
      <use x="308.935547" xlink:href="#DejaVuSans-100"/>
      <use x="372.412109" xlink:href="#DejaVuSans-32"/>
      <use x="404.199219" xlink:href="#DejaVuSans-86"/>
      <use x="464.857422" xlink:href="#DejaVuSans-97"/>
      <use x="526.136719" xlink:href="#DejaVuSans-108"/>
      <use x="553.919922" xlink:href="#DejaVuSans-117"/>
      <use x="617.298828" xlink:href="#DejaVuSans-101"/>
     </g>
    </g>
   </g>
   <g id="line2d_33">
    <path clip-path="url(#p15185fac07)" d="M 115.363636 350.080621 
L 115.874074 357.061864 
L 116.382989 361.687214 
L 116.945941 358.175559 
L 117.136721 359.743215 
L 118.279878 356.950667 
L 119.331957 356.860678 
L 120.908427 358.671092 
L 121.516537 357.818319 
L 121.649982 352.31175 
L 123.345435 351.453538 
L 123.661287 350.377789 
L 124.364534 349.054938 
L 124.543644 350.183119 
L 124.823978 349.803387 
L 125.096956 349.124073 
L 126.314445 348.537264 
L 126.404254 348.283831 
L 127.018199 348.312408 
L 129.582564 337.321255 
L 130.147038 337.454724 
L 132.187012 337.236894 
L 132.352675 338.694976 
L 133.168563 339.403955 
L 133.364417 340.34007 
L 133.765511 340.702275 
L 135.638045 341.443315 
L 137.259166 341.642107 
L 137.414682 342.143824 
L 137.914464 343.060374 
L 139.065738 343.639935 
L 139.67461 344.08778 
L 140.225892 344.233024 
L 141.105965 344.680554 
L 141.712554 345.229035 
L 142.077877 343.412968 
L 142.791271 344.201248 
L 143.485639 344.125734 
L 144.549895 343.588113 
L 144.937797 343.057583 
L 145.227772 342.95357 
L 145.989369 342.476584 
L 148.24194 340.000715 
L 148.699863 339.91181 
L 149.337402 340.079812 
L 149.358966 337.87248 
L 150.621106 335.658028 
L 150.75455 335.888041 
L 150.774846 334.006604 
L 150.951165 334.144335 
L 151.494583 334.01339 
L 151.847982 332.763245 
L 152.459644 333.99202 
L 153.49016 330.924457 
L 153.621574 331.558623 
L 155.231786 328.580077 
L 155.898754 327.470872 
L 156.542382 327.565851 
L 156.671006 324.419066 
L 157.254762 324.790228 
L 157.670063 323.699576 
L 158.795207 324.819497 
L 159.125773 323.408188 
L 159.273932 321.005775 
L 160.579201 320.712701 
L 161.738594 319.897659 
L 161.821552 318.683352 
L 162.489789 318.126768 
L 162.720145 312.133456 
L 163.531467 308.922869 
L 164.789548 307.374992 
L 164.871238 302.972989 
L 165.15208 302.839634 
L 165.801797 298.745019 
L 166.036212 295.615356 
L 166.338111 294.964787 
L 167.532768 293.469003 
L 168.202019 292.89039 
L 168.516603 289.965563 
L 168.568103 289.144892 
L 170.029902 287.477325 
L 170.055018 282.031013 
L 170.515477 278.222705 
L 170.933315 275.80469 
L 171.123842 271.009479 
L 171.953936 269.241898 
L 172.285771 267.064882 
L 172.641454 263.607714 
L 172.666316 264.0737 
L 172.936757 264.76504 
L 173.413452 261.568213 
L 174.116192 262.619838 
L 174.916604 260.763346 
L 175.635073 258.621107 
L 176.154389 254.889173 
L 176.518951 254.314201 
L 176.654171 248.878487 
L 176.724445 243.946089 
L 177.665406 239.525603 
L 178.035041 236.909853 
L 178.403662 236.036683 
L 178.585309 231.663576 
L 179.191644 225.799652 
L 179.539969 226.343602 
L 181.446244 216.998152 
L 181.841757 212.319986 
L 181.863575 207.036655 
L 182.625426 205.237124 
L 183.891878 207.674141 
L 184.008325 203.63062 
L 185.628685 202.448753 
L 185.994008 199.386389 
L 186.036882 196.472459 
L 187.517962 192.714663 
L 187.683119 196.69597 
L 190.187357 196.499127 
L 190.229217 190.925846 
L 191.141256 188.952417 
L 191.221677 181.165191 
L 193.486172 175.565317 
L 193.637883 173.652253 
L 193.867986 174.519084 
L 194.977908 171.240123 
L 195.200653 169.927489 
L 196.282922 170.509442 
L 196.777123 164.273223 
L 197.615844 161.370705 
L 198.97515 159.946414 
L 199.378781 152.855984 
L 199.789515 150.972784 
L 200.091668 148.056453 
L 201.179518 142.542868 
L 201.218588 140.371693 
L 202.27777 137.648299 
L 202.697892 134.637056 
L 202.839454 132.448998 
L 203.576443 131.24081 
L 203.873268 132.105524 
L 206.520844 133.146127 
L 207.673641 129.987064 
L 208.683861 128.861751 
L 210.518847 127.849641 
L 211.604415 126.693513 
L 212.386561 126.850283 
L 213.045157 123.216269 
L 213.587814 127.849125 
L 214.087342 125.804476 
L 214.494779 126.607207 
L 215.431426 132.636344 
L 215.925119 127.066316 
L 216.090276 126.37949 
L 216.198097 125.384273 
L 216.264312 123.570599 
L 216.772212 127.174467 
L 217.510976 127.130194 
L 218.205343 125.825499 
L 219.577841 118.155099 
L 219.785619 120.418535 
L 220.174789 120.687872 
L 220.531487 118.171404 
L 220.688778 123.013252 
L 220.807762 122.97613 
L 221.589655 119.842327 
L 222.184319 116.599457 
L 222.431673 116.719772 
L 223.221177 113.697738 
L 223.585992 114.785629 
L 224.858534 111.380903 
L 226.440585 111.952898 
L 226.571746 111.035585 
L 227.440657 110.695777 
L 227.644629 115.99465 
L 229.152347 112.623908 
L 230.053223 112.39457 
L 230.846532 112.009643 
L 231.550286 111.320172 
L 231.938949 112.60682 
L 232.036622 112.200974 
L 232.78934 112.360768 
L 233.73512 114.214423 
L 234.125559 115.513313 
L 235.028719 114.851602 
L 235.152523 115.891425 
L 235.871245 114.732885 
L 236.171114 116.639254 
L 236.230479 116.512027 
L 236.290098 115.390787 
L 236.773897 114.57959 
L 236.805102 115.132599 
L 238.278317 113.028547 
L 238.306224 114.712062 
L 238.673323 107.948456 
L 239.685318 112.686199 
L 241.867869 111.318507 
L 244.569736 103.863541 
L 245.087277 103.309338 
L 245.76008 103.461383 
L 246.30908 105.203636 
L 246.38874 106.466216 
L 246.913638 101.010673 
L 249.198936 102.030513 
L 249.553604 98.815972 
L 249.837237 100.469139 
L 250.165266 96.411131 
L 250.440019 98.314643 
L 250.572956 96.964991 
L 252.222998 97.321933 
L 252.657327 98.711948 
L 252.879058 99.02957 
L 253.543235 97.856645 
L 254.077773 96.123863 
L 254.707448 92.466838 
L 255.615174 97.530103 
L 256.535078 98.31024 
L 256.560701 95.94276 
L 256.674864 100.045724 
L 257.155873 100.288004 
L 257.952226 96.962267 
L 258.469006 97.247545 
L 258.566172 98.207007 
L 260.876839 96.837111 
L 263.180657 98.519893 
L 263.579975 94.577344 
L 263.812361 90.073111 
L 263.847118 92.380438 
L 264.108172 92.427268 
L 264.552394 94.283012 
L 264.749263 92.713322 
L 264.861904 91.338757 
L 265.837874 90.551703 
L 266.52666 89.078784 
L 267.415359 89.984655 
L 267.820005 88.9652 
L 268.506508 92.878996 
L 269.185907 90.55429 
L 270.190291 93.356314 
L 270.618023 89.516638 
L 271.245415 89.253589 
L 273.701451 91.657905 
L 275.755124 91.033516 
L 277.999069 90.71482 
L 278.994067 88.583406 
L 279.195502 92.427552 
L 279.472285 91.61163 
L 279.579852 93.996177 
L 280.304155 94.284951 
L 280.644616 91.595175 
L 281.081228 90.196849 
L 282.472753 92.678908 
L 283.316294 93.665877 
L 283.565678 93.155895 
L 284.024868 94.595152 
L 284.167192 96.992648 
L 284.506891 94.913221 
L 284.539872 100.137261 
L 284.611922 99.846792 
L 284.822236 109.437936 
L 286.853838 106.589475 
L 287.095357 103.155612 
L 287.430236 102.386441 
L 288.114963 101.397359 
L 288.238259 103.398685 
L 288.95343 106.057581 
L 289.102603 108.469407 
L 289.709953 105.233152 
L 289.835279 108.876626 
L 290.873405 112.957177 
L 291.163126 111.535923 
L 291.445237 114.058227 
L 291.53606 112.382505 
L 292.00616 112.765116 
L 292.370468 113.485824 
L 293.826686 113.654971 
L 293.974844 114.57348 
L 294.762318 117.829681 
L 295.293051 118.276484 
L 296.162723 114.373429 
L 296.392318 116.194999 
L 296.58665 115.000211 
L 297.642027 116.478016 
L 297.898007 116.144858 
L 298.782647 118.321756 
L 298.946788 118.270708 
L 300.084871 118.094516 
L 302.198163 119.236329 
L 302.230382 117.042094 
L 303.900212 117.722364 
L 304.254373 118.004262 
L 305.174022 118.321436 
L 305.537062 117.405575 
L 307.217548 119.253029 
L 307.460842 124.143874 
L 308.410936 121.594996 
L 308.919851 121.516413 
L 309.233927 122.839069 
L 309.768212 121.122783 
L 309.918147 121.204631 
L 310.598814 122.608601 
L 310.729722 117.382653 
L 310.923038 115.238567 
L 311.672712 111.353731 
L 312.621536 110.148398 
L 313.276327 108.740448 
L 313.344318 109.63355 
L 315.972867 107.487834 
L 316.954673 106.250856 
L 317.489972 103.909381 
L 317.522953 100.495825 
L 317.605911 101.717039 
L 319.474386 103.576763 
L 319.767659 105.401093 
L 319.891463 103.881287 
L 320.194377 103.023245 
L 320.277843 102.246789 
L 320.438686 104.2588 
L 320.95369 102.142418 
L 321.511315 101.053949 
L 321.723659 102.599357 
L 322.554008 102.166603 
L 323.036792 98.588757 
L 325.461877 96.425334 
L 325.702127 98.659658 
L 325.92944 98.750854 
L 328.69879 95.053266 
L 330.647179 94.944039 
L 330.832885 93.693746 
L 331.202775 92.494753 
L 331.939002 93.46249 
L 332.285551 88.928234 
L 333.760796 90.352651 
L 333.76308 90.781197 
L 335.639926 90.536064 
L 335.672907 89.970464 
L 337.44244 91.224083 
L 338.121078 92.421428 
L 338.274818 95.262312 
L 338.895106 95.281512 
L 339.367996 91.671437 
L 340.245786 93.354586 
L 341.912318 91.222549 
L 342.042718 90.765127 
L 342.114768 89.802061 
L 342.389014 93.377359 
L 342.561781 94.030478 
L 342.892602 91.823841 
L 343.540542 90.630134 
L 344.814353 89.09736 
L 345.131727 86.465437 
L 346.006472 88.409366 
L 346.918765 90.008951 
L 347.216351 92.715519 
L 347.513176 91.516799 
L 347.789705 92.665991 
L 348.379803 92.954256 
L 349.044995 90.156586 
L 349.261906 92.471306 
L 349.576489 85.540975 
L 350.969029 82.453194 
L 351.124292 80.442076 
L 352.367404 81.282123 
L 353.085619 83.734095 
L 353.261431 82.351183 
L 353.511322 82.13155 
L 354.560103 81.056663 
L 355.034008 82.256677 
L 356.058435 80.067649 
L 356.419445 77.725997 
L 357.686912 78.736317 
L 357.902047 80.104703 
L 358.819667 80.60755 
L 359.017043 80.996846 
L 359.71826 78.706969 
L 362.086771 78.863363 
L 362.685241 79.185218 
L 362.70579 77.978935 
L 363.612501 76.637978 
L 363.847424 76.508261 
L 364.5012 78.037671 
L 364.565639 73.675923 
L 364.956332 74.42023 
L 364.97409 72.81139 
L 365.256708 72.74326 
L 365.331041 73.948106 
L 365.710064 73.984317 
L 366.215935 75.222574 
L 366.898632 74.874657 
L 367.045776 74.073039 
L 367.27664 75.369416 
L 367.424545 77.242145 
L 367.750798 72.092915 
L 368.239418 74.705606 
L 368.429944 73.637371 
L 369.510184 74.167125 
L 369.521346 76.857907 
L 370.992025 73.778727 
L 371.166822 75.159402 
L 371.720641 73.236025 
L 372.03903 72.749137 
L 372.299323 73.794223 
L 375.173197 73.540257 
L 375.368036 75.376752 
L 376.900109 73.412426 
L 377.033807 75.714477 
L 377.676927 79.450905 
L 377.705595 82.023141 
L 377.889018 82.496366 
L 377.947368 84.713023 
L 378.811965 83.131031 
L 378.904565 82.431376 
L 378.986255 80.682851 
L 379.457877 82.826058 
L 381.327112 84.623338 
L 381.787064 85.690728 
L 382.013869 87.583348 
L 382.944174 88.418602 
L 383.057576 91.156446 
L 383.337403 90.056372 
L 383.769449 91.522135 
L 383.947797 94.752688 
L 384.244115 98.956462 
L 384.666266 98.086523 
L 386.04815 96.360582 
L 386.415757 97.573421 
L 386.610596 95.180293 
L 386.721968 97.424173 
L 387.119257 95.451772 
L 387.134732 96.837462 
L 387.756796 98.059502 
L 387.851679 94.736095 
L 387.878824 96.356103 
L 388.03434 95.293184 
L 388.441777 95.191546 
L 388.706382 97.566073 
L 388.823336 97.124122 
L 388.864689 97.364903 
L 388.885492 100.168582 
L 389.220879 98.422807 
L 389.356606 96.079881 
L 390.570037 98.036103 
L 390.925973 99.901632 
L 390.96352 101.547823 
L 391.14745 98.950999 
L 391.493492 97.325459 
L 393.329747 97.194469 
L 394.032233 97.320861 
L 394.157051 96.945884 
L 394.261574 99.373648 
L 394.594931 90.354272 
L 394.880086 88.917407 
L 395.608449 90.444136 
L 395.745699 88.489296 
L 396.051403 90.65825 
L 396.716342 87.795176 
L 397.051221 90.148861 
L 397.381026 87.88051 
L 397.876496 90.350823 
L 398.689085 91.023611 
L 398.956228 93.918329 
L 400.149362 93.193443 
L 400.287373 95.116595 
L 400.448471 94.824749 
L 402.098259 95.238313 
L 402.12921 96.224454 
L 403.335283 93.542915 
L 403.835826 94.582991 
L 403.977389 95.730453 
L 404.800634 97.105408 
L 405.495255 95.273342 
L 407.887105 98.420522 
L 408.395767 97.710069 
L 409.131487 99.543364 
L 409.272034 98.762757 
L 410.544069 97.01093 
L 410.671424 99.219652 
L 410.824403 99.218082 
L 410.850534 94.988964 
L 411.776273 92.855538 
L 412.453135 92.195925 
L 412.456687 90.549192 
L 413.494813 90.224597 
L 413.709186 89.484702 
L 413.900473 87.492002 
L 414.66892 92.328708 
L 415.0416 92.038337 
L 415.09513 90.138002 
L 415.297072 89.170821 
L 415.754487 93.814576 
L 415.80548 96.761091 
L 416.868215 95.618433 
L 416.875065 95.774109 
L 417.219331 97.550514 
L 417.977122 94.580361 
L 417.985494 98.737435 
L 418.247055 101.491516 
L 419.065734 105.383458 
L 420.010499 106.659019 
L 421.064608 110.825125 
L 421.853351 113.334295 
L 423.660177 115.40986 
L 423.882923 112.808219 
L 425.484255 111.375177 
L 427.179201 110.743828 
L 427.187066 104.979836 
L 427.410572 104.780209 
L 427.964646 102.337287 
L 428.222401 102.255909 
L 429.98889 106.970474 
L 431.904552 107.050789 
L 432.069201 106.507353 
L 433.383856 104.811302 
L 433.938183 101.990981 
L 433.965075 102.212466 
L 433.991206 103.354266 
L 434.083805 102.09626 
L 434.207862 102.586066 
L 434.863922 101.968243 
L 435.955324 104.144649 
L 436.107542 106.040497 
L 436.174518 109.734464 
L 438.729241 111.927602 
L 438.854567 111.272189 
L 438.975581 112.0775 
L 439.047377 110.225057 
L 439.446949 108.897687 
L 441.385951 107.883926 
L 441.549078 107.425964 
L 441.617322 109.193655 
L 442.238371 106.897092 
L 443.20876 107.510244 
L 443.308463 106.121554 
L 443.742538 102.625498 
L 444.134752 102.216902 
L 444.302699 103.00279 
L 444.469632 99.992466 
L 446.013629 101.831595 
L 447.520078 101.042056 
L 447.726587 101.266869 
L 448.486662 97.229014 
L 449.025767 96.793079 
L 449.418743 95.643766 
L 449.526056 94.552361 
L 450.597417 89.36901 
L 450.887899 86.826249 
L 451.343792 89.370481 
L 451.469118 87.597812 
L 452.139384 86.752924 
L 452.487963 87.62519 
L 452.882968 90.891755 
L 453.578604 90.801526 
L 453.605496 90.264521 
L 454.34426 91.044609 
L 454.476182 88.027068 
L 455.323529 87.295053 
L 455.323782 86.842204 
L 455.480567 89.591401 
L 456.012822 89.856303 
L 456.314721 91.248957 
L 456.607233 92.029094 
L 456.814249 93.157222 
L 457.439357 93.263104 
L 457.902861 92.177473 
L 458.081971 90.722711 
L 458.308268 91.441663 
L 458.501838 93.59717 
L 458.858789 92.143789 
L 459.014559 89.804955 
L 459.233245 89.965487 
L 459.918987 93.191879 
L 460.028584 89.963818 
L 460.896733 93.032089 
L 461.125821 92.920181 
L 462.461026 94.205007 
L 462.843854 97.622445 
L 463.696781 96.168967 
L 463.793186 97.341473 
L 464.204428 97.247091 
L 464.892453 96.804554 
L 464.938879 97.728562 
L 465.844829 99.935483 
L 466.518394 99.679293 
L 466.710442 96.106105 
L 467.729541 96.942729 
L 468.159303 94.222423 
L 468.870921 93.042332 
L 468.966057 92.273001 
L 469.346095 94.243849 
L 470.26473 92.896986 
L 470.491534 93.941834 
L 471.036221 95.017851 
L 471.346999 95.249547 
L 471.523825 95.945965 
L 472.203732 94.548199 
L 472.21185 96.574447 
L 472.862328 95.054328 
L 473.174882 97.947537 
L 473.609972 98.29435 
L 473.632551 98.924478 
L 474.254361 101.401554 
L 474.735623 98.966635 
L 475.759542 98.21531 
L 477.102865 96.621304 
L 478.317056 97.167664 
L 478.584706 92.918752 
L 479.70503 92.160407 
L 479.811329 93.191233 
L 479.944266 90.247652 
L 480.192888 92.325154 
L 480.631783 92.009493 
L 480.65081 94.934169 
L 480.824846 94.786309 
L 481.606992 93.121323 
L 482.553534 91.776757 
L 482.635224 93.302955 
L 482.719959 86.855882 
L 483.719269 91.076779 
L 484.497103 92.281688 
L 484.73989 90.056612 
L 485.31705 91.501382 
L 486.264099 91.443056 
L 486.541897 90.930541 
L 487.25935 92.327748 
L 487.310343 91.077629 
L 487.928855 90.836552 
L 488.164286 92.950498 
L 489.141778 93.371012 
L 489.821938 95.365281 
L 491.82132 96.917874 
L 492.336071 92.740638 
L 494.102559 92.604244 
L 494.878871 93.911623 
L 495.20893 92.556611 
L 495.296709 95.418407 
L 495.548883 97.526551 
L 495.699832 95.903138 
L 496.487306 94.644788 
L 496.881043 96.714514 
L 497.585812 95.964796 
L 497.764161 94.06695 
L 498.033333 93.72518 
L 498.310877 93.122342 
L 498.794168 95.368648 
L 499.543334 97.077783 
L 499.581896 95.679956 
L 499.898509 95.676314 
L 499.924133 98.71742 
L 500.469073 99.39314 
L 500.717442 102.661586 
L 501.239042 101.454546 
L 501.876073 101.175137 
L 502.03641 99.632866 
L 502.149558 100.50963 
L 503.983276 97.718282 
L 504.035031 96.831896 
L 505.35958 103.169981 
L 505.470445 101.682952 
L 505.916951 100.506629 
L 506.073482 103.116628 
L 507.65325 102.732491 
L 507.940688 104.71664 
L 508.437172 105.612551 
L 508.779916 105.418263 
L 509.664809 105.317579 
L 509.850262 106.151508 
L 510.391904 106.876505 
L 511.261068 107.372624 
L 512.474498 107.868638 
L 512.641177 109.411077 
L 512.9139 106.317215 
L 513.308652 104.961174 
L 513.456811 105.797644 
L 513.569452 103.020615 
L 513.844205 106.303462 
L 514.057564 105.019936 
L 514.740008 103.82413 
L 515.165203 102.672378 
L 515.202496 101.637894 
L 515.67082 99.96568 
L 516.862686 103.616885 
L 517.229531 101.484619 
L 517.369064 101.809396 
L 517.781067 101.042985 
L 518.439664 100.118497 
L 519.752289 99.154916 
L 520.174948 97.399488 
L 520.637183 98.090058 
L 520.641242 98.923364 
L 522.090102 96.737884 
L 522.222025 95.209071 
L 522.863623 93.206306 
L 523.778452 93.196166 
L 524.315274 89.946211 
L 524.846007 89.806447 
L 525.065708 90.465827 
L 525.626885 91.524745 
L 526.133517 89.657242 
L 526.663489 90.968097 
L 526.966656 90.550857 
L 527.052406 91.060076 
L 527.471766 89.134379 
L 528.127318 91.71095 
L 528.409682 89.60267 
L 529.846111 91.793358 
L 530.973285 91.860189 
L 532.3298 86.882648 
L 533.68251 87.697071 
L 533.865425 84.418376 
L 534.058995 83.660193 
L 534.456538 84.423664 
L 534.619918 82.597285 
L 534.925876 82.508108 
L 535.231834 80.130108 
L 535.76688 78.253904 
L 536.749193 82.316765 
L 537.720089 84.074405 
L 538.494878 83.278957 
L 538.581135 86.421811 
L 539.022313 84.569082 
L 539.194573 87.72096 
L 539.521842 86.429718 
L 540.149487 88.071041 
L 541.402494 87.10961 
L 542.469288 87.330848 
L 542.653218 86.263965 
L 543.660393 86.087167 
L 544.344866 88.547602 
L 544.857586 87.024616 
L 545.144517 88.216648 
L 545.304092 93.510509 
L 545.803874 93.658491 
L 548.056953 95.066902 
L 548.875885 92.867834 
L 549.209242 94.141121 
L 549.62911 99.14611 
L 549.884075 100.475693 
L 550.582248 102.154187 
L 551.69699 98.774193 
L 551.863161 102.081351 
L 552.057493 100.222889 
L 553.123525 101.361925 
L 553.802417 97.997142 
L 553.940428 97.311978 
L 554.003599 97.889017 
L 554.260593 94.088098 
L 554.976778 94.542069 
L 555.013564 92.519286 
L 555.143711 92.019829 
L 556.923391 91.015994 
L 557.17861 91.520448 
L 557.382075 91.625757 
L 557.730654 93.187956 
L 557.767186 90.712269 
L 558.240076 91.137883 
L 558.508487 93.560842 
L 558.7599 91.448808 
L 559.720142 89.136126 
L 561.198938 88.793256 
L 561.434115 91.096089 
L 561.474453 94.010916 
L 561.634789 92.514073 
L 561.880367 92.224765 
L 562.360107 91.853373 
L 562.939043 92.84746 
L 563.531424 92.117126 
L 564.223254 88.217516 
L 564.709337 89.883932 
L 564.778088 88.973149 
L 565.858328 89.521457 
L 565.911604 88.994062 
L 567.221693 85.99583 
L 567.228035 86.126874 
L 567.403847 86.792856 
L 567.649679 83.317795 
L 567.955891 83.055473 
L 568.280369 79.575532 
L 568.56527 80.942306 
L 568.641632 80.473194 
L 568.907506 76.452088 
L 569.27359 75.191472 
L 569.839333 72.289355 
L 570.092523 77.260695 
L 571.050481 78.230634 
L 571.355931 78.260453 
L 571.499777 74.111255 
L 572.980603 74.023696 
L 573.818563 73.435664 
L 573.897209 74.974664 
L 574.27547 76.370386 
L 574.457371 74.483837 
L 574.704725 73.57168 
L 574.819649 75.082879 
L 575.102013 74.873205 
L 576.119083 75.444011 
L 576.311131 75.833143 
L 576.528549 77.117784 
L 577.115095 78.011213 
L 579.740854 76.880925 
L 579.840049 77.602799 
L 581.309967 77.332266 
L 581.383285 75.298621 
L 582.126362 76.178405 
L 582.245092 78.205338 
L 583.957543 77.763555 
L 584.462399 76.074688 
L 585.563949 76.865455 
L 585.628135 75.397644 
L 586.126141 75.067246 
L 586.55159 75.149665 
L 587.089934 77.44019 
L 588.14658 78.753851 
L 589.228088 77.666312 
L 590.359067 77.527547 
L 590.685828 77.664648 
L 591.96319 78.010124 
L 592.350838 79.266114 
L 593.2885 80.513112 
L 594.072422 80.733653 
L 594.291616 82.418069 
L 594.892623 79.931616 
L 595.112324 79.965707 
L 595.331518 78.28735 
L 596.17379 80.144662 
L 596.297848 80.822921 
L 597.019614 79.239581 
L 597.229168 80.633599 
L 597.241091 79.370038 
L 597.698506 82.398455 
L 597.781719 80.321814 
L 598.456805 79.36653 
L 598.600397 79.543295 
L 600.855505 77.764522 
L 601.102098 79.971182 
L 601.412623 78.676383 
L 602.091007 81.388883 
L 602.293711 81.302345 
L 602.6773 82.706711 
L 602.962201 81.573161 
L 603.671283 80.968922 
L 605.877681 80.830085 
L 606.200637 80.998289 
L 606.676317 78.266269 
L 606.946504 73.250298 
L 607.073352 74.613282 
L 607.751229 75.718375 
L 608.501156 77.981577 
L 608.851004 78.041564 
L 609.005251 77.445903 
L 609.233832 79.125667 
L 609.242457 80.929617 
L 609.473321 80.208299 
L 609.48423 80.635785 
L 609.799321 76.51645 
L 610.174538 75.259623 
L 610.203713 76.18238 
L 610.778843 74.181928 
L 610.821972 75.53316 
L 611.139346 75.737465 
L 611.152285 74.43483 
L 611.594478 72.440728 
L 611.804538 68.691141 
L 612.155654 66.96 
L 612.161997 68.396331 
L 612.571463 68.181944 
L 613.007821 70.83945 
L 613.191751 72.889806 
L 613.512423 72.662898 
L 613.557581 74.712521 
L 613.862524 74.471321 
L 614.291271 75.191279 
L 614.712154 76.655077 
L 615.733282 79.04899 
L 616.009304 79.400226 
L 616.566675 81.246227 
L 616.683883 83.814363 
L 617.544675 82.471491 
L 617.825263 80.580095 
L 618.566818 81.885684 
L 618.71447 82.95755 
L 618.908547 81.317464 
L 619.538222 78.348845 
L 619.601393 79.274254 
L 619.83251 77.201589 
L 619.877161 78.572075 
L 620.699391 79.940727 
L 621.915358 80.50934 
L 622.636364 83.772373 
L 622.636364 83.772373 
" style="fill:none;stroke:#ff0000;stroke-linecap:square;stroke-opacity:0.8;stroke-width:2;"/>
   </g>
   <g id="line2d_34">
    <path clip-path="url(#p15185fac07)" d="M 115.363636 369.36 
L 116.382989 352.348202 
L 117.136721 345.762141 
L 117.592614 338.729964 
L 118.02542 335.757466 
L 118.279878 330.992636 
L 119.331957 329.445941 
L 120.333043 327.37235 
L 120.454056 326.026558 
L 120.908427 323.619284 
L 121.649982 321.077524 
L 123.345435 321.856108 
L 123.661287 322.664881 
L 124.543644 323.533405 
L 124.823978 323.054262 
L 125.096956 323.648278 
L 126.314445 324.146171 
L 126.404254 324.310712 
L 127.018199 325.0101 
L 128.665451 322.865677 
L 129.582564 323.421783 
L 130.147038 324.122039 
L 131.612135 325.026079 
L 132.187012 325.62705 
L 132.246377 321.049714 
L 132.352675 321.967838 
L 133.168563 322.620374 
L 133.364417 323.48472 
L 133.765511 319.978173 
L 135.638045 320.321815 
L 136.830165 316.658963 
L 137.259166 317.878504 
L 137.28073 319.070553 
L 137.414682 319.217461 
L 137.603432 320.240511 
L 137.914464 320.917142 
L 139.065738 321.843932 
L 139.67461 322.186406 
L 140.225892 322.365792 
L 141.712554 323.88544 
L 142.077877 324.578978 
L 142.601253 324.747987 
L 142.791271 325.271583 
L 143.485639 325.262145 
L 144.549895 325.814309 
L 144.937797 325.194665 
L 145.227772 323.527238 
L 145.989369 323.858043 
L 148.24194 323.96737 
L 149.337402 325.221774 
L 149.358966 326.098859 
L 150.621106 326.555053 
L 150.75455 326.45599 
L 150.774846 326.917184 
L 151.494583 328.32647 
L 152.459644 329.621254 
L 153.49016 327.70154 
L 153.621574 328.185709 
L 155.106714 328.50704 
L 155.231786 326.735263 
L 155.898754 324.763754 
L 156.542382 324.197726 
L 157.254762 320.619639 
L 157.670063 320.06408 
L 158.795207 321.480965 
L 159.125773 321.069316 
L 159.273932 320.099324 
L 160.579201 320.243602 
L 161.738594 323.058218 
L 161.821552 322.63804 
L 162.489789 322.161407 
L 162.70746 321.205307 
L 162.720145 323.629076 
L 163.531467 323.433293 
L 164.789548 325.470899 
L 164.871238 322.110326 
L 165.15208 321.957673 
L 166.036212 320.391743 
L 166.338111 319.525957 
L 167.532768 316.772068 
L 168.202019 316.326958 
L 168.249207 315.654317 
L 168.516603 314.676885 
L 168.568103 313.930073 
L 170.029902 312.816452 
L 170.055018 310.727569 
L 170.933315 306.540701 
L 171.021348 307.321458 
L 171.123842 304.979739 
L 171.953936 301.736221 
L 172.285771 299.760947 
L 172.641454 298.951499 
L 172.666316 296.582547 
L 172.936757 296.311345 
L 173.413452 294.502619 
L 174.116192 294.348786 
L 175.635073 290.580103 
L 176.154389 286.926907 
L 176.518951 288.645377 
L 176.654171 287.439835 
L 176.724445 288.911671 
L 177.665406 289.275662 
L 178.035041 289.610767 
L 178.403662 287.371425 
L 178.585309 287.879631 
L 179.002132 286.547772 
L 179.191644 286.392259 
L 179.539969 286.572434 
L 180.429429 286.404445 
L 181.446244 285.974951 
L 181.841757 286.182862 
L 181.863575 285.696868 
L 182.625426 283.337446 
L 183.891878 280.826151 
L 183.959869 281.044939 
L 184.008325 280.713565 
L 185.628685 277.125067 
L 185.994008 277.921528 
L 186.036882 277.837998 
L 187.683119 277.864779 
L 190.187357 275.460106 
L 190.229217 275.011646 
L 191.141256 277.241152 
L 191.221677 277.126217 
L 193.637883 276.935936 
L 193.867986 276.664796 
L 194.977908 277.658932 
L 195.200653 278.739078 
L 196.128929 279.021651 
L 196.282922 279.534859 
L 196.411293 280.92511 
L 196.777123 281.246475 
L 197.518171 282.822905 
L 197.615844 285.767252 
L 198.97515 287.263574 
L 199.789515 291.223305 
L 200.091668 287.874285 
L 200.584854 289.897929 
L 201.179518 287.646904 
L 201.218588 289.481509 
L 202.27777 290.012379 
L 202.697892 289.804969 
L 202.839454 287.172291 
L 203.576443 285.622706 
L 203.873268 285.47098 
L 206.520844 286.410659 
L 207.673641 285.734958 
L 208.683861 286.038995 
L 209.323429 286.004684 
L 210.518847 286.141144 
L 211.604415 285.42004 
L 213.045157 284.065635 
L 213.587814 283.891297 
L 214.087342 283.267853 
L 214.494779 282.407538 
L 215.431426 282.744264 
L 215.925119 287.253674 
L 216.090276 285.1527 
L 216.198097 285.921888 
L 216.264312 289.753767 
L 216.772212 288.85886 
L 217.510976 287.201397 
L 218.205343 287.569782 
L 219.577841 288.542134 
L 219.785619 290.28531 
L 220.174789 291.182515 
L 220.531487 291.244317 
L 220.688778 290.189961 
L 220.807762 288.126127 
L 221.589655 287.902913 
L 222.184319 288.827271 
L 222.431673 286.512684 
L 223.221177 285.980449 
L 224.366109 287.767396 
L 224.858534 285.910475 
L 225.90833 286.051768 
L 226.571746 286.387811 
L 227.440657 285.65919 
L 227.538584 282.950765 
L 227.644629 283.162246 
L 229.152347 280.956352 
L 230.053223 281.794021 
L 230.846532 284.607265 
L 231.550286 284.472081 
L 232.036622 288.358208 
L 232.78934 288.430614 
L 233.73512 288.114622 
L 234.125559 290.225602 
L 235.028719 291.992928 
L 235.152523 290.717817 
L 235.871245 291.746706 
L 236.171114 292.515761 
L 236.230479 294.422051 
L 236.290098 293.523239 
L 236.773897 295.376763 
L 236.805102 295.294161 
L 238.278317 296.551662 
L 238.306224 295.409209 
L 238.673323 294.216792 
L 239.685318 293.738711 
L 241.867869 292.060258 
L 244.306907 291.600795 
L 244.569736 292.602429 
L 245.087277 293.360492 
L 245.76008 295.802357 
L 246.38874 294.916019 
L 246.913638 296.867911 
L 249.198936 299.053127 
L 249.553604 299.233499 
L 249.837237 298.552532 
L 250.165266 299.4988 
L 250.379132 299.185107 
L 250.440019 299.348473 
L 250.572956 300.584653 
L 252.222998 302.998902 
L 252.657327 303.244297 
L 252.879058 303.003663 
L 254.077773 303.938066 
L 254.640219 303.669021 
L 254.707448 299.706682 
L 255.615174 301.997492 
L 256.560701 299.566764 
L 256.674864 298.031807 
L 257.155873 297.946849 
L 257.952226 300.723527 
L 258.469006 300.6136 
L 258.566172 301.3078 
L 259.910509 300.517367 
L 260.876839 300.796471 
L 263.180657 300.834522 
L 263.579975 301.023738 
L 263.847118 298.693034 
L 264.108172 298.350931 
L 264.552394 296.419913 
L 264.721102 298.572163 
L 264.861904 295.064292 
L 265.837874 294.886446 
L 266.52666 298.463046 
L 267.820005 297.911529 
L 268.506508 296.735112 
L 269.185907 298.840711 
L 270.618023 301.075675 
L 271.245415 302.785953 
L 273.701451 303.657345 
L 275.755124 302.757752 
L 277.518314 302.615159 
L 277.999069 302.035591 
L 278.392806 300.801904 
L 278.994067 300.621646 
L 279.195502 298.126259 
L 279.472285 297.93829 
L 279.579852 297.385452 
L 279.907374 297.363239 
L 280.304155 297.204539 
L 281.081228 291.367572 
L 281.661685 291.094744 
L 282.472753 288.982586 
L 283.316294 288.738424 
L 283.565678 288.803986 
L 284.024868 290.354484 
L 284.167192 289.72436 
L 284.506891 287.147722 
L 284.539872 290.069728 
L 284.611922 288.512759 
L 284.729891 290.576831 
L 284.822236 289.230115 
L 287.095357 290.203247 
L 288.114963 289.091704 
L 288.238259 290.421368 
L 289.102603 289.877505 
L 289.589193 290.028662 
L 289.709953 289.849536 
L 289.835279 290.324289 
L 290.873405 291.18987 
L 291.445237 293.570748 
L 291.53606 294.918018 
L 292.00616 292.771706 
L 292.370468 295.21274 
L 293.826686 293.31508 
L 293.974844 294.152336 
L 295.293051 294.236043 
L 295.836723 294.39708 
L 296.162723 294.359013 
L 296.392318 293.40766 
L 296.58665 293.098895 
L 297.299791 292.994577 
L 297.642027 290.478977 
L 297.898007 290.402492 
L 298.782647 290.494854 
L 300.084871 287.685176 
L 300.957079 289.790942 
L 302.198163 290.110067 
L 302.230382 292.234073 
L 303.900212 292.467693 
L 304.254373 290.968228 
L 305.174022 290.979895 
L 305.537062 290.400572 
L 307.217548 291.123005 
L 307.460842 294.357026 
L 308.104724 294.754377 
L 308.410936 295.877084 
L 308.919851 296.377032 
L 309.233927 296.319677 
L 309.918147 296.820913 
L 310.598814 298.523055 
L 310.923038 301.208722 
L 311.672712 300.411638 
L 313.344318 302.609672 
L 315.839676 302.285928 
L 315.972867 301.786515 
L 316.954673 302.281155 
L 317.489972 303.043195 
L 317.522953 302.906916 
L 317.605911 302.355843 
L 319.474386 302.053093 
L 319.767659 303.012512 
L 319.891463 301.319055 
L 320.194377 300.572294 
L 320.277843 299.880494 
L 320.438686 299.850809 
L 320.95369 301.292228 
L 321.511315 301.432893 
L 321.723659 303.623555 
L 322.554008 302.824951 
L 323.036792 301.9294 
L 325.461877 300.844126 
L 325.702127 301.171757 
L 325.92944 301.795083 
L 328.69879 300.326835 
L 330.647179 301.444866 
L 330.832885 302.227799 
L 331.202775 304.698072 
L 331.939002 303.73303 
L 332.285551 303.968741 
L 333.475388 304.02041 
L 333.760796 304.901994 
L 333.76308 304.163641 
L 335.639926 301.865654 
L 335.672907 298.475796 
L 337.44244 297.268559 
L 337.89884 299.193829 
L 338.121078 299.352339 
L 338.274818 297.261131 
L 338.895106 298.663512 
L 339.367996 298.978993 
L 339.823635 298.985804 
L 339.991329 299.625953 
L 340.245786 298.102923 
L 341.912318 297.22289 
L 342.042718 296.637409 
L 342.114768 296.915583 
L 342.389014 296.763771 
L 342.561781 295.382417 
L 342.892602 295.151386 
L 343.540542 296.170358 
L 344.814353 295.973003 
L 345.131727 293.9897 
L 346.918765 294.85051 
L 347.216351 296.333095 
L 347.513176 295.079778 
L 347.789705 294.959404 
L 348.379803 296.332614 
L 349.044995 296.21804 
L 349.261906 297.069691 
L 349.371756 293.9435 
L 349.496575 295.129717 
L 349.576489 293.161427 
L 350.969029 293.697984 
L 351.124292 294.084634 
L 352.367404 293.816812 
L 353.085619 293.379803 
L 353.261431 293.585737 
L 353.511322 294.415447 
L 355.034008 295.773166 
L 356.058435 295.44477 
L 356.419445 295.601927 
L 357.686912 297.548625 
L 357.902047 296.967706 
L 358.819667 296.267461 
L 359.017043 296.476158 
L 359.71826 296.567135 
L 362.086771 297.213558 
L 362.685241 296.98607 
L 362.70579 297.472538 
L 363.612501 297.417804 
L 363.847424 299.498722 
L 364.5012 299.881216 
L 364.535957 301.183155 
L 364.565639 300.189372 
L 364.956332 300.552246 
L 364.97409 302.392114 
L 365.331041 299.535332 
L 365.710064 299.799961 
L 366.215935 299.214356 
L 366.898632 300.502334 
L 367.045776 301.156718 
L 367.27664 300.105971 
L 367.750798 301.343667 
L 368.047116 300.099135 
L 368.239418 299.789292 
L 368.429944 299.046125 
L 369.510184 298.529107 
L 369.521346 300.686623 
L 371.166822 300.414306 
L 371.720641 299.270899 
L 372.03903 299.35534 
L 372.299323 298.605891 
L 375.173197 297.456203 
L 375.368036 297.903414 
L 376.900109 297.714179 
L 377.033807 300.257418 
L 377.676927 300.440417 
L 377.705595 303.222283 
L 377.947368 303.098731 
L 378.811965 302.970956 
L 378.986255 299.252912 
L 379.457877 298.715405 
L 381.327112 298.343588 
L 381.787064 298.415044 
L 382.013869 299.464858 
L 382.944174 297.829732 
L 383.057576 297.22286 
L 383.337403 296.418233 
L 383.769449 296.152088 
L 383.889447 295.414533 
L 383.947797 293.997797 
L 384.244115 293.070366 
L 384.666266 291.305925 
L 385.377123 292.235618 
L 386.04815 292.179233 
L 386.415757 291.768842 
L 386.721968 294.889776 
L 387.119257 295.727682 
L 387.134732 295.530797 
L 387.756796 293.793724 
L 387.851679 297.202873 
L 387.878824 297.089517 
L 388.706382 297.581711 
L 388.864689 297.005297 
L 388.885492 296.316132 
L 389.356606 298.873483 
L 389.810723 299.330813 
L 390.570037 299.572675 
L 391.14745 298.91573 
L 391.493492 300.175977 
L 394.032233 301.322161 
L 394.484573 303.059784 
L 394.594931 302.893964 
L 394.880086 303.418372 
L 395.608449 303.884149 
L 395.745699 303.795457 
L 396.716342 306.886925 
L 397.051221 307.439548 
L 397.876496 306.456847 
L 398.689085 305.669325 
L 398.828618 304.527315 
L 398.956228 305.861768 
L 400.149362 305.5898 
L 400.448471 305.207066 
L 402.098259 306.662621 
L 402.12921 309.062291 
L 403.335283 309.442643 
L 403.977389 311.86065 
L 404.800634 311.871766 
L 405.495255 311.664256 
L 407.887105 311.553504 
L 408.395767 310.635901 
L 409.131487 309.675911 
L 409.272034 308.265145 
L 410.544069 306.890174 
L 410.850534 307.672041 
L 411.776273 308.655786 
L 412.453135 306.217197 
L 412.456687 305.58475 
L 413.709186 307.140721 
L 413.900473 307.777086 
L 414.344696 307.502187 
L 414.66892 308.378599 
L 415.0416 306.064678 
L 415.09513 306.248002 
L 415.297072 305.564303 
L 415.454618 306.361636 
L 415.754487 304.788211 
L 415.80548 304.82188 
L 416.868215 304.141838 
L 416.875065 304.522908 
L 417.219331 302.892236 
L 417.977122 300.695323 
L 417.985494 299.706089 
L 418.247055 298.804591 
L 419.065734 298.327303 
L 419.49651 298.845545 
L 420.010499 298.515581 
L 421.064608 298.433377 
L 421.853351 299.890583 
L 423.798949 301.444099 
L 423.882923 300.688267 
L 425.484255 300.777433 
L 426.544199 300.617802 
L 427.179201 301.683852 
L 427.187066 302.882761 
L 427.410572 304.110769 
L 427.964646 304.352737 
L 428.222401 304.156761 
L 429.98889 304.39529 
L 431.904552 303.994301 
L 432.069201 303.214802 
L 432.952572 303.709439 
L 433.383856 305.128361 
L 433.938183 305.091623 
L 434.207862 310.870647 
L 434.863922 309.866747 
L 435.955324 308.871266 
L 436.174518 307.588955 
L 437.351416 310.093544 
L 438.729241 310.876195 
L 438.854567 311.853089 
L 438.975581 310.812522 
L 439.047377 307.967687 
L 439.446949 308.089905 
L 441.385951 308.019802 
L 441.617322 310.972964 
L 441.982391 312.179636 
L 442.238371 310.82667 
L 443.20876 313.298903 
L 443.308463 311.77187 
L 443.742538 311.108591 
L 444.134752 312.12576 
L 444.302699 311.935515 
L 444.469632 313.757251 
L 446.013629 314.695883 
L 447.520078 314.313089 
L 447.726587 314.767209 
L 447.832379 315.274977 
L 448.486662 313.403569 
L 449.025767 313.103635 
L 449.526056 308.405015 
L 450.597417 309.166334 
L 450.887899 308.55894 
L 451.343792 309.185137 
L 451.469118 311.230548 
L 452.139384 310.878109 
L 452.487963 311.118429 
L 452.882968 310.629959 
L 453.578604 310.657612 
L 453.605496 309.065851 
L 454.34426 309.093758 
L 454.476182 307.901302 
L 455.323529 309.119552 
L 455.323782 309.09988 
L 455.480567 308.982492 
L 456.012822 308.438351 
L 456.314721 308.819297 
L 456.607233 308.442122 
L 456.814249 308.431657 
L 457.439357 307.710779 
L 457.902861 308.069992 
L 458.081971 308.381723 
L 458.308268 309.378716 
L 458.501838 308.523495 
L 458.858789 308.494979 
L 459.014559 305.905228 
L 459.233245 305.437593 
L 459.918987 304.40813 
L 460.028584 305.318336 
L 460.896733 307.989376 
L 461.125821 308.055577 
L 462.461026 307.257246 
L 462.843854 305.256016 
L 463.696781 305.181881 
L 463.793186 304.32814 
L 464.204428 303.141349 
L 464.892453 300.201806 
L 464.938879 301.527472 
L 465.844829 301.80434 
L 466.518394 301.111009 
L 466.710442 300.54275 
L 467.729541 298.666201 
L 468.159303 296.689105 
L 468.966057 297.8606 
L 469.346095 297.823779 
L 470.26473 300.664805 
L 470.388787 297.933475 
L 470.491534 299.944889 
L 471.036221 301.254678 
L 471.523825 300.851315 
L 472.203732 301.164266 
L 472.21185 301.803282 
L 472.862328 302.291789 
L 473.174882 303.603477 
L 473.609972 303.301587 
L 473.632551 301.479869 
L 474.021975 300.742454 
L 474.254361 301.43857 
L 474.735623 300.758463 
L 475.759542 301.256407 
L 477.102865 300.578976 
L 478.525341 300.484187 
L 478.584706 300.596244 
L 479.70503 300.260843 
L 479.811329 300.024776 
L 479.944266 300.10149 
L 480.192888 301.020697 
L 480.824846 297.350976 
L 481.606992 297.697566 
L 482.553534 297.508092 
L 482.719959 300.492077 
L 483.657875 299.998742 
L 483.719269 300.24595 
L 484.261165 300.159686 
L 484.497103 297.957526 
L 485.31705 297.92794 
L 486.17429 297.356152 
L 486.264099 299.508337 
L 486.541897 302.022429 
L 487.25935 302.883027 
L 487.310343 302.319927 
L 487.928855 302.530095 
L 488.164286 301.426923 
L 489.141778 302.208561 
L 489.821938 305.209507 
L 490.747677 304.883927 
L 491.82132 304.377815 
L 492.206178 303.642702 
L 492.336071 303.039107 
L 494.102559 305.528107 
L 495.20893 306.652694 
L 495.296709 305.501578 
L 495.548883 305.089457 
L 495.699832 303.634801 
L 496.487306 302.903695 
L 496.881043 302.30283 
L 497.764161 301.788631 
L 498.033333 303.543704 
L 498.310877 303.408918 
L 499.543334 303.320478 
L 499.581896 303.659634 
L 499.898509 303.991885 
L 499.89927 302.602676 
L 499.924133 302.923284 
L 500.469073 302.751378 
L 501.239042 301.013875 
L 501.876073 301.193853 
L 502.03641 301.001293 
L 502.149558 302.555734 
L 503.49897 302.678527 
L 503.983276 302.464292 
L 504.035031 303.704374 
L 504.284161 303.13294 
L 504.395533 303.332254 
L 505.064024 304.165608 
L 505.35958 304.355416 
L 505.470445 304.631642 
L 505.916951 304.846811 
L 506.073482 304.034155 
L 506.894697 306.802109 
L 507.65325 308.293348 
L 507.940688 308.462614 
L 508.437172 309.585534 
L 509.664809 308.504005 
L 509.850262 307.36418 
L 510.391904 307.309831 
L 511.261068 306.933102 
L 512.474498 308.410266 
L 512.641177 309.264803 
L 512.9139 308.404971 
L 513.569452 309.02694 
L 513.844205 305.886136 
L 514.057564 305.944691 
L 514.740008 303.392896 
L 515.165203 303.741276 
L 515.202496 304.328198 
L 515.67082 304.660182 
L 516.348951 305.636093 
L 516.862686 305.371148 
L 517.229531 305.506535 
L 517.369064 302.895091 
L 517.781067 302.338466 
L 519.752289 303.254414 
L 520.174948 302.409436 
L 520.637183 302.707797 
L 520.641242 302.845597 
L 522.090102 302.061468 
L 522.222025 303.002425 
L 522.863623 302.170455 
L 523.778452 302.400563 
L 524.315274 303.305486 
L 524.846007 304.524168 
L 525.065708 305.681092 
L 525.626885 306.519448 
L 526.133517 307.614519 
L 526.663489 308.245525 
L 527.052406 309.547143 
L 527.471766 308.68421 
L 528.127318 308.265704 
L 528.409682 306.872705 
L 529.386921 306.687091 
L 529.846111 305.984937 
L 530.973285 305.787253 
L 532.135469 306.78167 
L 532.3298 303.972683 
L 532.792289 303.878468 
L 533.68251 304.101273 
L 533.865425 303.792461 
L 534.058995 302.003039 
L 534.456538 302.560954 
L 534.619918 304.432034 
L 534.925876 304.513535 
L 535.231834 303.096274 
L 535.76688 302.596746 
L 536.749193 302.541082 
L 537.720089 302.188925 
L 538.581135 300.384566 
L 539.022313 302.987631 
L 539.194573 302.479744 
L 539.521842 304.932478 
L 540.149487 304.389595 
L 541.402494 302.423227 
L 542.653218 301.278633 
L 543.660393 301.50022 
L 544.344866 302.622048 
L 544.857586 305.596148 
L 545.144517 305.455637 
L 545.304092 303.502913 
L 545.803874 303.569036 
L 549.209242 303.221609 
L 549.884075 305.045549 
L 550.582248 305.572106 
L 551.402702 301.523877 
L 551.69699 301.827068 
L 551.863161 300.675609 
L 552.057493 300.307511 
L 553.123525 300.264896 
L 553.759035 299.846747 
L 553.802417 300.034373 
L 553.940428 299.955273 
L 554.003599 301.241383 
L 554.260593 301.321109 
L 554.976778 302.125245 
L 555.143711 303.300667 
L 557.17861 303.372191 
L 557.382075 305.510084 
L 557.730654 306.369801 
L 557.767186 305.975955 
L 558.240076 306.3921 
L 558.508487 308.162633 
L 558.7599 308.218294 
L 559.720142 307.679645 
L 561.198938 307.97654 
L 561.634789 311.194211 
L 561.880367 310.943374 
L 562.360107 313.253649 
L 562.939043 311.651818 
L 564.709337 312.538915 
L 564.778088 312.816288 
L 565.858328 312.766486 
L 565.911604 313.509633 
L 566.125724 313.206517 
L 566.166062 312.77269 
L 567.221693 312.337796 
L 567.228035 311.739767 
L 567.403847 312.219538 
L 567.649679 313.955921 
L 567.955891 312.9985 
L 568.280369 314.131883 
L 568.641632 314.219767 
L 569.27359 313.570921 
L 569.839333 313.83227 
L 570.092523 317.446624 
L 571.050481 316.333591 
L 571.499777 314.69739 
L 572.980603 313.941947 
L 573.818563 313.894331 
L 573.897209 313.491826 
L 574.457371 311.921878 
L 574.819649 312.137929 
L 575.102013 309.956196 
L 576.119083 309.526723 
L 576.311131 308.352237 
L 576.528549 306.077579 
L 577.079831 303.394232 
L 577.115095 303.938042 
L 579.740854 303.406674 
L 579.840049 303.67197 
L 581.309967 303.808708 
L 581.383285 303.981853 
L 582.245092 303.313166 
L 583.957543 303.433182 
L 584.462399 302.313143 
L 585.563949 302.246878 
L 586.126141 299.23576 
L 586.359541 300.25913 
L 586.55159 299.549996 
L 587.089934 301.641661 
L 588.14658 302.309152 
L 589.228088 302.231277 
L 590.359067 302.010476 
L 590.685828 303.636196 
L 592.350838 304.384605 
L 593.2885 305.10166 
L 594.072422 304.151854 
L 594.291616 304.233984 
L 594.892623 304.177752 
L 595.112324 304.698718 
L 595.331518 304.303611 
L 596.17379 304.483934 
L 597.019614 303.865715 
L 597.241091 302.152097 
L 597.698506 301.70604 
L 597.781719 301.305296 
L 598.456805 302.613305 
L 598.600397 303.205213 
L 600.855505 304.383169 
L 601.102098 304.290682 
L 601.412623 305.574738 
L 602.091007 305.711929 
L 602.293711 304.551086 
L 602.6773 306.886539 
L 602.962201 306.936027 
L 603.671283 307.691855 
L 605.877681 309.006543 
L 606.200637 311.975611 
L 606.676317 312.108075 
L 606.777289 311.919542 
L 606.946504 311.16657 
L 607.073352 309.863269 
L 607.533051 309.821338 
L 607.751229 310.371941 
L 608.16577 310.586518 
L 608.501156 310.299628 
L 609.005251 311.146644 
L 609.233832 310.603006 
L 609.242457 312.819286 
L 609.473321 312.444577 
L 609.48423 312.878485 
L 609.799321 311.660919 
L 610.174538 310.810906 
L 610.203713 311.05342 
L 610.778843 309.264733 
L 610.821972 309.613417 
L 611.152285 307.289927 
L 611.594478 307.490582 
L 611.792361 305.86608 
L 611.804538 306.626003 
L 612.155654 306.95072 
L 612.161997 307.458831 
L 612.571463 307.005779 
L 613.007821 308.018 
L 613.191751 307.679503 
L 613.512423 306.630963 
L 613.557581 306.842368 
L 613.862524 308.937283 
L 614.291271 309.329802 
L 614.712154 307.436232 
L 615.733282 307.50105 
L 616.009304 307.922675 
L 616.566675 307.908883 
L 616.683883 308.063144 
L 617.544675 307.812813 
L 617.825263 307.581945 
L 618.71447 305.897618 
L 618.908547 306.370187 
L 619.538222 306.604893 
L 619.601393 307.901412 
L 619.83251 307.732881 
L 619.877161 306.062868 
L 620.699391 305.562726 
L 621.915358 306.418714 
L 622.636364 305.738467 
L 622.636364 305.738467 
" style="fill:none;stroke:#0000ff;stroke-linecap:square;stroke-opacity:0.8;stroke-width:2;"/>
   </g>
   <g id="patch_3">
    <path d="M 90 384.48 
L 90 51.84 
" style="fill:none;stroke:#000000;stroke-linecap:square;stroke-linejoin:miter;stroke-width:0.8;"/>
   </g>
   <g id="patch_4">
    <path d="M 648 384.48 
L 648 51.84 
" style="fill:none;stroke:#000000;stroke-linecap:square;stroke-linejoin:miter;stroke-width:0.8;"/>
   </g>
   <g id="patch_5">
    <path d="M 90 384.48 
L 648 384.48 
" style="fill:none;stroke:#000000;stroke-linecap:square;stroke-linejoin:miter;stroke-width:0.8;"/>
   </g>
   <g id="patch_6">
    <path d="M 90 51.84 
L 648 51.84 
" style="fill:none;stroke:#000000;stroke-linecap:square;stroke-linejoin:miter;stroke-width:0.8;"/>
   </g>
   <g id="text_20">
    <!-- Smoothed Episode Reward Curve Comparison: Hybrid vs MLP Networks -->
    <g transform="translate(119.016875 45.84)scale(0.14 -0.14)">
     <defs>
      <path d="M 53.515625 70.515625 
L 53.515625 60.890625 
Q 47.90625 63.578125 42.921875 64.890625 
Q 37.9375 66.21875 33.296875 66.21875 
Q 25.25 66.21875 20.875 63.09375 
Q 16.5 59.96875 16.5 54.203125 
Q 16.5 49.359375 19.40625 46.890625 
Q 22.3125 44.4375 30.421875 42.921875 
L 36.375 41.703125 
Q 47.40625 39.59375 52.65625 34.296875 
Q 57.90625 29 57.90625 20.125 
Q 57.90625 9.515625 50.796875 4.046875 
Q 43.703125 -1.421875 29.984375 -1.421875 
Q 24.8125 -1.421875 18.96875 -0.25 
Q 13.140625 0.921875 6.890625 3.21875 
L 6.890625 13.375 
Q 12.890625 10.015625 18.65625 8.296875 
Q 24.421875 6.59375 29.984375 6.59375 
Q 38.421875 6.59375 43.015625 9.90625 
Q 47.609375 13.234375 47.609375 19.390625 
Q 47.609375 24.75 44.3125 27.78125 
Q 41.015625 30.8125 33.5 32.328125 
L 27.484375 33.5 
Q 16.453125 35.6875 11.515625 40.375 
Q 6.59375 45.0625 6.59375 53.421875 
Q 6.59375 63.09375 13.40625 68.65625 
Q 20.21875 74.21875 32.171875 74.21875 
Q 37.3125 74.21875 42.625 73.28125 
Q 47.953125 72.359375 53.515625 70.515625 
z
" id="DejaVuSans-83"/>
      <path d="M 52 44.1875 
Q 55.375 50.25 60.0625 53.125 
Q 64.75 56 71.09375 56 
Q 79.640625 56 84.28125 50.015625 
Q 88.921875 44.046875 88.921875 33.015625 
L 88.921875 0 
L 79.890625 0 
L 79.890625 32.71875 
Q 79.890625 40.578125 77.09375 44.375 
Q 74.3125 48.1875 68.609375 48.1875 
Q 61.625 48.1875 57.5625 43.546875 
Q 53.515625 38.921875 53.515625 30.90625 
L 53.515625 0 
L 44.484375 0 
L 44.484375 32.71875 
Q 44.484375 40.625 41.703125 44.40625 
Q 38.921875 48.1875 33.109375 48.1875 
Q 26.21875 48.1875 22.15625 43.53125 
Q 18.109375 38.875 18.109375 30.90625 
L 18.109375 0 
L 9.078125 0 
L 9.078125 54.6875 
L 18.109375 54.6875 
L 18.109375 46.1875 
Q 21.1875 51.21875 25.484375 53.609375 
Q 29.78125 56 35.6875 56 
Q 41.65625 56 45.828125 52.96875 
Q 50 49.953125 52 44.1875 
z
" id="DejaVuSans-109"/>
      <path d="M 18.3125 70.21875 
L 18.3125 54.6875 
L 36.8125 54.6875 
L 36.8125 47.703125 
L 18.3125 47.703125 
L 18.3125 18.015625 
Q 18.3125 11.328125 20.140625 9.421875 
Q 21.96875 7.515625 27.59375 7.515625 
L 36.8125 7.515625 
L 36.8125 0 
L 27.59375 0 
Q 17.1875 0 13.234375 3.875 
Q 9.28125 7.765625 9.28125 18.015625 
L 9.28125 47.703125 
L 2.6875 47.703125 
L 2.6875 54.6875 
L 9.28125 54.6875 
L 9.28125 70.21875 
z
" id="DejaVuSans-116"/>
      <path d="M 54.890625 33.015625 
L 54.890625 0 
L 45.90625 0 
L 45.90625 32.71875 
Q 45.90625 40.484375 42.875 44.328125 
Q 39.84375 48.1875 33.796875 48.1875 
Q 26.515625 48.1875 22.3125 43.546875 
Q 18.109375 38.921875 18.109375 30.90625 
L 18.109375 0 
L 9.078125 0 
L 9.078125 75.984375 
L 18.109375 75.984375 
L 18.109375 46.1875 
Q 21.34375 51.125 25.703125 53.5625 
Q 30.078125 56 35.796875 56 
Q 45.21875 56 50.046875 50.171875 
Q 54.890625 44.34375 54.890625 33.015625 
z
" id="DejaVuSans-104"/>
      <path d="M 64.40625 67.28125 
L 64.40625 56.890625 
Q 59.421875 61.53125 53.78125 63.8125 
Q 48.140625 66.109375 41.796875 66.109375 
Q 29.296875 66.109375 22.65625 58.46875 
Q 16.015625 50.828125 16.015625 36.375 
Q 16.015625 21.96875 22.65625 14.328125 
Q 29.296875 6.6875 41.796875 6.6875 
Q 48.140625 6.6875 53.78125 8.984375 
Q 59.421875 11.28125 64.40625 15.921875 
L 64.40625 5.609375 
Q 59.234375 2.09375 53.4375 0.328125 
Q 47.65625 -1.421875 41.21875 -1.421875 
Q 24.65625 -1.421875 15.125 8.703125 
Q 5.609375 18.84375 5.609375 36.375 
Q 5.609375 53.953125 15.125 64.078125 
Q 24.65625 74.21875 41.21875 74.21875 
Q 47.75 74.21875 53.53125 72.484375 
Q 59.328125 70.75 64.40625 67.28125 
z
" id="DejaVuSans-67"/>
      <path d="M 2.984375 54.6875 
L 12.5 54.6875 
L 29.59375 8.796875 
L 46.6875 54.6875 
L 56.203125 54.6875 
L 35.6875 0 
L 23.484375 0 
z
" id="DejaVuSans-118"/>
      <path d="M 11.71875 12.40625 
L 22.015625 12.40625 
L 22.015625 0 
L 11.71875 0 
z
M 11.71875 51.703125 
L 22.015625 51.703125 
L 22.015625 39.3125 
L 11.71875 39.3125 
z
" id="DejaVuSans-58"/>
      <path d="M 9.8125 72.90625 
L 19.671875 72.90625 
L 19.671875 43.015625 
L 55.515625 43.015625 
L 55.515625 72.90625 
L 65.375 72.90625 
L 65.375 0 
L 55.515625 0 
L 55.515625 34.71875 
L 19.671875 34.71875 
L 19.671875 0 
L 9.8125 0 
z
" id="DejaVuSans-72"/>
      <path d="M 32.171875 -5.078125 
Q 28.375 -14.84375 24.75 -17.8125 
Q 21.140625 -20.796875 15.09375 -20.796875 
L 7.90625 -20.796875 
L 7.90625 -13.28125 
L 13.1875 -13.28125 
Q 16.890625 -13.28125 18.9375 -11.515625 
Q 21 -9.765625 23.484375 -3.21875 
L 25.09375 0.875 
L 2.984375 54.6875 
L 12.5 54.6875 
L 29.59375 11.921875 
L 46.6875 54.6875 
L 56.203125 54.6875 
z
" id="DejaVuSans-121"/>
      <path d="M 48.6875 27.296875 
Q 48.6875 37.203125 44.609375 42.84375 
Q 40.53125 48.484375 33.40625 48.484375 
Q 26.265625 48.484375 22.1875 42.84375 
Q 18.109375 37.203125 18.109375 27.296875 
Q 18.109375 17.390625 22.1875 11.75 
Q 26.265625 6.109375 33.40625 6.109375 
Q 40.53125 6.109375 44.609375 11.75 
Q 48.6875 17.390625 48.6875 27.296875 
z
M 18.109375 46.390625 
Q 20.953125 51.265625 25.265625 53.625 
Q 29.59375 56 35.59375 56 
Q 45.5625 56 51.78125 48.09375 
Q 58.015625 40.1875 58.015625 27.296875 
Q 58.015625 14.40625 51.78125 6.484375 
Q 45.5625 -1.421875 35.59375 -1.421875 
Q 29.59375 -1.421875 25.265625 0.953125 
Q 20.953125 3.328125 18.109375 8.203125 
L 18.109375 0 
L 9.078125 0 
L 9.078125 75.984375 
L 18.109375 75.984375 
z
" id="DejaVuSans-98"/>
      <path d="M 9.8125 72.90625 
L 24.515625 72.90625 
L 43.109375 23.296875 
L 61.8125 72.90625 
L 76.515625 72.90625 
L 76.515625 0 
L 66.890625 0 
L 66.890625 64.015625 
L 48.09375 14.015625 
L 38.1875 14.015625 
L 19.390625 64.015625 
L 19.390625 0 
L 9.8125 0 
z
" id="DejaVuSans-77"/>
      <path d="M 9.8125 72.90625 
L 19.671875 72.90625 
L 19.671875 8.296875 
L 55.171875 8.296875 
L 55.171875 0 
L 9.8125 0 
z
" id="DejaVuSans-76"/>
      <path d="M 19.671875 64.796875 
L 19.671875 37.40625 
L 32.078125 37.40625 
Q 38.96875 37.40625 42.71875 40.96875 
Q 46.484375 44.53125 46.484375 51.125 
Q 46.484375 57.671875 42.71875 61.234375 
Q 38.96875 64.796875 32.078125 64.796875 
z
M 9.8125 72.90625 
L 32.078125 72.90625 
Q 44.34375 72.90625 50.609375 67.359375 
Q 56.890625 61.8125 56.890625 51.125 
Q 56.890625 40.328125 50.609375 34.8125 
Q 44.34375 29.296875 32.078125 29.296875 
L 19.671875 29.296875 
L 19.671875 0 
L 9.8125 0 
z
" id="DejaVuSans-80"/>
      <path d="M 9.8125 72.90625 
L 23.09375 72.90625 
L 55.421875 11.921875 
L 55.421875 72.90625 
L 64.984375 72.90625 
L 64.984375 0 
L 51.703125 0 
L 19.390625 60.984375 
L 19.390625 0 
L 9.8125 0 
z
" id="DejaVuSans-78"/>
      <path d="M 9.078125 75.984375 
L 18.109375 75.984375 
L 18.109375 31.109375 
L 44.921875 54.6875 
L 56.390625 54.6875 
L 27.390625 29.109375 
L 57.625 0 
L 45.90625 0 
L 18.109375 26.703125 
L 18.109375 0 
L 9.078125 0 
z
" id="DejaVuSans-107"/>
     </defs>
     <use xlink:href="#DejaVuSans-83"/>
     <use x="63.476562" xlink:href="#DejaVuSans-109"/>
     <use x="160.888672" xlink:href="#DejaVuSans-111"/>
     <use x="222.070312" xlink:href="#DejaVuSans-111"/>
     <use x="283.251953" xlink:href="#DejaVuSans-116"/>
     <use x="322.460938" xlink:href="#DejaVuSans-104"/>
     <use x="385.839844" xlink:href="#DejaVuSans-101"/>
     <use x="447.363281" xlink:href="#DejaVuSans-100"/>
     <use x="510.839844" xlink:href="#DejaVuSans-32"/>
     <use x="542.626953" xlink:href="#DejaVuSans-69"/>
     <use x="605.810547" xlink:href="#DejaVuSans-112"/>
     <use x="669.287109" xlink:href="#DejaVuSans-105"/>
     <use x="697.070312" xlink:href="#DejaVuSans-115"/>
     <use x="749.169922" xlink:href="#DejaVuSans-111"/>
     <use x="810.351562" xlink:href="#DejaVuSans-100"/>
     <use x="873.828125" xlink:href="#DejaVuSans-101"/>
     <use x="935.351562" xlink:href="#DejaVuSans-32"/>
     <use x="967.138672" xlink:href="#DejaVuSans-82"/>
     <use x="1032.121094" xlink:href="#DejaVuSans-101"/>
     <use x="1093.644531" xlink:href="#DejaVuSans-119"/>
     <use x="1175.431641" xlink:href="#DejaVuSans-97"/>
     <use x="1236.710938" xlink:href="#DejaVuSans-114"/>
     <use x="1276.074219" xlink:href="#DejaVuSans-100"/>
     <use x="1339.550781" xlink:href="#DejaVuSans-32"/>
     <use x="1371.337891" xlink:href="#DejaVuSans-67"/>
     <use x="1441.162109" xlink:href="#DejaVuSans-117"/>
     <use x="1504.541016" xlink:href="#DejaVuSans-114"/>
     <use x="1545.654297" xlink:href="#DejaVuSans-118"/>
     <use x="1604.833984" xlink:href="#DejaVuSans-101"/>
     <use x="1666.357422" xlink:href="#DejaVuSans-32"/>
     <use x="1698.144531" xlink:href="#DejaVuSans-67"/>
     <use x="1767.96875" xlink:href="#DejaVuSans-111"/>
     <use x="1829.150391" xlink:href="#DejaVuSans-109"/>
     <use x="1926.5625" xlink:href="#DejaVuSans-112"/>
     <use x="1990.039062" xlink:href="#DejaVuSans-97"/>
     <use x="2051.318359" xlink:href="#DejaVuSans-114"/>
     <use x="2092.431641" xlink:href="#DejaVuSans-105"/>
     <use x="2120.214844" xlink:href="#DejaVuSans-115"/>
     <use x="2172.314453" xlink:href="#DejaVuSans-111"/>
     <use x="2233.496094" xlink:href="#DejaVuSans-110"/>
     <use x="2296.875" xlink:href="#DejaVuSans-58"/>
     <use x="2330.566406" xlink:href="#DejaVuSans-32"/>
     <use x="2362.353516" xlink:href="#DejaVuSans-72"/>
     <use x="2437.548828" xlink:href="#DejaVuSans-121"/>
     <use x="2496.728516" xlink:href="#DejaVuSans-98"/>
     <use x="2560.205078" xlink:href="#DejaVuSans-114"/>
     <use x="2601.318359" xlink:href="#DejaVuSans-105"/>
     <use x="2629.101562" xlink:href="#DejaVuSans-100"/>
     <use x="2692.578125" xlink:href="#DejaVuSans-32"/>
     <use x="2724.365234" xlink:href="#DejaVuSans-118"/>
     <use x="2783.544922" xlink:href="#DejaVuSans-115"/>
     <use x="2835.644531" xlink:href="#DejaVuSans-32"/>
     <use x="2867.431641" xlink:href="#DejaVuSans-77"/>
     <use x="2953.710938" xlink:href="#DejaVuSans-76"/>
     <use x="3009.423828" xlink:href="#DejaVuSans-80"/>
     <use x="3069.726562" xlink:href="#DejaVuSans-32"/>
     <use x="3101.513672" xlink:href="#DejaVuSans-78"/>
     <use x="3176.318359" xlink:href="#DejaVuSans-101"/>
     <use x="3237.841797" xlink:href="#DejaVuSans-116"/>
     <use x="3277.050781" xlink:href="#DejaVuSans-119"/>
     <use x="3358.837891" xlink:href="#DejaVuSans-111"/>
     <use x="3420.019531" xlink:href="#DejaVuSans-114"/>
     <use x="3461.132812" xlink:href="#DejaVuSans-107"/>
     <use x="3519.042969" xlink:href="#DejaVuSans-115"/>
    </g>
   </g>
   <g id="legend_1">
    <g id="patch_7">
     <path d="M 403.036875 378.48 
L 639.6 378.48 
Q 642 378.48 642 376.08 
L 642 342.0525 
Q 642 339.6525 639.6 339.6525 
L 403.036875 339.6525 
Q 400.636875 339.6525 400.636875 342.0525 
L 400.636875 376.08 
Q 400.636875 378.48 403.036875 378.48 
z
" style="fill:#ffffff;opacity:0.8;stroke:#cccccc;stroke-linejoin:miter;"/>
    </g>
    <g id="line2d_35">
     <path d="M 405.436875 349.370625 
L 429.436875 349.370625 
" style="fill:none;stroke:#ff0000;stroke-linecap:square;stroke-opacity:0.8;stroke-width:2;"/>
    </g>
    <g id="line2d_36"/>
    <g id="text_21">
     <!-- Hybrid Network Loss (Smoothed) -->
     <g transform="translate(439.036875 353.570625)scale(0.12 -0.12)">
      <defs>
       <path d="M 31 75.875 
Q 24.46875 64.65625 21.28125 53.65625 
Q 18.109375 42.671875 18.109375 31.390625 
Q 18.109375 20.125 21.3125 9.0625 
Q 24.515625 -2 31 -13.1875 
L 23.1875 -13.1875 
Q 15.875 -1.703125 12.234375 9.375 
Q 8.59375 20.453125 8.59375 31.390625 
Q 8.59375 42.28125 12.203125 53.3125 
Q 15.828125 64.359375 23.1875 75.875 
z
" id="DejaVuSans-40"/>
       <path d="M 8.015625 75.875 
L 15.828125 75.875 
Q 23.140625 64.359375 26.78125 53.3125 
Q 30.421875 42.28125 30.421875 31.390625 
Q 30.421875 20.453125 26.78125 9.375 
Q 23.140625 -1.703125 15.828125 -13.1875 
L 8.015625 -13.1875 
Q 14.5 -2 17.703125 9.0625 
Q 20.90625 20.125 20.90625 31.390625 
Q 20.90625 42.671875 17.703125 53.65625 
Q 14.5 64.65625 8.015625 75.875 
z
" id="DejaVuSans-41"/>
      </defs>
      <use xlink:href="#DejaVuSans-72"/>
      <use x="75.195312" xlink:href="#DejaVuSans-121"/>
      <use x="134.375" xlink:href="#DejaVuSans-98"/>
      <use x="197.851562" xlink:href="#DejaVuSans-114"/>
      <use x="238.964844" xlink:href="#DejaVuSans-105"/>
      <use x="266.748047" xlink:href="#DejaVuSans-100"/>
      <use x="330.224609" xlink:href="#DejaVuSans-32"/>
      <use x="362.011719" xlink:href="#DejaVuSans-78"/>
      <use x="436.816406" xlink:href="#DejaVuSans-101"/>
      <use x="498.339844" xlink:href="#DejaVuSans-116"/>
      <use x="537.548828" xlink:href="#DejaVuSans-119"/>
      <use x="619.335938" xlink:href="#DejaVuSans-111"/>
      <use x="680.517578" xlink:href="#DejaVuSans-114"/>
      <use x="721.630859" xlink:href="#DejaVuSans-107"/>
      <use x="779.541016" xlink:href="#DejaVuSans-32"/>
      <use x="811.328125" xlink:href="#DejaVuSans-76"/>
      <use x="865.291016" xlink:href="#DejaVuSans-111"/>
      <use x="926.472656" xlink:href="#DejaVuSans-115"/>
      <use x="978.572266" xlink:href="#DejaVuSans-115"/>
      <use x="1030.671875" xlink:href="#DejaVuSans-32"/>
      <use x="1062.458984" xlink:href="#DejaVuSans-40"/>
      <use x="1101.472656" xlink:href="#DejaVuSans-83"/>
      <use x="1164.949219" xlink:href="#DejaVuSans-109"/>
      <use x="1262.361328" xlink:href="#DejaVuSans-111"/>
      <use x="1323.542969" xlink:href="#DejaVuSans-111"/>
      <use x="1384.724609" xlink:href="#DejaVuSans-116"/>
      <use x="1423.933594" xlink:href="#DejaVuSans-104"/>
      <use x="1487.3125" xlink:href="#DejaVuSans-101"/>
      <use x="1548.835938" xlink:href="#DejaVuSans-100"/>
      <use x="1612.3125" xlink:href="#DejaVuSans-41"/>
     </g>
    </g>
    <g id="line2d_37">
     <path d="M 405.436875 366.984375 
L 429.436875 366.984375 
" style="fill:none;stroke:#0000ff;stroke-linecap:square;stroke-opacity:0.8;stroke-width:2;"/>
    </g>
    <g id="line2d_38"/>
    <g id="text_22">
     <!-- MLP Network Loss (Smoothed) -->
     <g transform="translate(439.036875 371.184375)scale(0.12 -0.12)">
      <use xlink:href="#DejaVuSans-77"/>
      <use x="86.279297" xlink:href="#DejaVuSans-76"/>
      <use x="141.992188" xlink:href="#DejaVuSans-80"/>
      <use x="202.294922" xlink:href="#DejaVuSans-32"/>
      <use x="234.082031" xlink:href="#DejaVuSans-78"/>
      <use x="308.886719" xlink:href="#DejaVuSans-101"/>
      <use x="370.410156" xlink:href="#DejaVuSans-116"/>
      <use x="409.619141" xlink:href="#DejaVuSans-119"/>
      <use x="491.40625" xlink:href="#DejaVuSans-111"/>
      <use x="552.587891" xlink:href="#DejaVuSans-114"/>
      <use x="593.701172" xlink:href="#DejaVuSans-107"/>
      <use x="651.611328" xlink:href="#DejaVuSans-32"/>
      <use x="683.398438" xlink:href="#DejaVuSans-76"/>
      <use x="737.361328" xlink:href="#DejaVuSans-111"/>
      <use x="798.542969" xlink:href="#DejaVuSans-115"/>
      <use x="850.642578" xlink:href="#DejaVuSans-115"/>
      <use x="902.742188" xlink:href="#DejaVuSans-32"/>
      <use x="934.529297" xlink:href="#DejaVuSans-40"/>
      <use x="973.542969" xlink:href="#DejaVuSans-83"/>
      <use x="1037.019531" xlink:href="#DejaVuSans-109"/>
      <use x="1134.431641" xlink:href="#DejaVuSans-111"/>
      <use x="1195.613281" xlink:href="#DejaVuSans-111"/>
      <use x="1256.794922" xlink:href="#DejaVuSans-116"/>
      <use x="1296.003906" xlink:href="#DejaVuSans-104"/>
      <use x="1359.382812" xlink:href="#DejaVuSans-101"/>
      <use x="1420.90625" xlink:href="#DejaVuSans-100"/>
      <use x="1484.382812" xlink:href="#DejaVuSans-41"/>
     </g>
    </g>
   </g>
  </g>
 </g>
 <defs>
  <clipPath id="p15185fac07">
   <rect height="332.64" width="558" x="90" y="51.84"/>
  </clipPath>
 </defs>
</svg>
