<?xml version="1.0" encoding="utf-8" standalone="no"?>
<!DOCTYPE svg PUBLIC "-//W3C//DTD SVG 1.1//EN"
  "http://www.w3.org/Graphics/SVG/1.1/DTD/svg11.dtd">
<svg xmlns:xlink="http://www.w3.org/1999/xlink" width="720pt" height="432pt" viewBox="0 0 720 432" xmlns="http://www.w3.org/2000/svg" version="1.1">
 <metadata>
  <rdf:RDF xmlns:dc="http://purl.org/dc/elements/1.1/" xmlns:cc="http://creativecommons.org/ns#" xmlns:rdf="http://www.w3.org/1999/02/22-rdf-syntax-ns#">
   <cc:Work>
    <dc:type rdf:resource="http://purl.org/dc/dcmitype/StillImage"/>
    <dc:date>2025-01-15T13:38:11.170078</dc:date>
    <dc:format>image/svg+xml</dc:format>
    <dc:creator>
     <cc:Agent>
      <dc:title>Matplotlib v3.8.2, https://matplotlib.org/</dc:title>
     </cc:Agent>
    </dc:creator>
   </cc:Work>
  </rdf:RDF>
 </metadata>
 <defs>
  <style type="text/css">*{stroke-linejoin: round; stroke-linecap: butt}</style>
 </defs>
 <g id="figure_1">
  <g id="patch_1">
   <path d="M 0 432 
L 720 432 
L 720 0 
L 0 0 
z
" style="fill: #ffffff"/>
  </g>
  <g id="axes_1">
   <g id="patch_2">
    <path d="M 90 384.48 
L 648 384.48 
L 648 51.84 
L 90 51.84 
z
" style="fill: #ffffff"/>
   </g>
   <g id="PolyCollection_1">
    <defs>
     <path id="mfc8aade16b" d="M 90 -88.528643 
L 90 -63.296664 
L 95.693878 -62.64 
L 101.387755 -62.780405 
L 107.081633 -63.850645 
L 112.77551 -66.816538 
L 118.469388 -70.278563 
L 124.163265 -74.689302 
L 129.857143 -85.907139 
L 135.55102 -105.549684 
L 141.244898 -137.00181 
L 146.938776 -169.730611 
L 152.632653 -198.718726 
L 158.326531 -225.536158 
L 164.020408 -239.947595 
L 169.714286 -246.8975 
L 175.408163 -240.868292 
L 181.102041 -276.043297 
L 186.795918 -274.899069 
L 192.489796 -277.74297 
L 198.183673 -284.671011 
L 203.877551 -294.776164 
L 209.571429 -293.485467 
L 215.265306 -288.7427 
L 220.959184 -294.009953 
L 226.653061 -294.880522 
L 232.346939 -295.017444 
L 238.040816 -292.504701 
L 243.734694 -287.360524 
L 249.428571 -287.066158 
L 255.122449 -291.072395 
L 260.816327 -289.615381 
L 266.510204 -291.104306 
L 272.204082 -289.500754 
L 277.897959 -290.026171 
L 283.591837 -292.615893 
L 289.285714 -294.018541 
L 294.979592 -293.949476 
L 300.673469 -297.242689 
L 306.367347 -298.16013 
L 312.061224 -301.56978 
L 317.755102 -303.871369 
L 323.44898 -303.626288 
L 329.142857 -304.286257 
L 334.836735 -303.775838 
L 340.530612 -306.427651 
L 346.22449 -307.56603 
L 351.918367 -308.143044 
L 357.612245 -307.03156 
L 363.306122 -305.199958 
L 369 -303.719948 
L 374.693878 -305.039963 
L 380.387755 -307.380005 
L 386.081633 -307.492534 
L 391.77551 -307.234879 
L 397.469388 -306.362575 
L 403.163265 -306.82883 
L 408.857143 -306.69687 
L 414.55102 -304.930938 
L 420.244898 -305.400475 
L 425.938776 -307.438085 
L 431.632653 -306.021028 
L 437.326531 -306.035912 
L 443.020408 -305.335931 
L 448.714286 -304.31059 
L 454.408163 -303.842876 
L 460.102041 -303.953239 
L 465.795918 -305.3267 
L 471.489796 -307.990741 
L 477.183673 -306.852278 
L 482.877551 -306.86691 
L 488.571429 -305.438508 
L 494.265306 -308.371691 
L 499.959184 -308.631863 
L 505.653061 -306.7235 
L 511.346939 -306.130034 
L 517.040816 -307.040447 
L 522.734694 -307.371805 
L 528.428571 -310.961388 
L 534.122449 -308.829526 
L 539.816327 -310.239789 
L 545.510204 -310.065302 
L 551.204082 -309.938354 
L 556.897959 -311.618148 
L 562.591837 -310.349668 
L 568.285714 -312.274337 
L 573.979592 -311.059281 
L 579.673469 -311.658425 
L 585.367347 -311.966976 
L 591.061224 -313.363347 
L 596.755102 -312.107477 
L 602.44898 -313.693254 
L 608.142857 -313.770467 
L 613.836735 -313.305808 
L 619.530612 -315.212362 
L 625.22449 -314.647475 
L 630.918367 -314.999756 
L 636.612245 -315.611144 
L 642.306122 -317.062086 
L 648 -315.407699 
L 648 -364.147638 
L 648 -364.147638 
L 642.306122 -365.04 
L 636.612245 -363.576143 
L 630.918367 -362.902838 
L 625.22449 -362.426016 
L 619.530612 -363.259633 
L 613.836735 -361.856956 
L 608.142857 -362.037476 
L 602.44898 -361.488589 
L 596.755102 -361.36788 
L 591.061224 -362.731877 
L 585.367347 -361.841147 
L 579.673469 -360.801749 
L 573.979592 -360.364566 
L 568.285714 -361.957062 
L 562.591837 -360.470952 
L 556.897959 -361.253889 
L 551.204082 -359.468146 
L 545.510204 -359.663264 
L 539.816327 -359.243789 
L 534.122449 -359.339248 
L 528.428571 -361.644818 
L 522.734694 -357.807394 
L 517.040816 -356.152249 
L 511.346939 -354.224637 
L 505.653061 -355.979723 
L 499.959184 -357.104733 
L 494.265306 -356.337398 
L 488.571429 -353.05348 
L 482.877551 -353.979691 
L 477.183673 -354.688329 
L 471.489796 -356.361374 
L 465.795918 -353.971947 
L 460.102041 -352.68577 
L 454.408163 -353.050502 
L 448.714286 -353.57339 
L 443.020408 -353.994948 
L 437.326531 -354.184242 
L 431.632653 -353.352931 
L 425.938776 -354.94754 
L 420.244898 -353.957034 
L 414.55102 -353.189442 
L 408.857143 -354.417166 
L 403.163265 -353.993982 
L 397.469388 -354.370476 
L 391.77551 -355.815405 
L 386.081633 -355.686141 
L 380.387755 -354.901848 
L 374.693878 -353.449874 
L 369 -352.624805 
L 363.306122 -352.854897 
L 357.612245 -353.246295 
L 351.918367 -354.237666 
L 346.22449 -353.795454 
L 340.530612 -352.532114 
L 334.836735 -351.243612 
L 329.142857 -351.123405 
L 323.44898 -351.199407 
L 317.755102 -352.151979 
L 312.061224 -350.559794 
L 306.367347 -348.716819 
L 300.673469 -347.345126 
L 294.979592 -345.063306 
L 289.285714 -345.419055 
L 283.591837 -344.949975 
L 277.897959 -344.816085 
L 272.204082 -344.201352 
L 266.510204 -344.572125 
L 260.816327 -344.172196 
L 255.122449 -344.881213 
L 249.428571 -342.079507 
L 243.734694 -342.406835 
L 238.040816 -344.853096 
L 232.346939 -345.818359 
L 226.653061 -347.793752 
L 220.959184 -347.613317 
L 215.265306 -343.144994 
L 209.571429 -345.657915 
L 203.877551 -347.304154 
L 198.183673 -340.680177 
L 192.489796 -337.445685 
L 186.795918 -334.795374 
L 181.102041 -332.972401 
L 175.408163 -305.405932 
L 169.714286 -308.873979 
L 164.020408 -299.606616 
L 158.326531 -285.576294 
L 152.632653 -258.718264 
L 146.938776 -219.316379 
L 141.244898 -189.893909 
L 135.55102 -156.314799 
L 129.857143 -132.618877 
L 124.163265 -115.238562 
L 118.469388 -108.435059 
L 112.77551 -99.290782 
L 107.081633 -90.310597 
L 101.387755 -87.708378 
L 95.693878 -85.47944 
L 90 -88.528643 
z
" style="stroke: #0000ff; stroke-opacity: 0.3"/>
    </defs>
    <g clip-path="url(#pe9158e15b7)">
     <use xlink:href="#mfc8aade16b" x="0" y="432" style="fill: #0000ff; fill-opacity: 0.3; stroke: #0000ff; stroke-opacity: 0.3"/>
    </g>
   </g>
   <g id="PolyCollection_2">
    <defs>
     <path id="m17d7a9aa7f" d="M 90 -197.357777 
L 90 -187.58091 
L 95.693878 -187.030143 
L 101.387755 -186.881171 
L 107.081633 -187.529905 
L 112.77551 -189.391922 
L 118.469388 -190.640411 
L 124.163265 -191.213787 
L 129.857143 -193.154113 
L 135.55102 -193.195669 
L 141.244898 -195.297106 
L 146.938776 -195.796582 
L 152.632653 -201.028219 
L 158.326531 -210.944066 
L 164.020408 -228.831823 
L 169.714286 -242.762246 
L 175.408163 -249.365092 
L 181.102041 -261.781266 
L 186.795918 -268.331634 
L 192.489796 -264.333242 
L 198.183673 -265.073701 
L 203.877551 -271.060624 
L 209.571429 -269.536171 
L 215.265306 -267.983012 
L 220.959184 -270.291305 
L 226.653061 -268.620364 
L 232.346939 -270.300652 
L 238.040816 -268.997735 
L 243.734694 -267.928754 
L 249.428571 -269.149229 
L 255.122449 -268.409293 
L 260.816327 -268.099381 
L 266.510204 -267.706432 
L 272.204082 -267.516333 
L 277.897959 -268.55668 
L 283.591837 -270.839416 
L 289.285714 -271.436826 
L 294.979592 -271.187729 
L 300.673469 -271.942342 
L 306.367347 -271.4224 
L 312.061224 -272.210812 
L 317.755102 -273.958439 
L 323.44898 -274.106529 
L 329.142857 -274.97305 
L 334.836735 -274.857316 
L 340.530612 -275.376457 
L 346.22449 -274.995374 
L 351.918367 -274.892112 
L 357.612245 -274.660137 
L 363.306122 -274.763902 
L 369 -274.957258 
L 374.693878 -275.320936 
L 380.387755 -276.475777 
L 386.081633 -276.740379 
L 391.77551 -277.37424 
L 397.469388 -277.011422 
L 403.163265 -277.042549 
L 408.857143 -277.85595 
L 414.55102 -277.561838 
L 420.244898 -277.648924 
L 425.938776 -277.881917 
L 431.632653 -278.070992 
L 437.326531 -278.698355 
L 443.020408 -278.834285 
L 448.714286 -279.381772 
L 454.408163 -278.831305 
L 460.102041 -278.619533 
L 465.795918 -278.940862 
L 471.489796 -280.535295 
L 477.183673 -279.225022 
L 482.877551 -278.689052 
L 488.571429 -278.629629 
L 494.265306 -280.500581 
L 499.959184 -281.22097 
L 505.653061 -281.507102 
L 511.346939 -280.14318 
L 517.040816 -279.739474 
L 522.734694 -279.983275 
L 528.428571 -281.368977 
L 534.122449 -280.407177 
L 539.816327 -280.999127 
L 545.510204 -281.093911 
L 551.204082 -281.021586 
L 556.897959 -281.615007 
L 562.591837 -281.745078 
L 568.285714 -281.778499 
L 573.979592 -281.212552 
L 579.673469 -281.933443 
L 585.367347 -282.12957 
L 591.061224 -283.553222 
L 596.755102 -281.769271 
L 602.44898 -281.21056 
L 608.142857 -281.570917 
L 613.836735 -279.977314 
L 619.530612 -281.468556 
L 625.22449 -281.402006 
L 630.918367 -281.729858 
L 636.612245 -282.720167 
L 642.306122 -284.28066 
L 648 -283.773535 
L 648 -301.901479 
L 648 -301.901479 
L 642.306122 -302.017553 
L 636.612245 -300.773595 
L 630.918367 -299.665718 
L 625.22449 -299.265987 
L 619.530612 -299.633913 
L 613.836735 -298.436428 
L 608.142857 -299.690308 
L 602.44898 -299.302931 
L 596.755102 -300.047648 
L 591.061224 -301.752052 
L 585.367347 -300.689457 
L 579.673469 -300.318099 
L 573.979592 -299.873241 
L 568.285714 -300.899136 
L 562.591837 -301.207413 
L 556.897959 -300.566595 
L 551.204082 -299.831295 
L 545.510204 -299.503953 
L 539.816327 -299.181524 
L 534.122449 -299.147246 
L 528.428571 -300.692958 
L 522.734694 -298.752191 
L 517.040816 -298.326251 
L 511.346939 -298.510807 
L 505.653061 -300.135882 
L 499.959184 -300.391431 
L 494.265306 -299.266678 
L 488.571429 -296.890707 
L 482.877551 -297.246104 
L 477.183673 -297.361923 
L 471.489796 -299.303823 
L 465.795918 -298.04194 
L 460.102041 -297.283098 
L 454.408163 -297.442225 
L 448.714286 -297.721253 
L 443.020408 -297.112562 
L 437.326531 -296.977111 
L 431.632653 -296.049068 
L 425.938776 -296.031559 
L 420.244898 -295.511213 
L 414.55102 -295.425352 
L 408.857143 -295.830851 
L 403.163265 -295.128893 
L 397.469388 -295.192285 
L 391.77551 -296.127141 
L 386.081633 -295.369949 
L 380.387755 -294.798735 
L 374.693878 -294.162991 
L 369 -293.96784 
L 363.306122 -293.697647 
L 357.612245 -293.579614 
L 351.918367 -293.448733 
L 346.22449 -293.413995 
L 340.530612 -293.51693 
L 334.836735 -292.945126 
L 329.142857 -292.481536 
L 323.44898 -292.149661 
L 317.755102 -292.439845 
L 312.061224 -291.038876 
L 306.367347 -290.781276 
L 300.673469 -291.330228 
L 294.979592 -290.762619 
L 289.285714 -291.369389 
L 283.591837 -290.962371 
L 277.897959 -289.469176 
L 272.204082 -288.779479 
L 266.510204 -289.074607 
L 260.816327 -289.686711 
L 255.122449 -290.165199 
L 249.428571 -290.267987 
L 243.734694 -289.131154 
L 238.040816 -289.740458 
L 232.346939 -290.200595 
L 226.653061 -289.885929 
L 220.959184 -291.036605 
L 215.265306 -289.064471 
L 209.571429 -290.109934 
L 203.877551 -290.878903 
L 198.183673 -285.775869 
L 192.489796 -285.160323 
L 186.795918 -288.10373 
L 181.102041 -283.08912 
L 175.408163 -272.494363 
L 169.714286 -264.724843 
L 164.020408 -248.90403 
L 158.326531 -228.056589 
L 152.632653 -216.392052 
L 146.938776 -208.352386 
L 141.244898 -206.090555 
L 135.55102 -200.858898 
L 129.857143 -202.84677 
L 124.163265 -201.398653 
L 118.469388 -200.748426 
L 112.77551 -196.856222 
L 107.081633 -194.73404 
L 101.387755 -194.603959 
L 95.693878 -195.128547 
L 90 -197.357777 
z
" style="stroke: #440154; stroke-opacity: 0.3"/>
    </defs>
    <g clip-path="url(#pe9158e15b7)">
     <use xlink:href="#m17d7a9aa7f" x="0" y="432" style="fill: #440154; fill-opacity: 0.3; stroke: #440154; stroke-opacity: 0.3"/>
    </g>
   </g>
   <g id="PolyCollection_3">
    <defs>
     <path id="m4f79a35258" d="M 90 -196.591085 
L 90 -186.756816 
L 95.693878 -186.102683 
L 101.387755 -186.708146 
L 107.081633 -188.398042 
L 112.77551 -190.541743 
L 118.469388 -193.569085 
L 124.163265 -197.203201 
L 129.857143 -204.882633 
L 135.55102 -221.210001 
L 141.244898 -243.257989 
L 146.938776 -264.947718 
L 152.632653 -263.588998 
L 158.326531 -258.657696 
L 164.020408 -258.402545 
L 169.714286 -263.675566 
L 175.408163 -259.321437 
L 181.102041 -277.371174 
L 186.795918 -270.927765 
L 192.489796 -272.405329 
L 198.183673 -271.904812 
L 203.877551 -273.67633 
L 209.571429 -274.345186 
L 215.265306 -272.499644 
L 220.959184 -274.160691 
L 226.653061 -276.403156 
L 232.346939 -275.968395 
L 238.040816 -276.543672 
L 243.734694 -272.680105 
L 249.428571 -273.047668 
L 255.122449 -276.536218 
L 260.816327 -276.393962 
L 266.510204 -277.183973 
L 272.204082 -274.084494 
L 277.897959 -274.671164 
L 283.591837 -274.435589 
L 289.285714 -274.455629 
L 294.979592 -275.221978 
L 300.673469 -276.430972 
L 306.367347 -277.028966 
L 312.061224 -277.837319 
L 317.755102 -277.687371 
L 323.44898 -277.986812 
L 329.142857 -277.776937 
L 334.836735 -277.49037 
L 340.530612 -278.700945 
L 346.22449 -279.604893 
L 351.918367 -280.111971 
L 357.612245 -279.279705 
L 363.306122 -278.134279 
L 369 -277.389702 
L 374.693878 -277.572336 
L 380.387755 -278.385341 
L 386.081633 -278.167101 
L 391.77551 -277.697203 
L 397.469388 -277.673967 
L 403.163265 -278.022868 
L 408.857143 -278.620891 
L 414.55102 -278.302624 
L 420.244898 -279.453011 
L 425.938776 -280.493082 
L 431.632653 -279.655478 
L 437.326531 -279.741915 
L 443.020408 -279.586838 
L 448.714286 -278.190956 
L 454.408163 -278.63701 
L 460.102041 -279.312171 
L 465.795918 -279.661686 
L 471.489796 -279.593519 
L 477.183673 -279.446083 
L 482.877551 -279.789317 
L 488.571429 -279.255949 
L 494.265306 -279.534627 
L 499.959184 -279.225887 
L 505.653061 -277.928257 
L 511.346939 -277.774887 
L 517.040816 -278.518397 
L 522.734694 -279.073404 
L 528.428571 -280.510235 
L 534.122449 -280.032125 
L 539.816327 -279.968099 
L 545.510204 -280.056422 
L 551.204082 -279.576404 
L 556.897959 -280.057778 
L 562.591837 -279.199076 
L 568.285714 -280.947577 
L 573.979592 -280.816885 
L 579.673469 -280.511802 
L 585.367347 -281.022951 
L 591.061224 -280.903355 
L 596.755102 -281.728289 
L 602.44898 -283.237123 
L 608.142857 -282.23245 
L 613.836735 -283.236161 
L 619.530612 -283.105762 
L 625.22449 -283.211626 
L 630.918367 -283.731629 
L 636.612245 -283.752135 
L 642.306122 -283.470894 
L 648 -282.748559 
L 648 -299.231684 
L 648 -299.231684 
L 642.306122 -299.573966 
L 636.612245 -299.811889 
L 630.918367 -299.994318 
L 625.22449 -299.603173 
L 619.530612 -299.292998 
L 613.836735 -299.692451 
L 608.142857 -298.703014 
L 602.44898 -299.534337 
L 596.755102 -298.613269 
L 591.061224 -297.800415 
L 585.367347 -297.810212 
L 579.673469 -297.202266 
L 573.979592 -297.435904 
L 568.285714 -297.031388 
L 562.591837 -295.189848 
L 556.897959 -296.435804 
L 551.204082 -295.775043 
L 545.510204 -296.398302 
L 539.816327 -295.888654 
L 534.122449 -295.948273 
L 528.428571 -296.245352 
L 522.734694 -294.70896 
L 517.040816 -294.096257 
L 511.346939 -293.325326 
L 505.653061 -293.810755 
L 499.959184 -294.542218 
L 494.265306 -294.649846 
L 488.571429 -294.578639 
L 482.877551 -294.791402 
L 477.183673 -294.66361 
L 471.489796 -294.415715 
L 465.795918 -294.361586 
L 460.102041 -294.282526 
L 454.408163 -293.7621 
L 448.714286 -293.402049 
L 443.020408 -294.324286 
L 437.326531 -294.550821 
L 431.632653 -294.617484 
L 425.938776 -295.606855 
L 420.244898 -295.231206 
L 414.55102 -294.407889 
L 408.857143 -293.965837 
L 403.163265 -293.137145 
L 397.469388 -293.533301 
L 391.77551 -294.049322 
L 386.081633 -294.592166 
L 380.387755 -294.398069 
L 374.693878 -293.488571 
L 369 -293.487517 
L 363.306122 -293.663924 
L 357.612245 -294.201725 
L 351.918367 -295.274435 
L 346.22449 -294.657796 
L 340.530612 -294.028756 
L 334.836735 -294.036095 
L 329.142857 -294.617599 
L 323.44898 -294.718647 
L 317.755102 -294.449231 
L 312.061224 -293.986912 
L 306.367347 -293.640597 
L 300.673469 -293.09557 
L 294.979592 -291.828747 
L 289.285714 -290.932872 
L 283.591837 -291.743332 
L 277.897959 -293.188078 
L 272.204082 -292.887869 
L 266.510204 -293.635897 
L 260.816327 -292.661607 
L 255.122449 -292.945001 
L 249.428571 -291.120826 
L 243.734694 -291.435468 
L 238.040816 -293.957804 
L 232.346939 -292.664372 
L 226.653061 -292.669066 
L 220.959184 -291.842963 
L 215.265306 -291.061363 
L 209.571429 -292.311014 
L 203.877551 -292.047808 
L 198.183673 -291.828774 
L 192.489796 -293.403299 
L 186.795918 -292.54708 
L 181.102041 -298.031061 
L 175.408163 -285.243644 
L 169.714286 -289.437205 
L 164.020408 -284.472324 
L 158.326531 -285.743001 
L 152.632653 -291.72259 
L 146.938776 -293.760384 
L 141.244898 -274.952483 
L 135.55102 -250.269063 
L 129.857143 -227.949352 
L 124.163265 -215.654319 
L 118.469388 -210.382118 
L 112.77551 -206.240728 
L 107.081633 -201.761699 
L 101.387755 -197.865157 
L 95.693878 -195.588986 
L 90 -196.591085 
z
" style="stroke: #31688e; stroke-opacity: 0.3"/>
    </defs>
    <g clip-path="url(#pe9158e15b7)">
     <use xlink:href="#m4f79a35258" x="0" y="432" style="fill: #31688e; fill-opacity: 0.3; stroke: #31688e; stroke-opacity: 0.3"/>
    </g>
   </g>
   <g id="PolyCollection_4">
    <defs>
     <path id="mb0f18ade4c" d="M 90 -198.790207 
L 90 -188.420884 
L 95.693878 -188.30678 
L 101.387755 -188.460897 
L 107.081633 -188.189006 
L 112.77551 -189.585759 
L 118.469388 -190.67084 
L 124.163265 -191.599815 
L 129.857143 -194.426452 
L 135.55102 -198.337621 
L 141.244898 -203.884607 
L 146.938776 -210.497599 
L 152.632653 -239.095042 
L 158.326531 -260.363863 
L 164.020408 -257.080556 
L 169.714286 -246.448843 
L 175.408163 -239.668138 
L 181.102041 -243.996882 
L 186.795918 -245.089604 
L 192.489796 -250.764116 
L 198.183673 -255.968687 
L 203.877551 -257.322663 
L 209.571429 -256.652343 
L 215.265306 -255.373062 
L 220.959184 -256.330346 
L 226.653061 -256.764094 
L 232.346939 -254.999788 
L 238.040816 -254.028229 
L 243.734694 -254.472611 
L 249.428571 -252.82318 
L 255.122449 -253.629056 
L 260.816327 -253.299854 
L 266.510204 -253.882068 
L 272.204082 -255.219924 
L 277.897959 -254.74558 
L 283.591837 -255.004643 
L 289.285714 -255.727732 
L 294.979592 -255.173269 
L 300.673469 -256.165101 
L 306.367347 -256.992246 
L 312.061224 -258.26113 
L 317.755102 -258.51616 
L 323.44898 -257.954955 
L 329.142857 -257.800684 
L 334.836735 -258.007735 
L 340.530612 -258.447263 
L 346.22449 -258.893854 
L 351.918367 -258.945739 
L 357.612245 -258.924849 
L 363.306122 -258.175995 
L 369 -257.587249 
L 374.693878 -258.144701 
L 380.387755 -258.215807 
L 386.081633 -258.58222 
L 391.77551 -258.292856 
L 397.469388 -257.752187 
L 403.163265 -257.547351 
L 408.857143 -256.208547 
L 414.55102 -255.412416 
L 420.244898 -254.990548 
L 425.938776 -255.428897 
L 431.632653 -254.431805 
L 437.326531 -254.127636 
L 443.020408 -253.648986 
L 448.714286 -253.511763 
L 454.408163 -253.083655 
L 460.102041 -252.450973 
L 465.795918 -253.250415 
L 471.489796 -254.513495 
L 477.183673 -254.832616 
L 482.877551 -254.637545 
L 488.571429 -254.092938 
L 494.265306 -254.795504 
L 499.959184 -254.729339 
L 505.653061 -254.463026 
L 511.346939 -254.977559 
L 517.040816 -255.878644 
L 522.734694 -255.921723 
L 528.428571 -256.575659 
L 534.122449 -255.999562 
L 539.816327 -256.487314 
L 545.510204 -256.193308 
L 551.204082 -256.434245 
L 556.897959 -256.860236 
L 562.591837 -256.580751 
L 568.285714 -256.684413 
L 573.979592 -256.019278 
L 579.673469 -256.103993 
L 585.367347 -256.061319 
L 591.061224 -255.982816 
L 596.755102 -255.667127 
L 602.44898 -255.813426 
L 608.142857 -256.672704 
L 613.836735 -256.670129 
L 619.530612 -257.211757 
L 625.22449 -256.539337 
L 630.918367 -256.143826 
L 636.612245 -255.815187 
L 642.306122 -255.883227 
L 648 -255.539303 
L 648 -267.869135 
L 648 -267.869135 
L 642.306122 -268.130135 
L 636.612245 -267.56436 
L 630.918367 -267.86665 
L 625.22449 -268.239254 
L 619.530612 -269.036478 
L 613.836735 -268.595707 
L 608.142857 -268.289263 
L 602.44898 -267.276954 
L 596.755102 -267.3316 
L 591.061224 -267.821253 
L 585.367347 -267.981049 
L 579.673469 -268.03339 
L 573.979592 -267.762793 
L 568.285714 -268.713007 
L 562.591837 -268.867261 
L 556.897959 -269.143575 
L 551.204082 -268.539569 
L 545.510204 -268.277034 
L 539.816327 -268.555238 
L 534.122449 -268.732676 
L 528.428571 -269.369213 
L 522.734694 -268.813221 
L 517.040816 -268.265984 
L 511.346939 -266.916158 
L 505.653061 -266.538653 
L 499.959184 -267.046087 
L 494.265306 -267.212132 
L 488.571429 -266.177495 
L 482.877551 -266.659153 
L 477.183673 -267.218414 
L 471.489796 -267.375524 
L 465.795918 -266.518952 
L 460.102041 -266.196597 
L 454.408163 -266.801334 
L 448.714286 -267.358831 
L 443.020408 -267.305306 
L 437.326531 -267.435472 
L 431.632653 -267.588145 
L 425.938776 -268.041512 
L 420.244898 -267.969839 
L 414.55102 -268.358141 
L 408.857143 -269.800436 
L 403.163265 -270.927435 
L 397.469388 -270.834235 
L 391.77551 -270.964742 
L 386.081633 -271.053106 
L 380.387755 -271.110449 
L 374.693878 -271.19865 
L 369 -270.518517 
L 363.306122 -270.7658 
L 357.612245 -270.298447 
L 351.918367 -270.334306 
L 346.22449 -270.46709 
L 340.530612 -269.51928 
L 334.836735 -268.767111 
L 329.142857 -268.63395 
L 323.44898 -269.028509 
L 317.755102 -270.327551 
L 312.061224 -270.38624 
L 306.367347 -269.125406 
L 300.673469 -267.586127 
L 294.979592 -267.138096 
L 289.285714 -267.910365 
L 283.591837 -267.286924 
L 277.897959 -267.736595 
L 272.204082 -268.709251 
L 266.510204 -267.27777 
L 260.816327 -267.093379 
L 255.122449 -267.466825 
L 249.428571 -266.33627 
L 243.734694 -267.729748 
L 238.040816 -266.801077 
L 232.346939 -268.897352 
L 226.653061 -271.231121 
L 220.959184 -271.09086 
L 215.265306 -269.301952 
L 209.571429 -268.841262 
L 203.877551 -269.865033 
L 198.183673 -268.730778 
L 192.489796 -264.284962 
L 186.795918 -259.921778 
L 181.102041 -258.984275 
L 175.408163 -256.955809 
L 169.714286 -264.643314 
L 164.020408 -277.010986 
L 158.326531 -282.622327 
L 152.632653 -260.871646 
L 146.938776 -227.482621 
L 141.244898 -216.30539 
L 135.55102 -210.176647 
L 129.857143 -206.098987 
L 124.163265 -201.636222 
L 118.469388 -200.683286 
L 112.77551 -199.577407 
L 107.081633 -197.630246 
L 101.387755 -199.540489 
L 95.693878 -198.837159 
L 90 -198.790207 
z
" style="stroke: #35b779; stroke-opacity: 0.3"/>
    </defs>
    <g clip-path="url(#pe9158e15b7)">
     <use xlink:href="#mb0f18ade4c" x="0" y="432" style="fill: #35b779; fill-opacity: 0.3; stroke: #35b779; stroke-opacity: 0.3"/>
    </g>
   </g>
   <g id="matplotlib.axis_1">
    <g id="xtick_1">
     <g id="line2d_1">
      <defs>
       <path id="m47da9bbbf8" d="M 0 0 
L 0 6 
" style="stroke: #000000; stroke-width: 2"/>
      </defs>
      <g>
       <use xlink:href="#m47da9bbbf8" x="90" y="384.48" style="stroke: #000000; stroke-width: 2"/>
      </g>
     </g>
     <g id="text_1">
      <!-- 0 -->
      <g transform="translate(85.54625 404.617813) scale(0.14 -0.14)">
       <defs>
        <path id="DejaVuSans-30" d="M 2034 4250 
Q 1547 4250 1301 3770 
Q 1056 3291 1056 2328 
Q 1056 1369 1301 889 
Q 1547 409 2034 409 
Q 2525 409 2770 889 
Q 3016 1369 3016 2328 
Q 3016 3291 2770 3770 
Q 2525 4250 2034 4250 
z
M 2034 4750 
Q 2819 4750 3233 4129 
Q 3647 3509 3647 2328 
Q 3647 1150 3233 529 
Q 2819 -91 2034 -91 
Q 1250 -91 836 529 
Q 422 1150 422 2328 
Q 422 3509 836 4129 
Q 1250 4750 2034 4750 
z
" transform="scale(0.015625)"/>
       </defs>
       <use xlink:href="#DejaVuSans-30"/>
      </g>
     </g>
    </g>
    <g id="xtick_2">
     <g id="line2d_2">
      <g>
       <use xlink:href="#m47da9bbbf8" x="146.938776" y="384.48" style="stroke: #000000; stroke-width: 2"/>
      </g>
     </g>
     <g id="text_2">
      <!-- 10 -->
      <g transform="translate(138.031276 404.617813) scale(0.14 -0.14)">
       <defs>
        <path id="DejaVuSans-31" d="M 794 531 
L 1825 531 
L 1825 4091 
L 703 3866 
L 703 4441 
L 1819 4666 
L 2450 4666 
L 2450 531 
L 3481 531 
L 3481 0 
L 794 0 
L 794 531 
z
" transform="scale(0.015625)"/>
       </defs>
       <use xlink:href="#DejaVuSans-31"/>
       <use xlink:href="#DejaVuSans-30" x="63.623047"/>
      </g>
     </g>
    </g>
    <g id="xtick_3">
     <g id="line2d_3">
      <g>
       <use xlink:href="#m47da9bbbf8" x="203.877551" y="384.48" style="stroke: #000000; stroke-width: 2"/>
      </g>
     </g>
     <g id="text_3">
      <!-- 20 -->
      <g transform="translate(194.970051 404.617813) scale(0.14 -0.14)">
       <defs>
        <path id="DejaVuSans-32" d="M 1228 531 
L 3431 531 
L 3431 0 
L 469 0 
L 469 531 
Q 828 903 1448 1529 
Q 2069 2156 2228 2338 
Q 2531 2678 2651 2914 
Q 2772 3150 2772 3378 
Q 2772 3750 2511 3984 
Q 2250 4219 1831 4219 
Q 1534 4219 1204 4116 
Q 875 4013 500 3803 
L 500 4441 
Q 881 4594 1212 4672 
Q 1544 4750 1819 4750 
Q 2544 4750 2975 4387 
Q 3406 4025 3406 3419 
Q 3406 3131 3298 2873 
Q 3191 2616 2906 2266 
Q 2828 2175 2409 1742 
Q 1991 1309 1228 531 
z
" transform="scale(0.015625)"/>
       </defs>
       <use xlink:href="#DejaVuSans-32"/>
       <use xlink:href="#DejaVuSans-30" x="63.623047"/>
      </g>
     </g>
    </g>
    <g id="xtick_4">
     <g id="line2d_4">
      <g>
       <use xlink:href="#m47da9bbbf8" x="260.816327" y="384.48" style="stroke: #000000; stroke-width: 2"/>
      </g>
     </g>
     <g id="text_4">
      <!-- 30 -->
      <g transform="translate(251.908827 404.617813) scale(0.14 -0.14)">
       <defs>
        <path id="DejaVuSans-33" d="M 2597 2516 
Q 3050 2419 3304 2112 
Q 3559 1806 3559 1356 
Q 3559 666 3084 287 
Q 2609 -91 1734 -91 
Q 1441 -91 1130 -33 
Q 819 25 488 141 
L 488 750 
Q 750 597 1062 519 
Q 1375 441 1716 441 
Q 2309 441 2620 675 
Q 2931 909 2931 1356 
Q 2931 1769 2642 2001 
Q 2353 2234 1838 2234 
L 1294 2234 
L 1294 2753 
L 1863 2753 
Q 2328 2753 2575 2939 
Q 2822 3125 2822 3475 
Q 2822 3834 2567 4026 
Q 2313 4219 1838 4219 
Q 1578 4219 1281 4162 
Q 984 4106 628 3988 
L 628 4550 
Q 988 4650 1302 4700 
Q 1616 4750 1894 4750 
Q 2613 4750 3031 4423 
Q 3450 4097 3450 3541 
Q 3450 3153 3228 2886 
Q 3006 2619 2597 2516 
z
" transform="scale(0.015625)"/>
       </defs>
       <use xlink:href="#DejaVuSans-33"/>
       <use xlink:href="#DejaVuSans-30" x="63.623047"/>
      </g>
     </g>
    </g>
    <g id="xtick_5">
     <g id="line2d_5">
      <g>
       <use xlink:href="#m47da9bbbf8" x="317.755102" y="384.48" style="stroke: #000000; stroke-width: 2"/>
      </g>
     </g>
     <g id="text_5">
      <!-- 40 -->
      <g transform="translate(308.847602 404.617813) scale(0.14 -0.14)">
       <defs>
        <path id="DejaVuSans-34" d="M 2419 4116 
L 825 1625 
L 2419 1625 
L 2419 4116 
z
M 2253 4666 
L 3047 4666 
L 3047 1625 
L 3713 1625 
L 3713 1100 
L 3047 1100 
L 3047 0 
L 2419 0 
L 2419 1100 
L 313 1100 
L 313 1709 
L 2253 4666 
z
" transform="scale(0.015625)"/>
       </defs>
       <use xlink:href="#DejaVuSans-34"/>
       <use xlink:href="#DejaVuSans-30" x="63.623047"/>
      </g>
     </g>
    </g>
    <g id="xtick_6">
     <g id="line2d_6">
      <g>
       <use xlink:href="#m47da9bbbf8" x="374.693878" y="384.48" style="stroke: #000000; stroke-width: 2"/>
      </g>
     </g>
     <g id="text_6">
      <!-- 50 -->
      <g transform="translate(365.786378 404.617813) scale(0.14 -0.14)">
       <defs>
        <path id="DejaVuSans-35" d="M 691 4666 
L 3169 4666 
L 3169 4134 
L 1269 4134 
L 1269 2991 
Q 1406 3038 1543 3061 
Q 1681 3084 1819 3084 
Q 2600 3084 3056 2656 
Q 3513 2228 3513 1497 
Q 3513 744 3044 326 
Q 2575 -91 1722 -91 
Q 1428 -91 1123 -41 
Q 819 9 494 109 
L 494 744 
Q 775 591 1075 516 
Q 1375 441 1709 441 
Q 2250 441 2565 725 
Q 2881 1009 2881 1497 
Q 2881 1984 2565 2268 
Q 2250 2553 1709 2553 
Q 1456 2553 1204 2497 
Q 953 2441 691 2322 
L 691 4666 
z
" transform="scale(0.015625)"/>
       </defs>
       <use xlink:href="#DejaVuSans-35"/>
       <use xlink:href="#DejaVuSans-30" x="63.623047"/>
      </g>
     </g>
    </g>
    <g id="xtick_7">
     <g id="line2d_7">
      <g>
       <use xlink:href="#m47da9bbbf8" x="431.632653" y="384.48" style="stroke: #000000; stroke-width: 2"/>
      </g>
     </g>
     <g id="text_7">
      <!-- 60 -->
      <g transform="translate(422.725153 404.617813) scale(0.14 -0.14)">
       <defs>
        <path id="DejaVuSans-36" d="M 2113 2584 
Q 1688 2584 1439 2293 
Q 1191 2003 1191 1497 
Q 1191 994 1439 701 
Q 1688 409 2113 409 
Q 2538 409 2786 701 
Q 3034 994 3034 1497 
Q 3034 2003 2786 2293 
Q 2538 2584 2113 2584 
z
M 3366 4563 
L 3366 3988 
Q 3128 4100 2886 4159 
Q 2644 4219 2406 4219 
Q 1781 4219 1451 3797 
Q 1122 3375 1075 2522 
Q 1259 2794 1537 2939 
Q 1816 3084 2150 3084 
Q 2853 3084 3261 2657 
Q 3669 2231 3669 1497 
Q 3669 778 3244 343 
Q 2819 -91 2113 -91 
Q 1303 -91 875 529 
Q 447 1150 447 2328 
Q 447 3434 972 4092 
Q 1497 4750 2381 4750 
Q 2619 4750 2861 4703 
Q 3103 4656 3366 4563 
z
" transform="scale(0.015625)"/>
       </defs>
       <use xlink:href="#DejaVuSans-36"/>
       <use xlink:href="#DejaVuSans-30" x="63.623047"/>
      </g>
     </g>
    </g>
    <g id="xtick_8">
     <g id="line2d_8">
      <g>
       <use xlink:href="#m47da9bbbf8" x="488.571429" y="384.48" style="stroke: #000000; stroke-width: 2"/>
      </g>
     </g>
     <g id="text_8">
      <!-- 70 -->
      <g transform="translate(479.663929 404.617813) scale(0.14 -0.14)">
       <defs>
        <path id="DejaVuSans-37" d="M 525 4666 
L 3525 4666 
L 3525 4397 
L 1831 0 
L 1172 0 
L 2766 4134 
L 525 4134 
L 525 4666 
z
" transform="scale(0.015625)"/>
       </defs>
       <use xlink:href="#DejaVuSans-37"/>
       <use xlink:href="#DejaVuSans-30" x="63.623047"/>
      </g>
     </g>
    </g>
    <g id="xtick_9">
     <g id="line2d_9">
      <g>
       <use xlink:href="#m47da9bbbf8" x="545.510204" y="384.48" style="stroke: #000000; stroke-width: 2"/>
      </g>
     </g>
     <g id="text_9">
      <!-- 80 -->
      <g transform="translate(536.602704 404.617813) scale(0.14 -0.14)">
       <defs>
        <path id="DejaVuSans-38" d="M 2034 2216 
Q 1584 2216 1326 1975 
Q 1069 1734 1069 1313 
Q 1069 891 1326 650 
Q 1584 409 2034 409 
Q 2484 409 2743 651 
Q 3003 894 3003 1313 
Q 3003 1734 2745 1975 
Q 2488 2216 2034 2216 
z
M 1403 2484 
Q 997 2584 770 2862 
Q 544 3141 544 3541 
Q 544 4100 942 4425 
Q 1341 4750 2034 4750 
Q 2731 4750 3128 4425 
Q 3525 4100 3525 3541 
Q 3525 3141 3298 2862 
Q 3072 2584 2669 2484 
Q 3125 2378 3379 2068 
Q 3634 1759 3634 1313 
Q 3634 634 3220 271 
Q 2806 -91 2034 -91 
Q 1263 -91 848 271 
Q 434 634 434 1313 
Q 434 1759 690 2068 
Q 947 2378 1403 2484 
z
M 1172 3481 
Q 1172 3119 1398 2916 
Q 1625 2713 2034 2713 
Q 2441 2713 2670 2916 
Q 2900 3119 2900 3481 
Q 2900 3844 2670 4047 
Q 2441 4250 2034 4250 
Q 1625 4250 1398 4047 
Q 1172 3844 1172 3481 
z
" transform="scale(0.015625)"/>
       </defs>
       <use xlink:href="#DejaVuSans-38"/>
       <use xlink:href="#DejaVuSans-30" x="63.623047"/>
      </g>
     </g>
    </g>
    <g id="xtick_10">
     <g id="line2d_10">
      <g>
       <use xlink:href="#m47da9bbbf8" x="602.44898" y="384.48" style="stroke: #000000; stroke-width: 2"/>
      </g>
     </g>
     <g id="text_10">
      <!-- 90 -->
      <g transform="translate(593.54148 404.617813) scale(0.14 -0.14)">
       <defs>
        <path id="DejaVuSans-39" d="M 703 97 
L 703 672 
Q 941 559 1184 500 
Q 1428 441 1663 441 
Q 2288 441 2617 861 
Q 2947 1281 2994 2138 
Q 2813 1869 2534 1725 
Q 2256 1581 1919 1581 
Q 1219 1581 811 2004 
Q 403 2428 403 3163 
Q 403 3881 828 4315 
Q 1253 4750 1959 4750 
Q 2769 4750 3195 4129 
Q 3622 3509 3622 2328 
Q 3622 1225 3098 567 
Q 2575 -91 1691 -91 
Q 1453 -91 1209 -44 
Q 966 3 703 97 
z
M 1959 2075 
Q 2384 2075 2632 2365 
Q 2881 2656 2881 3163 
Q 2881 3666 2632 3958 
Q 2384 4250 1959 4250 
Q 1534 4250 1286 3958 
Q 1038 3666 1038 3163 
Q 1038 2656 1286 2365 
Q 1534 2075 1959 2075 
z
" transform="scale(0.015625)"/>
       </defs>
       <use xlink:href="#DejaVuSans-39"/>
       <use xlink:href="#DejaVuSans-30" x="63.623047"/>
      </g>
     </g>
    </g>
    <g id="text_11">
     <!-- Episode Group (x20000) -->
     <g transform="translate(283.876719 422.167188) scale(0.14 -0.14)">
      <defs>
       <path id="DejaVuSans-45" d="M 628 4666 
L 3578 4666 
L 3578 4134 
L 1259 4134 
L 1259 2753 
L 3481 2753 
L 3481 2222 
L 1259 2222 
L 1259 531 
L 3634 531 
L 3634 0 
L 628 0 
L 628 4666 
z
" transform="scale(0.015625)"/>
       <path id="DejaVuSans-70" d="M 1159 525 
L 1159 -1331 
L 581 -1331 
L 581 3500 
L 1159 3500 
L 1159 2969 
Q 1341 3281 1617 3432 
Q 1894 3584 2278 3584 
Q 2916 3584 3314 3078 
Q 3713 2572 3713 1747 
Q 3713 922 3314 415 
Q 2916 -91 2278 -91 
Q 1894 -91 1617 61 
Q 1341 213 1159 525 
z
M 3116 1747 
Q 3116 2381 2855 2742 
Q 2594 3103 2138 3103 
Q 1681 3103 1420 2742 
Q 1159 2381 1159 1747 
Q 1159 1113 1420 752 
Q 1681 391 2138 391 
Q 2594 391 2855 752 
Q 3116 1113 3116 1747 
z
" transform="scale(0.015625)"/>
       <path id="DejaVuSans-69" d="M 603 3500 
L 1178 3500 
L 1178 0 
L 603 0 
L 603 3500 
z
M 603 4863 
L 1178 4863 
L 1178 4134 
L 603 4134 
L 603 4863 
z
" transform="scale(0.015625)"/>
       <path id="DejaVuSans-73" d="M 2834 3397 
L 2834 2853 
Q 2591 2978 2328 3040 
Q 2066 3103 1784 3103 
Q 1356 3103 1142 2972 
Q 928 2841 928 2578 
Q 928 2378 1081 2264 
Q 1234 2150 1697 2047 
L 1894 2003 
Q 2506 1872 2764 1633 
Q 3022 1394 3022 966 
Q 3022 478 2636 193 
Q 2250 -91 1575 -91 
Q 1294 -91 989 -36 
Q 684 19 347 128 
L 347 722 
Q 666 556 975 473 
Q 1284 391 1588 391 
Q 1994 391 2212 530 
Q 2431 669 2431 922 
Q 2431 1156 2273 1281 
Q 2116 1406 1581 1522 
L 1381 1569 
Q 847 1681 609 1914 
Q 372 2147 372 2553 
Q 372 3047 722 3315 
Q 1072 3584 1716 3584 
Q 2034 3584 2315 3537 
Q 2597 3491 2834 3397 
z
" transform="scale(0.015625)"/>
       <path id="DejaVuSans-6f" d="M 1959 3097 
Q 1497 3097 1228 2736 
Q 959 2375 959 1747 
Q 959 1119 1226 758 
Q 1494 397 1959 397 
Q 2419 397 2687 759 
Q 2956 1122 2956 1747 
Q 2956 2369 2687 2733 
Q 2419 3097 1959 3097 
z
M 1959 3584 
Q 2709 3584 3137 3096 
Q 3566 2609 3566 1747 
Q 3566 888 3137 398 
Q 2709 -91 1959 -91 
Q 1206 -91 779 398 
Q 353 888 353 1747 
Q 353 2609 779 3096 
Q 1206 3584 1959 3584 
z
" transform="scale(0.015625)"/>
       <path id="DejaVuSans-64" d="M 2906 2969 
L 2906 4863 
L 3481 4863 
L 3481 0 
L 2906 0 
L 2906 525 
Q 2725 213 2448 61 
Q 2172 -91 1784 -91 
Q 1150 -91 751 415 
Q 353 922 353 1747 
Q 353 2572 751 3078 
Q 1150 3584 1784 3584 
Q 2172 3584 2448 3432 
Q 2725 3281 2906 2969 
z
M 947 1747 
Q 947 1113 1208 752 
Q 1469 391 1925 391 
Q 2381 391 2643 752 
Q 2906 1113 2906 1747 
Q 2906 2381 2643 2742 
Q 2381 3103 1925 3103 
Q 1469 3103 1208 2742 
Q 947 2381 947 1747 
z
" transform="scale(0.015625)"/>
       <path id="DejaVuSans-65" d="M 3597 1894 
L 3597 1613 
L 953 1613 
Q 991 1019 1311 708 
Q 1631 397 2203 397 
Q 2534 397 2845 478 
Q 3156 559 3463 722 
L 3463 178 
Q 3153 47 2828 -22 
Q 2503 -91 2169 -91 
Q 1331 -91 842 396 
Q 353 884 353 1716 
Q 353 2575 817 3079 
Q 1281 3584 2069 3584 
Q 2775 3584 3186 3129 
Q 3597 2675 3597 1894 
z
M 3022 2063 
Q 3016 2534 2758 2815 
Q 2500 3097 2075 3097 
Q 1594 3097 1305 2825 
Q 1016 2553 972 2059 
L 3022 2063 
z
" transform="scale(0.015625)"/>
       <path id="DejaVuSans-20" transform="scale(0.015625)"/>
       <path id="DejaVuSans-47" d="M 3809 666 
L 3809 1919 
L 2778 1919 
L 2778 2438 
L 4434 2438 
L 4434 434 
Q 4069 175 3628 42 
Q 3188 -91 2688 -91 
Q 1594 -91 976 548 
Q 359 1188 359 2328 
Q 359 3472 976 4111 
Q 1594 4750 2688 4750 
Q 3144 4750 3555 4637 
Q 3966 4525 4313 4306 
L 4313 3634 
Q 3963 3931 3569 4081 
Q 3175 4231 2741 4231 
Q 1884 4231 1454 3753 
Q 1025 3275 1025 2328 
Q 1025 1384 1454 906 
Q 1884 428 2741 428 
Q 3075 428 3337 486 
Q 3600 544 3809 666 
z
" transform="scale(0.015625)"/>
       <path id="DejaVuSans-72" d="M 2631 2963 
Q 2534 3019 2420 3045 
Q 2306 3072 2169 3072 
Q 1681 3072 1420 2755 
Q 1159 2438 1159 1844 
L 1159 0 
L 581 0 
L 581 3500 
L 1159 3500 
L 1159 2956 
Q 1341 3275 1631 3429 
Q 1922 3584 2338 3584 
Q 2397 3584 2469 3576 
Q 2541 3569 2628 3553 
L 2631 2963 
z
" transform="scale(0.015625)"/>
       <path id="DejaVuSans-75" d="M 544 1381 
L 544 3500 
L 1119 3500 
L 1119 1403 
Q 1119 906 1312 657 
Q 1506 409 1894 409 
Q 2359 409 2629 706 
Q 2900 1003 2900 1516 
L 2900 3500 
L 3475 3500 
L 3475 0 
L 2900 0 
L 2900 538 
Q 2691 219 2414 64 
Q 2138 -91 1772 -91 
Q 1169 -91 856 284 
Q 544 659 544 1381 
z
M 1991 3584 
L 1991 3584 
z
" transform="scale(0.015625)"/>
       <path id="DejaVuSans-28" d="M 1984 4856 
Q 1566 4138 1362 3434 
Q 1159 2731 1159 2009 
Q 1159 1288 1364 580 
Q 1569 -128 1984 -844 
L 1484 -844 
Q 1016 -109 783 600 
Q 550 1309 550 2009 
Q 550 2706 781 3412 
Q 1013 4119 1484 4856 
L 1984 4856 
z
" transform="scale(0.015625)"/>
       <path id="DejaVuSans-78" d="M 3513 3500 
L 2247 1797 
L 3578 0 
L 2900 0 
L 1881 1375 
L 863 0 
L 184 0 
L 1544 1831 
L 300 3500 
L 978 3500 
L 1906 2253 
L 2834 3500 
L 3513 3500 
z
" transform="scale(0.015625)"/>
       <path id="DejaVuSans-29" d="M 513 4856 
L 1013 4856 
Q 1481 4119 1714 3412 
Q 1947 2706 1947 2009 
Q 1947 1309 1714 600 
Q 1481 -109 1013 -844 
L 513 -844 
Q 928 -128 1133 580 
Q 1338 1288 1338 2009 
Q 1338 2731 1133 3434 
Q 928 4138 513 4856 
z
" transform="scale(0.015625)"/>
      </defs>
      <use xlink:href="#DejaVuSans-45"/>
      <use xlink:href="#DejaVuSans-70" x="63.183594"/>
      <use xlink:href="#DejaVuSans-69" x="126.660156"/>
      <use xlink:href="#DejaVuSans-73" x="154.443359"/>
      <use xlink:href="#DejaVuSans-6f" x="206.542969"/>
      <use xlink:href="#DejaVuSans-64" x="267.724609"/>
      <use xlink:href="#DejaVuSans-65" x="331.201172"/>
      <use xlink:href="#DejaVuSans-20" x="392.724609"/>
      <use xlink:href="#DejaVuSans-47" x="424.511719"/>
      <use xlink:href="#DejaVuSans-72" x="502.001953"/>
      <use xlink:href="#DejaVuSans-6f" x="540.865234"/>
      <use xlink:href="#DejaVuSans-75" x="602.046875"/>
      <use xlink:href="#DejaVuSans-70" x="665.425781"/>
      <use xlink:href="#DejaVuSans-20" x="728.902344"/>
      <use xlink:href="#DejaVuSans-28" x="760.689453"/>
      <use xlink:href="#DejaVuSans-78" x="799.703125"/>
      <use xlink:href="#DejaVuSans-32" x="858.882812"/>
      <use xlink:href="#DejaVuSans-30" x="922.505859"/>
      <use xlink:href="#DejaVuSans-30" x="986.128906"/>
      <use xlink:href="#DejaVuSans-30" x="1049.751953"/>
      <use xlink:href="#DejaVuSans-30" x="1113.375"/>
      <use xlink:href="#DejaVuSans-29" x="1176.998047"/>
     </g>
    </g>
   </g>
   <g id="matplotlib.axis_2">
    <g id="ytick_1">
     <g id="line2d_11">
      <defs>
       <path id="m97d2b31881" d="M 0 0 
L -6 0 
" style="stroke: #000000; stroke-width: 2"/>
      </defs>
      <g>
       <use xlink:href="#m97d2b31881" x="90" y="361.13708" style="stroke: #000000; stroke-width: 2"/>
      </g>
     </g>
     <g id="text_12">
      <!-- −2.0 -->
      <g transform="translate(46.504062 366.455987) scale(0.14 -0.14)">
       <defs>
        <path id="DejaVuSans-2212" d="M 678 2272 
L 4684 2272 
L 4684 1741 
L 678 1741 
L 678 2272 
z
" transform="scale(0.015625)"/>
        <path id="DejaVuSans-2e" d="M 684 794 
L 1344 794 
L 1344 0 
L 684 0 
L 684 794 
z
" transform="scale(0.015625)"/>
       </defs>
       <use xlink:href="#DejaVuSans-2212"/>
       <use xlink:href="#DejaVuSans-32" x="83.789062"/>
       <use xlink:href="#DejaVuSans-2e" x="147.412109"/>
       <use xlink:href="#DejaVuSans-30" x="179.199219"/>
      </g>
     </g>
    </g>
    <g id="ytick_2">
     <g id="line2d_12">
      <g>
       <use xlink:href="#m97d2b31881" x="90" y="316.648953" style="stroke: #000000; stroke-width: 2"/>
      </g>
     </g>
     <g id="text_13">
      <!-- −1.5 -->
      <g transform="translate(46.504062 321.96786) scale(0.14 -0.14)">
       <use xlink:href="#DejaVuSans-2212"/>
       <use xlink:href="#DejaVuSans-31" x="83.789062"/>
       <use xlink:href="#DejaVuSans-2e" x="147.412109"/>
       <use xlink:href="#DejaVuSans-35" x="179.199219"/>
      </g>
     </g>
    </g>
    <g id="ytick_3">
     <g id="line2d_13">
      <g>
       <use xlink:href="#m97d2b31881" x="90" y="272.160826" style="stroke: #000000; stroke-width: 2"/>
      </g>
     </g>
     <g id="text_14">
      <!-- −1.0 -->
      <g transform="translate(46.504062 277.479732) scale(0.14 -0.14)">
       <use xlink:href="#DejaVuSans-2212"/>
       <use xlink:href="#DejaVuSans-31" x="83.789062"/>
       <use xlink:href="#DejaVuSans-2e" x="147.412109"/>
       <use xlink:href="#DejaVuSans-30" x="179.199219"/>
      </g>
     </g>
    </g>
    <g id="ytick_4">
     <g id="line2d_14">
      <g>
       <use xlink:href="#m97d2b31881" x="90" y="227.672699" style="stroke: #000000; stroke-width: 2"/>
      </g>
     </g>
     <g id="text_15">
      <!-- −0.5 -->
      <g transform="translate(46.504062 232.991605) scale(0.14 -0.14)">
       <use xlink:href="#DejaVuSans-2212"/>
       <use xlink:href="#DejaVuSans-30" x="83.789062"/>
       <use xlink:href="#DejaVuSans-2e" x="147.412109"/>
       <use xlink:href="#DejaVuSans-35" x="179.199219"/>
      </g>
     </g>
    </g>
    <g id="ytick_5">
     <g id="line2d_15">
      <g>
       <use xlink:href="#m97d2b31881" x="90" y="183.184572" style="stroke: #000000; stroke-width: 2"/>
      </g>
     </g>
     <g id="text_16">
      <!-- 0.0 -->
      <g transform="translate(58.235625 188.503478) scale(0.14 -0.14)">
       <use xlink:href="#DejaVuSans-30"/>
       <use xlink:href="#DejaVuSans-2e" x="63.623047"/>
       <use xlink:href="#DejaVuSans-30" x="95.410156"/>
      </g>
     </g>
    </g>
    <g id="ytick_6">
     <g id="line2d_16">
      <g>
       <use xlink:href="#m97d2b31881" x="90" y="138.696445" style="stroke: #000000; stroke-width: 2"/>
      </g>
     </g>
     <g id="text_17">
      <!-- 0.5 -->
      <g transform="translate(58.235625 144.015351) scale(0.14 -0.14)">
       <use xlink:href="#DejaVuSans-30"/>
       <use xlink:href="#DejaVuSans-2e" x="63.623047"/>
       <use xlink:href="#DejaVuSans-35" x="95.410156"/>
      </g>
     </g>
    </g>
    <g id="ytick_7">
     <g id="line2d_17">
      <g>
       <use xlink:href="#m97d2b31881" x="90" y="94.208318" style="stroke: #000000; stroke-width: 2"/>
      </g>
     </g>
     <g id="text_18">
      <!-- 1.0 -->
      <g transform="translate(58.235625 99.527224) scale(0.14 -0.14)">
       <use xlink:href="#DejaVuSans-31"/>
       <use xlink:href="#DejaVuSans-2e" x="63.623047"/>
       <use xlink:href="#DejaVuSans-30" x="95.410156"/>
      </g>
     </g>
    </g>
    <g id="text_19">
     <!-- Average Reward -->
     <g transform="translate(39.5925 275.200156) rotate(-90) scale(0.14 -0.14)">
      <defs>
       <path id="DejaVuSans-41" d="M 2188 4044 
L 1331 1722 
L 3047 1722 
L 2188 4044 
z
M 1831 4666 
L 2547 4666 
L 4325 0 
L 3669 0 
L 3244 1197 
L 1141 1197 
L 716 0 
L 50 0 
L 1831 4666 
z
" transform="scale(0.015625)"/>
       <path id="DejaVuSans-76" d="M 191 3500 
L 800 3500 
L 1894 563 
L 2988 3500 
L 3597 3500 
L 2284 0 
L 1503 0 
L 191 3500 
z
" transform="scale(0.015625)"/>
       <path id="DejaVuSans-61" d="M 2194 1759 
Q 1497 1759 1228 1600 
Q 959 1441 959 1056 
Q 959 750 1161 570 
Q 1363 391 1709 391 
Q 2188 391 2477 730 
Q 2766 1069 2766 1631 
L 2766 1759 
L 2194 1759 
z
M 3341 1997 
L 3341 0 
L 2766 0 
L 2766 531 
Q 2569 213 2275 61 
Q 1981 -91 1556 -91 
Q 1019 -91 701 211 
Q 384 513 384 1019 
Q 384 1609 779 1909 
Q 1175 2209 1959 2209 
L 2766 2209 
L 2766 2266 
Q 2766 2663 2505 2880 
Q 2244 3097 1772 3097 
Q 1472 3097 1187 3025 
Q 903 2953 641 2809 
L 641 3341 
Q 956 3463 1253 3523 
Q 1550 3584 1831 3584 
Q 2591 3584 2966 3190 
Q 3341 2797 3341 1997 
z
" transform="scale(0.015625)"/>
       <path id="DejaVuSans-67" d="M 2906 1791 
Q 2906 2416 2648 2759 
Q 2391 3103 1925 3103 
Q 1463 3103 1205 2759 
Q 947 2416 947 1791 
Q 947 1169 1205 825 
Q 1463 481 1925 481 
Q 2391 481 2648 825 
Q 2906 1169 2906 1791 
z
M 3481 434 
Q 3481 -459 3084 -895 
Q 2688 -1331 1869 -1331 
Q 1566 -1331 1297 -1286 
Q 1028 -1241 775 -1147 
L 775 -588 
Q 1028 -725 1275 -790 
Q 1522 -856 1778 -856 
Q 2344 -856 2625 -561 
Q 2906 -266 2906 331 
L 2906 616 
Q 2728 306 2450 153 
Q 2172 0 1784 0 
Q 1141 0 747 490 
Q 353 981 353 1791 
Q 353 2603 747 3093 
Q 1141 3584 1784 3584 
Q 2172 3584 2450 3431 
Q 2728 3278 2906 2969 
L 2906 3500 
L 3481 3500 
L 3481 434 
z
" transform="scale(0.015625)"/>
       <path id="DejaVuSans-52" d="M 2841 2188 
Q 3044 2119 3236 1894 
Q 3428 1669 3622 1275 
L 4263 0 
L 3584 0 
L 2988 1197 
Q 2756 1666 2539 1819 
Q 2322 1972 1947 1972 
L 1259 1972 
L 1259 0 
L 628 0 
L 628 4666 
L 2053 4666 
Q 2853 4666 3247 4331 
Q 3641 3997 3641 3322 
Q 3641 2881 3436 2590 
Q 3231 2300 2841 2188 
z
M 1259 4147 
L 1259 2491 
L 2053 2491 
Q 2509 2491 2742 2702 
Q 2975 2913 2975 3322 
Q 2975 3731 2742 3939 
Q 2509 4147 2053 4147 
L 1259 4147 
z
" transform="scale(0.015625)"/>
       <path id="DejaVuSans-77" d="M 269 3500 
L 844 3500 
L 1563 769 
L 2278 3500 
L 2956 3500 
L 3675 769 
L 4391 3500 
L 4966 3500 
L 4050 0 
L 3372 0 
L 2619 2869 
L 1863 0 
L 1184 0 
L 269 3500 
z
" transform="scale(0.015625)"/>
      </defs>
      <use xlink:href="#DejaVuSans-41"/>
      <use xlink:href="#DejaVuSans-76" x="62.533203"/>
      <use xlink:href="#DejaVuSans-65" x="121.712891"/>
      <use xlink:href="#DejaVuSans-72" x="183.236328"/>
      <use xlink:href="#DejaVuSans-61" x="224.349609"/>
      <use xlink:href="#DejaVuSans-67" x="285.628906"/>
      <use xlink:href="#DejaVuSans-65" x="349.105469"/>
      <use xlink:href="#DejaVuSans-20" x="410.628906"/>
      <use xlink:href="#DejaVuSans-52" x="442.416016"/>
      <use xlink:href="#DejaVuSans-65" x="507.398438"/>
      <use xlink:href="#DejaVuSans-77" x="568.921875"/>
      <use xlink:href="#DejaVuSans-61" x="650.708984"/>
      <use xlink:href="#DejaVuSans-72" x="711.988281"/>
      <use xlink:href="#DejaVuSans-64" x="751.351562"/>
     </g>
    </g>
   </g>
   <g id="line2d_18">
    <path d="M 90 351.882016 
L 95.693878 354.133707 
L 101.387755 352.600946 
L 107.081633 350.509387 
L 112.77551 343.533966 
L 118.469388 336.283773 
L 124.163265 330.277858 
L 129.857143 314.951703 
L 135.55102 292.606906 
L 141.244898 259.736791 
L 146.938776 229.21221 
L 152.632653 193.281582 
L 158.326531 166.437085 
L 164.020408 152.279724 
L 169.714286 143.784847 
L 175.408163 148.106614 
L 181.102041 118.003967 
L 186.795918 117.170061 
L 192.489796 114.45522 
L 198.183673 109.989545 
L 203.877551 102.205176 
L 209.571429 103.732901 
L 215.265306 106.989104 
L 220.959184 102.254471 
L 226.653061 101.843991 
L 232.346939 103.115279 
L 238.040816 104.596369 
L 243.734694 107.941936 
L 249.428571 108.258276 
L 255.122449 105.05506 
L 260.816327 106.013409 
L 266.510204 105.250481 
L 272.204082 106.032181 
L 277.897959 105.447219 
L 283.591837 104.494719 
L 289.285714 103.71445 
L 294.979592 103.974637 
L 300.673469 101.355686 
L 306.367347 100.135411 
L 312.061224 97.770211 
L 317.755102 95.941558 
L 323.44898 96.6583 
L 329.142857 96.488978 
L 334.836735 96.578979 
L 340.530612 94.83604 
L 346.22449 93.614354 
L 351.918367 93.127208 
L 357.612245 94.158617 
L 363.306122 95.030083 
L 369 95.676814 
L 374.693878 94.686763 
L 380.387755 92.938766 
L 386.081633 92.378395 
L 391.77551 92.378104 
L 397.469388 93.632158 
L 403.163265 93.727736 
L 408.857143 93.489599 
L 414.55102 94.896726 
L 420.244898 94.228486 
L 425.938776 92.888945 
L 431.632653 94.42437 
L 437.326531 93.865201 
L 443.020408 94.224725 
L 448.714286 94.847543 
L 454.408163 95.35204 
L 460.102041 95.558407 
L 465.795918 94.243135 
L 471.489796 91.76217 
L 477.183673 93.257022 
L 482.877551 93.724569 
L 488.571429 94.818177 
L 494.265306 91.651171 
L 499.959184 91.05289 
L 505.653061 92.439018 
L 511.346939 93.806897 
L 517.040816 92.218352 
L 522.734694 91.004469 
L 528.428571 87.249658 
L 534.122449 89.497326 
L 539.816327 89.090878 
L 545.510204 88.86939 
L 551.204082 89.041785 
L 556.897959 87.291358 
L 562.591837 88.236142 
L 568.285714 86.603846 
L 573.979592 88.070529 
L 579.673469 87.579359 
L 585.367347 86.783576 
L 591.061224 85.724299 
L 596.755102 87.052254 
L 602.44898 86.44319 
L 608.142857 86.051527 
L 613.836735 86.32676 
L 619.530612 84.756124 
L 625.22449 85.500164 
L 630.918367 85.064856 
L 636.612245 84.41219 
L 642.306122 82.952638 
L 648 84.099008 
" clip-path="url(#pe9158e15b7)" style="fill: none; stroke: #0000ff; stroke-width: 1.5; stroke-linecap: square"/>
   </g>
   <g id="line2d_19">
    <path d="M 90 239.530657 
L 95.693878 240.920655 
L 101.387755 241.257435 
L 107.081633 240.868027 
L 112.77551 238.875928 
L 118.469388 236.305581 
L 124.163265 235.69378 
L 129.857143 233.999558 
L 135.55102 234.972716 
L 141.244898 231.30617 
L 146.938776 229.925516 
L 152.632653 223.289864 
L 158.326531 212.499673 
L 164.020408 193.132074 
L 169.714286 178.256455 
L 175.408163 171.070273 
L 181.102041 159.564807 
L 186.795918 153.782318 
L 192.489796 157.253218 
L 198.183673 156.575215 
L 203.877551 151.030237 
L 209.571429 152.176948 
L 215.265306 153.476259 
L 220.959184 151.336045 
L 226.653061 152.746854 
L 232.346939 151.749377 
L 238.040816 152.630904 
L 243.734694 153.470046 
L 249.428571 152.291392 
L 255.122449 152.712754 
L 260.816327 153.106954 
L 266.510204 153.60948 
L 272.204082 153.852094 
L 277.897959 152.987072 
L 283.591837 151.099107 
L 289.285714 150.596893 
L 294.979592 151.024826 
L 300.673469 150.363715 
L 306.367347 150.898162 
L 312.061224 150.375156 
L 317.755102 148.800858 
L 323.44898 148.871905 
L 329.142857 148.272707 
L 334.836735 148.098779 
L 340.530612 147.553307 
L 346.22449 147.795315 
L 351.918367 147.829578 
L 357.612245 147.880124 
L 363.306122 147.769226 
L 369 147.537451 
L 374.693878 147.258037 
L 380.387755 146.362744 
L 386.081633 145.944836 
L 391.77551 145.24931 
L 397.469388 145.898147 
L 403.163265 145.914279 
L 408.857143 145.156599 
L 414.55102 145.506405 
L 420.244898 145.419932 
L 425.938776 145.043262 
L 431.632653 144.93997 
L 437.326531 144.162267 
L 443.020408 144.026577 
L 448.714286 143.448488 
L 454.408163 143.863235 
L 460.102041 144.048684 
L 465.795918 143.508599 
L 471.489796 142.080441 
L 477.183673 143.706527 
L 482.877551 144.032422 
L 488.571429 144.239832 
L 494.265306 142.11637 
L 499.959184 141.1938 
L 505.653061 141.178508 
L 511.346939 142.673007 
L 517.040816 142.967137 
L 522.734694 142.632267 
L 528.428571 140.969032 
L 534.122449 142.222788 
L 539.816327 141.909675 
L 545.510204 141.701068 
L 551.204082 141.57356 
L 556.897959 140.909199 
L 562.591837 140.523755 
L 568.285714 140.661182 
L 573.979592 141.457104 
L 579.673469 140.874229 
L 585.367347 140.590486 
L 591.061224 139.347363 
L 596.755102 141.091541 
L 602.44898 141.743254 
L 608.142857 141.369387 
L 613.836735 142.793129 
L 619.530612 141.448765 
L 625.22449 141.666003 
L 630.918367 141.302212 
L 636.612245 140.253119 
L 642.306122 138.850894 
L 648 139.162493 
" clip-path="url(#pe9158e15b7)" style="fill: none; stroke: #440154; stroke-width: 1.5; stroke-linecap: square"/>
   </g>
   <g id="line2d_20">
    <path d="M 90 240.326049 
L 95.693878 241.154166 
L 101.387755 239.713349 
L 107.081633 236.92013 
L 112.77551 233.608765 
L 118.469388 230.024399 
L 124.163265 225.57124 
L 129.857143 215.584007 
L 135.55102 196.260468 
L 141.244898 172.894764 
L 146.938776 152.645949 
L 152.632653 154.344206 
L 158.326531 159.799651 
L 164.020408 160.562566 
L 169.714286 155.443614 
L 175.408163 159.717459 
L 181.102041 144.298883 
L 186.795918 150.262578 
L 192.489796 149.095686 
L 198.183673 150.133207 
L 203.877551 149.137931 
L 209.571429 148.6719 
L 215.265306 150.219496 
L 220.959184 148.998173 
L 226.653061 147.463889 
L 232.346939 147.683617 
L 238.040816 146.749262 
L 243.734694 149.942213 
L 249.428571 149.915753 
L 255.122449 147.25939 
L 260.816327 147.472215 
L 266.510204 146.590065 
L 272.204082 148.513818 
L 277.897959 148.070379 
L 283.591837 148.91054 
L 289.285714 149.30575 
L 294.979592 148.474638 
L 300.673469 147.236729 
L 306.367347 146.665219 
L 312.061224 146.087884 
L 317.755102 145.931699 
L 323.44898 145.647271 
L 329.142857 145.802732 
L 334.836735 146.236767 
L 340.530612 145.63515 
L 346.22449 144.868655 
L 351.918367 144.306797 
L 357.612245 145.259285 
L 363.306122 146.100899 
L 369 146.56139 
L 374.693878 146.469547 
L 380.387755 145.608295 
L 386.081633 145.620367 
L 391.77551 146.126738 
L 397.469388 146.396366 
L 403.163265 146.419993 
L 408.857143 145.706636 
L 414.55102 145.644743 
L 420.244898 144.657892 
L 425.938776 143.950032 
L 431.632653 144.863519 
L 437.326531 144.853632 
L 443.020408 145.044438 
L 448.714286 146.203497 
L 454.408163 145.800445 
L 460.102041 145.202652 
L 465.795918 144.988364 
L 471.489796 144.995383 
L 477.183673 144.945154 
L 482.877551 144.70964 
L 488.571429 145.082706 
L 494.265306 144.907764 
L 499.959184 145.115948 
L 505.653061 146.130494 
L 511.346939 146.449893 
L 517.040816 145.692673 
L 522.734694 145.108818 
L 528.428571 143.622207 
L 534.122449 144.009801 
L 539.816327 144.071624 
L 545.510204 143.772638 
L 551.204082 144.324277 
L 556.897959 143.753209 
L 562.591837 144.805538 
L 568.285714 143.010518 
L 573.979592 142.873605 
L 579.673469 143.142966 
L 585.367347 142.583418 
L 591.061224 142.648115 
L 596.755102 141.829221 
L 602.44898 140.61427 
L 608.142857 141.532268 
L 613.836735 140.535694 
L 619.530612 140.80062 
L 625.22449 140.592601 
L 630.918367 140.137026 
L 636.612245 140.217988 
L 642.306122 140.47757 
L 648 141.009879 
" clip-path="url(#pe9158e15b7)" style="fill: none; stroke: #31688e; stroke-width: 1.5; stroke-linecap: square"/>
   </g>
   <g id="line2d_21">
    <path d="M 90 238.394454 
L 95.693878 238.42803 
L 101.387755 237.999307 
L 107.081633 239.090374 
L 112.77551 237.418417 
L 118.469388 236.322937 
L 124.163265 235.381982 
L 129.857143 231.737281 
L 135.55102 227.742866 
L 141.244898 221.905001 
L 146.938776 213.00989 
L 152.632653 182.016656 
L 158.326531 160.506905 
L 164.020408 164.954229 
L 169.714286 176.453922 
L 175.408163 183.688027 
L 181.102041 180.509421 
L 186.795918 179.494309 
L 192.489796 174.475461 
L 198.183673 169.650267 
L 203.877551 168.406152 
L 209.571429 169.253197 
L 215.265306 169.662493 
L 220.959184 168.289397 
L 226.653061 168.002393 
L 232.346939 170.05143 
L 238.040816 171.585347 
L 243.734694 170.89882 
L 249.428571 172.420275 
L 255.122449 171.452059 
L 260.816327 171.803384 
L 266.510204 171.420081 
L 272.204082 170.035413 
L 277.897959 170.758912 
L 283.591837 170.854217 
L 289.285714 170.180952 
L 294.979592 170.844318 
L 300.673469 170.124386 
L 306.367347 168.941174 
L 312.061224 167.676315 
L 317.755102 167.578145 
L 323.44898 168.508268 
L 329.142857 168.782683 
L 334.836735 168.612577 
L 340.530612 168.016728 
L 346.22449 167.319528 
L 351.918367 167.359978 
L 357.612245 167.388352 
L 363.306122 167.529103 
L 369 167.947117 
L 374.693878 167.328325 
L 380.387755 167.336872 
L 386.081633 167.182337 
L 391.77551 167.371201 
L 397.469388 167.706789 
L 403.163265 167.762607 
L 408.857143 168.995508 
L 414.55102 170.114722 
L 420.244898 170.519807 
L 425.938776 170.264796 
L 431.632653 170.990025 
L 437.326531 171.218446 
L 443.020408 171.522854 
L 448.714286 171.564703 
L 454.408163 172.057505 
L 460.102041 172.676215 
L 465.795918 172.115316 
L 471.489796 171.055491 
L 477.183673 170.974485 
L 482.877551 171.351651 
L 488.571429 171.864784 
L 494.265306 170.996182 
L 499.959184 171.112287 
L 505.653061 171.49916 
L 511.346939 171.053142 
L 517.040816 169.927686 
L 522.734694 169.632528 
L 528.428571 169.027564 
L 534.122449 169.633881 
L 539.816327 169.478724 
L 545.510204 169.764829 
L 551.204082 169.513093 
L 556.897959 168.998095 
L 562.591837 169.275994 
L 568.285714 169.30129 
L 573.979592 170.108964 
L 579.673469 169.931308 
L 585.367347 169.978816 
L 591.061224 170.097966 
L 596.755102 170.500637 
L 602.44898 170.45481 
L 608.142857 169.519016 
L 613.836735 169.367082 
L 619.530612 168.875883 
L 625.22449 169.610705 
L 630.918367 169.994762 
L 636.612245 170.310227 
L 642.306122 169.993319 
L 648 170.295781 
" clip-path="url(#pe9158e15b7)" style="fill: none; stroke: #35b779; stroke-width: 1.5; stroke-linecap: square"/>
   </g>
   <g id="patch_3">
    <path d="M 90 384.48 
L 90 51.84 
" style="fill: none; stroke: #000000; stroke-width: 2; stroke-linejoin: miter; stroke-linecap: square"/>
   </g>
   <g id="patch_4">
    <path d="M 648 384.48 
L 648 51.84 
" style="fill: none; stroke: #000000; stroke-width: 2; stroke-linejoin: miter; stroke-linecap: square"/>
   </g>
   <g id="patch_5">
    <path d="M 90 384.48 
L 648 384.48 
" style="fill: none; stroke: #000000; stroke-width: 2; stroke-linejoin: miter; stroke-linecap: square"/>
   </g>
   <g id="patch_6">
    <path d="M 90 51.84 
L 648 51.84 
" style="fill: none; stroke: #000000; stroke-width: 2; stroke-linejoin: miter; stroke-linecap: square"/>
   </g>
   <g id="text_20">
    <!-- Average Rewards with Variance per 20000 Episodes -->
    <g transform="translate(161.0725 45.84) scale(0.16 -0.16)">
     <defs>
      <path id="DejaVuSans-74" d="M 1172 4494 
L 1172 3500 
L 2356 3500 
L 2356 3053 
L 1172 3053 
L 1172 1153 
Q 1172 725 1289 603 
Q 1406 481 1766 481 
L 2356 481 
L 2356 0 
L 1766 0 
Q 1100 0 847 248 
Q 594 497 594 1153 
L 594 3053 
L 172 3053 
L 172 3500 
L 594 3500 
L 594 4494 
L 1172 4494 
z
" transform="scale(0.015625)"/>
      <path id="DejaVuSans-68" d="M 3513 2113 
L 3513 0 
L 2938 0 
L 2938 2094 
Q 2938 2591 2744 2837 
Q 2550 3084 2163 3084 
Q 1697 3084 1428 2787 
Q 1159 2491 1159 1978 
L 1159 0 
L 581 0 
L 581 4863 
L 1159 4863 
L 1159 2956 
Q 1366 3272 1645 3428 
Q 1925 3584 2291 3584 
Q 2894 3584 3203 3211 
Q 3513 2838 3513 2113 
z
" transform="scale(0.015625)"/>
      <path id="DejaVuSans-56" d="M 1831 0 
L 50 4666 
L 709 4666 
L 2188 738 
L 3669 4666 
L 4325 4666 
L 2547 0 
L 1831 0 
z
" transform="scale(0.015625)"/>
      <path id="DejaVuSans-6e" d="M 3513 2113 
L 3513 0 
L 2938 0 
L 2938 2094 
Q 2938 2591 2744 2837 
Q 2550 3084 2163 3084 
Q 1697 3084 1428 2787 
Q 1159 2491 1159 1978 
L 1159 0 
L 581 0 
L 581 3500 
L 1159 3500 
L 1159 2956 
Q 1366 3272 1645 3428 
Q 1925 3584 2291 3584 
Q 2894 3584 3203 3211 
Q 3513 2838 3513 2113 
z
" transform="scale(0.015625)"/>
      <path id="DejaVuSans-63" d="M 3122 3366 
L 3122 2828 
Q 2878 2963 2633 3030 
Q 2388 3097 2138 3097 
Q 1578 3097 1268 2742 
Q 959 2388 959 1747 
Q 959 1106 1268 751 
Q 1578 397 2138 397 
Q 2388 397 2633 464 
Q 2878 531 3122 666 
L 3122 134 
Q 2881 22 2623 -34 
Q 2366 -91 2075 -91 
Q 1284 -91 818 406 
Q 353 903 353 1747 
Q 353 2603 823 3093 
Q 1294 3584 2113 3584 
Q 2378 3584 2631 3529 
Q 2884 3475 3122 3366 
z
" transform="scale(0.015625)"/>
     </defs>
     <use xlink:href="#DejaVuSans-41"/>
     <use xlink:href="#DejaVuSans-76" x="62.533203"/>
     <use xlink:href="#DejaVuSans-65" x="121.712891"/>
     <use xlink:href="#DejaVuSans-72" x="183.236328"/>
     <use xlink:href="#DejaVuSans-61" x="224.349609"/>
     <use xlink:href="#DejaVuSans-67" x="285.628906"/>
     <use xlink:href="#DejaVuSans-65" x="349.105469"/>
     <use xlink:href="#DejaVuSans-20" x="410.628906"/>
     <use xlink:href="#DejaVuSans-52" x="442.416016"/>
     <use xlink:href="#DejaVuSans-65" x="507.398438"/>
     <use xlink:href="#DejaVuSans-77" x="568.921875"/>
     <use xlink:href="#DejaVuSans-61" x="650.708984"/>
     <use xlink:href="#DejaVuSans-72" x="711.988281"/>
     <use xlink:href="#DejaVuSans-64" x="751.351562"/>
     <use xlink:href="#DejaVuSans-73" x="814.828125"/>
     <use xlink:href="#DejaVuSans-20" x="866.927734"/>
     <use xlink:href="#DejaVuSans-77" x="898.714844"/>
     <use xlink:href="#DejaVuSans-69" x="980.501953"/>
     <use xlink:href="#DejaVuSans-74" x="1008.285156"/>
     <use xlink:href="#DejaVuSans-68" x="1047.494141"/>
     <use xlink:href="#DejaVuSans-20" x="1110.873047"/>
     <use xlink:href="#DejaVuSans-56" x="1142.660156"/>
     <use xlink:href="#DejaVuSans-61" x="1203.318359"/>
     <use xlink:href="#DejaVuSans-72" x="1264.597656"/>
     <use xlink:href="#DejaVuSans-69" x="1305.710938"/>
     <use xlink:href="#DejaVuSans-61" x="1333.494141"/>
     <use xlink:href="#DejaVuSans-6e" x="1394.773438"/>
     <use xlink:href="#DejaVuSans-63" x="1458.152344"/>
     <use xlink:href="#DejaVuSans-65" x="1513.132812"/>
     <use xlink:href="#DejaVuSans-20" x="1574.65625"/>
     <use xlink:href="#DejaVuSans-70" x="1606.443359"/>
     <use xlink:href="#DejaVuSans-65" x="1669.919922"/>
     <use xlink:href="#DejaVuSans-72" x="1731.443359"/>
     <use xlink:href="#DejaVuSans-20" x="1772.556641"/>
     <use xlink:href="#DejaVuSans-32" x="1804.34375"/>
     <use xlink:href="#DejaVuSans-30" x="1867.966797"/>
     <use xlink:href="#DejaVuSans-30" x="1931.589844"/>
     <use xlink:href="#DejaVuSans-30" x="1995.212891"/>
     <use xlink:href="#DejaVuSans-30" x="2058.835938"/>
     <use xlink:href="#DejaVuSans-20" x="2122.458984"/>
     <use xlink:href="#DejaVuSans-45" x="2154.246094"/>
     <use xlink:href="#DejaVuSans-70" x="2217.429688"/>
     <use xlink:href="#DejaVuSans-69" x="2280.90625"/>
     <use xlink:href="#DejaVuSans-73" x="2308.689453"/>
     <use xlink:href="#DejaVuSans-6f" x="2360.789062"/>
     <use xlink:href="#DejaVuSans-64" x="2421.970703"/>
     <use xlink:href="#DejaVuSans-65" x="2485.447266"/>
     <use xlink:href="#DejaVuSans-73" x="2546.970703"/>
    </g>
   </g>
   <g id="legend_1">
    <g id="patch_7">
     <path d="M 473.030625 378.48 
L 639.6 378.48 
Q 642 378.48 642 376.08 
L 642 306.825 
Q 642 304.425 639.6 304.425 
L 473.030625 304.425 
Q 470.630625 304.425 470.630625 306.825 
L 470.630625 376.08 
Q 470.630625 378.48 473.030625 378.48 
z
" style="fill: #ffffff; opacity: 0.8; stroke: #cccccc; stroke-linejoin: miter"/>
    </g>
    <g id="line2d_22">
     <path d="M 475.430625 314.143125 
L 487.430625 314.143125 
L 499.430625 314.143125 
" style="fill: none; stroke: #0000ff; stroke-width: 1.5; stroke-linecap: square"/>
    </g>
    <g id="text_21">
     <!-- Mean Total Reward -->
     <g transform="translate(509.030625 318.343125) scale(0.12 -0.12)">
      <defs>
       <path id="DejaVuSans-4d" d="M 628 4666 
L 1569 4666 
L 2759 1491 
L 3956 4666 
L 4897 4666 
L 4897 0 
L 4281 0 
L 4281 4097 
L 3078 897 
L 2444 897 
L 1241 4097 
L 1241 0 
L 628 0 
L 628 4666 
z
" transform="scale(0.015625)"/>
       <path id="DejaVuSans-54" d="M -19 4666 
L 3928 4666 
L 3928 4134 
L 2272 4134 
L 2272 0 
L 1638 0 
L 1638 4134 
L -19 4134 
L -19 4666 
z
" transform="scale(0.015625)"/>
       <path id="DejaVuSans-6c" d="M 603 4863 
L 1178 4863 
L 1178 0 
L 603 0 
L 603 4863 
z
" transform="scale(0.015625)"/>
      </defs>
      <use xlink:href="#DejaVuSans-4d"/>
      <use xlink:href="#DejaVuSans-65" x="86.279297"/>
      <use xlink:href="#DejaVuSans-61" x="147.802734"/>
      <use xlink:href="#DejaVuSans-6e" x="209.082031"/>
      <use xlink:href="#DejaVuSans-20" x="272.460938"/>
      <use xlink:href="#DejaVuSans-54" x="304.248047"/>
      <use xlink:href="#DejaVuSans-6f" x="348.332031"/>
      <use xlink:href="#DejaVuSans-74" x="409.513672"/>
      <use xlink:href="#DejaVuSans-61" x="448.722656"/>
      <use xlink:href="#DejaVuSans-6c" x="510.001953"/>
      <use xlink:href="#DejaVuSans-20" x="537.785156"/>
      <use xlink:href="#DejaVuSans-52" x="569.572266"/>
      <use xlink:href="#DejaVuSans-65" x="634.554688"/>
      <use xlink:href="#DejaVuSans-77" x="696.078125"/>
      <use xlink:href="#DejaVuSans-61" x="777.865234"/>
      <use xlink:href="#DejaVuSans-72" x="839.144531"/>
      <use xlink:href="#DejaVuSans-64" x="878.507812"/>
     </g>
    </g>
    <g id="line2d_23">
     <path d="M 475.430625 331.756875 
L 487.430625 331.756875 
L 499.430625 331.756875 
" style="fill: none; stroke: #440154; stroke-width: 1.5; stroke-linecap: square"/>
    </g>
    <g id="text_22">
     <!-- Mean Agent1 Reward -->
     <g transform="translate(509.030625 335.956875) scale(0.12 -0.12)">
      <use xlink:href="#DejaVuSans-4d"/>
      <use xlink:href="#DejaVuSans-65" x="86.279297"/>
      <use xlink:href="#DejaVuSans-61" x="147.802734"/>
      <use xlink:href="#DejaVuSans-6e" x="209.082031"/>
      <use xlink:href="#DejaVuSans-20" x="272.460938"/>
      <use xlink:href="#DejaVuSans-41" x="304.248047"/>
      <use xlink:href="#DejaVuSans-67" x="372.65625"/>
      <use xlink:href="#DejaVuSans-65" x="436.132812"/>
      <use xlink:href="#DejaVuSans-6e" x="497.65625"/>
      <use xlink:href="#DejaVuSans-74" x="561.035156"/>
      <use xlink:href="#DejaVuSans-31" x="600.244141"/>
      <use xlink:href="#DejaVuSans-20" x="663.867188"/>
      <use xlink:href="#DejaVuSans-52" x="695.654297"/>
      <use xlink:href="#DejaVuSans-65" x="760.636719"/>
      <use xlink:href="#DejaVuSans-77" x="822.160156"/>
      <use xlink:href="#DejaVuSans-61" x="903.947266"/>
      <use xlink:href="#DejaVuSans-72" x="965.226562"/>
      <use xlink:href="#DejaVuSans-64" x="1004.589844"/>
     </g>
    </g>
    <g id="line2d_24">
     <path d="M 475.430625 349.370625 
L 487.430625 349.370625 
L 499.430625 349.370625 
" style="fill: none; stroke: #31688e; stroke-width: 1.5; stroke-linecap: square"/>
    </g>
    <g id="text_23">
     <!-- Mean Agent2 Reward -->
     <g transform="translate(509.030625 353.570625) scale(0.12 -0.12)">
      <use xlink:href="#DejaVuSans-4d"/>
      <use xlink:href="#DejaVuSans-65" x="86.279297"/>
      <use xlink:href="#DejaVuSans-61" x="147.802734"/>
      <use xlink:href="#DejaVuSans-6e" x="209.082031"/>
      <use xlink:href="#DejaVuSans-20" x="272.460938"/>
      <use xlink:href="#DejaVuSans-41" x="304.248047"/>
      <use xlink:href="#DejaVuSans-67" x="372.65625"/>
      <use xlink:href="#DejaVuSans-65" x="436.132812"/>
      <use xlink:href="#DejaVuSans-6e" x="497.65625"/>
      <use xlink:href="#DejaVuSans-74" x="561.035156"/>
      <use xlink:href="#DejaVuSans-32" x="600.244141"/>
      <use xlink:href="#DejaVuSans-20" x="663.867188"/>
      <use xlink:href="#DejaVuSans-52" x="695.654297"/>
      <use xlink:href="#DejaVuSans-65" x="760.636719"/>
      <use xlink:href="#DejaVuSans-77" x="822.160156"/>
      <use xlink:href="#DejaVuSans-61" x="903.947266"/>
      <use xlink:href="#DejaVuSans-72" x="965.226562"/>
      <use xlink:href="#DejaVuSans-64" x="1004.589844"/>
     </g>
    </g>
    <g id="line2d_25">
     <path d="M 475.430625 366.984375 
L 487.430625 366.984375 
L 499.430625 366.984375 
" style="fill: none; stroke: #35b779; stroke-width: 1.5; stroke-linecap: square"/>
    </g>
    <g id="text_24">
     <!-- Mean Agent3 Reward -->
     <g transform="translate(509.030625 371.184375) scale(0.12 -0.12)">
      <use xlink:href="#DejaVuSans-4d"/>
      <use xlink:href="#DejaVuSans-65" x="86.279297"/>
      <use xlink:href="#DejaVuSans-61" x="147.802734"/>
      <use xlink:href="#DejaVuSans-6e" x="209.082031"/>
      <use xlink:href="#DejaVuSans-20" x="272.460938"/>
      <use xlink:href="#DejaVuSans-41" x="304.248047"/>
      <use xlink:href="#DejaVuSans-67" x="372.65625"/>
      <use xlink:href="#DejaVuSans-65" x="436.132812"/>
      <use xlink:href="#DejaVuSans-6e" x="497.65625"/>
      <use xlink:href="#DejaVuSans-74" x="561.035156"/>
      <use xlink:href="#DejaVuSans-33" x="600.244141"/>
      <use xlink:href="#DejaVuSans-20" x="663.867188"/>
      <use xlink:href="#DejaVuSans-52" x="695.654297"/>
      <use xlink:href="#DejaVuSans-65" x="760.636719"/>
      <use xlink:href="#DejaVuSans-77" x="822.160156"/>
      <use xlink:href="#DejaVuSans-61" x="903.947266"/>
      <use xlink:href="#DejaVuSans-72" x="965.226562"/>
      <use xlink:href="#DejaVuSans-64" x="1004.589844"/>
     </g>
    </g>
   </g>
  </g>
 </g>
 <defs>
  <clipPath id="pe9158e15b7">
   <rect x="90" y="51.84" width="558" height="332.64"/>
  </clipPath>
 </defs>
</svg>
